G04 #@! TF.GenerationSoftware,KiCad,Pcbnew,(5.0.0)*
G04 #@! TF.CreationDate,2020-11-12T12:13:27-08:00*
G04 #@! TF.ProjectId,Valve_Monitor_ArduinoNano,56616C76655F4D6F6E69746F725F4172,rev?*
G04 #@! TF.SameCoordinates,Original*
G04 #@! TF.FileFunction,Soldermask,Bot*
G04 #@! TF.FilePolarity,Negative*
%FSLAX46Y46*%
G04 Gerber Fmt 4.6, Leading zero omitted, Abs format (unit mm)*
G04 Created by KiCad (PCBNEW (5.0.0)) date 11/12/20 12:13:27*
%MOMM*%
%LPD*%
G01*
G04 APERTURE LIST*
%ADD10C,0.100000*%
%ADD11C,5.700000*%
%ADD12C,1.700000*%
%ADD13C,2.250000*%
%ADD14C,0.800000*%
%ADD15O,1.700000X1.700000*%
%ADD16R,1.700000X1.700000*%
%ADD17O,1.600000X1.600000*%
%ADD18R,1.600000X1.600000*%
G04 APERTURE END LIST*
D10*
G04 #@! TO.C,J1*
G36*
X93391000Y-50428000D02*
X93391000Y-49228000D01*
X93392096Y-49186131D01*
X93395382Y-49144377D01*
X93400849Y-49102852D01*
X93408482Y-49061671D01*
X93418259Y-49020945D01*
X93430155Y-48980786D01*
X93444136Y-48941306D01*
X93460164Y-48902611D01*
X93478195Y-48864808D01*
X93498180Y-48828000D01*
X93520064Y-48792289D01*
X93543786Y-48757772D01*
X93569283Y-48724544D01*
X93596484Y-48692696D01*
X93625315Y-48662315D01*
X93655696Y-48633484D01*
X93687544Y-48606283D01*
X93720772Y-48580786D01*
X93755289Y-48557064D01*
X93791000Y-48535180D01*
X93827808Y-48515195D01*
X93865611Y-48497164D01*
X93904306Y-48481136D01*
X93943786Y-48467155D01*
X93983945Y-48455259D01*
X94024671Y-48445482D01*
X94065852Y-48437849D01*
X94107377Y-48432382D01*
X94149131Y-48429096D01*
X94191000Y-48428000D01*
X94232869Y-48429096D01*
X94274623Y-48432382D01*
X94316148Y-48437849D01*
X94357329Y-48445482D01*
X94398055Y-48455259D01*
X94438214Y-48467155D01*
X94477694Y-48481136D01*
X94516389Y-48497164D01*
X94554192Y-48515195D01*
X94591000Y-48535180D01*
X94626711Y-48557064D01*
X94661228Y-48580786D01*
X94694456Y-48606283D01*
X94726304Y-48633484D01*
X94756685Y-48662315D01*
X94785516Y-48692696D01*
X94812717Y-48724544D01*
X94838214Y-48757772D01*
X94861936Y-48792289D01*
X94883820Y-48828000D01*
X94903805Y-48864808D01*
X94921836Y-48902611D01*
X94937864Y-48941306D01*
X94951845Y-48980786D01*
X94963741Y-49020945D01*
X94973518Y-49061671D01*
X94981151Y-49102852D01*
X94986618Y-49144377D01*
X94989904Y-49186131D01*
X94991000Y-49228000D01*
X94991000Y-50428000D01*
X94989904Y-50469869D01*
X94986618Y-50511623D01*
X94981151Y-50553148D01*
X94973518Y-50594329D01*
X94963741Y-50635055D01*
X94951845Y-50675214D01*
X94937864Y-50714694D01*
X94921836Y-50753389D01*
X94903805Y-50791192D01*
X94883820Y-50828000D01*
X94861936Y-50863711D01*
X94838214Y-50898228D01*
X94812717Y-50931456D01*
X94785516Y-50963304D01*
X94756685Y-50993685D01*
X94726304Y-51022516D01*
X94694456Y-51049717D01*
X94661228Y-51075214D01*
X94626711Y-51098936D01*
X94591000Y-51120820D01*
X94554192Y-51140805D01*
X94516389Y-51158836D01*
X94477694Y-51174864D01*
X94438214Y-51188845D01*
X94398055Y-51200741D01*
X94357329Y-51210518D01*
X94316148Y-51218151D01*
X94274623Y-51223618D01*
X94232869Y-51226904D01*
X94191000Y-51228000D01*
X94149131Y-51226904D01*
X94107377Y-51223618D01*
X94065852Y-51218151D01*
X94024671Y-51210518D01*
X93983945Y-51200741D01*
X93943786Y-51188845D01*
X93904306Y-51174864D01*
X93865611Y-51158836D01*
X93827808Y-51140805D01*
X93791000Y-51120820D01*
X93755289Y-51098936D01*
X93720772Y-51075214D01*
X93687544Y-51049717D01*
X93655696Y-51022516D01*
X93625315Y-50993685D01*
X93596484Y-50963304D01*
X93569283Y-50931456D01*
X93543786Y-50898228D01*
X93520064Y-50863711D01*
X93498180Y-50828000D01*
X93478195Y-50791192D01*
X93460164Y-50753389D01*
X93444136Y-50714694D01*
X93430155Y-50675214D01*
X93418259Y-50635055D01*
X93408482Y-50594329D01*
X93400849Y-50553148D01*
X93395382Y-50511623D01*
X93392096Y-50469869D01*
X93391000Y-50428000D01*
X93391000Y-50428000D01*
G37*
X93391000Y-50428000D02*
X93391000Y-49228000D01*
X93392096Y-49186131D01*
X93395382Y-49144377D01*
X93400849Y-49102852D01*
X93408482Y-49061671D01*
X93418259Y-49020945D01*
X93430155Y-48980786D01*
X93444136Y-48941306D01*
X93460164Y-48902611D01*
X93478195Y-48864808D01*
X93498180Y-48828000D01*
X93520064Y-48792289D01*
X93543786Y-48757772D01*
X93569283Y-48724544D01*
X93596484Y-48692696D01*
X93625315Y-48662315D01*
X93655696Y-48633484D01*
X93687544Y-48606283D01*
X93720772Y-48580786D01*
X93755289Y-48557064D01*
X93791000Y-48535180D01*
X93827808Y-48515195D01*
X93865611Y-48497164D01*
X93904306Y-48481136D01*
X93943786Y-48467155D01*
X93983945Y-48455259D01*
X94024671Y-48445482D01*
X94065852Y-48437849D01*
X94107377Y-48432382D01*
X94149131Y-48429096D01*
X94191000Y-48428000D01*
X94232869Y-48429096D01*
X94274623Y-48432382D01*
X94316148Y-48437849D01*
X94357329Y-48445482D01*
X94398055Y-48455259D01*
X94438214Y-48467155D01*
X94477694Y-48481136D01*
X94516389Y-48497164D01*
X94554192Y-48515195D01*
X94591000Y-48535180D01*
X94626711Y-48557064D01*
X94661228Y-48580786D01*
X94694456Y-48606283D01*
X94726304Y-48633484D01*
X94756685Y-48662315D01*
X94785516Y-48692696D01*
X94812717Y-48724544D01*
X94838214Y-48757772D01*
X94861936Y-48792289D01*
X94883820Y-48828000D01*
X94903805Y-48864808D01*
X94921836Y-48902611D01*
X94937864Y-48941306D01*
X94951845Y-48980786D01*
X94963741Y-49020945D01*
X94973518Y-49061671D01*
X94981151Y-49102852D01*
X94986618Y-49144377D01*
X94989904Y-49186131D01*
X94991000Y-49228000D01*
X94991000Y-50428000D01*
X94989904Y-50469869D01*
X94986618Y-50511623D01*
X94981151Y-50553148D01*
X94973518Y-50594329D01*
X94963741Y-50635055D01*
X94951845Y-50675214D01*
X94937864Y-50714694D01*
X94921836Y-50753389D01*
X94903805Y-50791192D01*
X94883820Y-50828000D01*
X94861936Y-50863711D01*
X94838214Y-50898228D01*
X94812717Y-50931456D01*
X94785516Y-50963304D01*
X94756685Y-50993685D01*
X94726304Y-51022516D01*
X94694456Y-51049717D01*
X94661228Y-51075214D01*
X94626711Y-51098936D01*
X94591000Y-51120820D01*
X94554192Y-51140805D01*
X94516389Y-51158836D01*
X94477694Y-51174864D01*
X94438214Y-51188845D01*
X94398055Y-51200741D01*
X94357329Y-51210518D01*
X94316148Y-51218151D01*
X94274623Y-51223618D01*
X94232869Y-51226904D01*
X94191000Y-51228000D01*
X94149131Y-51226904D01*
X94107377Y-51223618D01*
X94065852Y-51218151D01*
X94024671Y-51210518D01*
X93983945Y-51200741D01*
X93943786Y-51188845D01*
X93904306Y-51174864D01*
X93865611Y-51158836D01*
X93827808Y-51140805D01*
X93791000Y-51120820D01*
X93755289Y-51098936D01*
X93720772Y-51075214D01*
X93687544Y-51049717D01*
X93655696Y-51022516D01*
X93625315Y-50993685D01*
X93596484Y-50963304D01*
X93569283Y-50931456D01*
X93543786Y-50898228D01*
X93520064Y-50863711D01*
X93498180Y-50828000D01*
X93478195Y-50791192D01*
X93460164Y-50753389D01*
X93444136Y-50714694D01*
X93430155Y-50675214D01*
X93418259Y-50635055D01*
X93408482Y-50594329D01*
X93400849Y-50553148D01*
X93395382Y-50511623D01*
X93392096Y-50469869D01*
X93391000Y-50428000D01*
G36*
X83891000Y-50428000D02*
X83891000Y-49228000D01*
X83892096Y-49186131D01*
X83895382Y-49144377D01*
X83900849Y-49102852D01*
X83908482Y-49061671D01*
X83918259Y-49020945D01*
X83930155Y-48980786D01*
X83944136Y-48941306D01*
X83960164Y-48902611D01*
X83978195Y-48864808D01*
X83998180Y-48828000D01*
X84020064Y-48792289D01*
X84043786Y-48757772D01*
X84069283Y-48724544D01*
X84096484Y-48692696D01*
X84125315Y-48662315D01*
X84155696Y-48633484D01*
X84187544Y-48606283D01*
X84220772Y-48580786D01*
X84255289Y-48557064D01*
X84291000Y-48535180D01*
X84327808Y-48515195D01*
X84365611Y-48497164D01*
X84404306Y-48481136D01*
X84443786Y-48467155D01*
X84483945Y-48455259D01*
X84524671Y-48445482D01*
X84565852Y-48437849D01*
X84607377Y-48432382D01*
X84649131Y-48429096D01*
X84691000Y-48428000D01*
X84732869Y-48429096D01*
X84774623Y-48432382D01*
X84816148Y-48437849D01*
X84857329Y-48445482D01*
X84898055Y-48455259D01*
X84938214Y-48467155D01*
X84977694Y-48481136D01*
X85016389Y-48497164D01*
X85054192Y-48515195D01*
X85091000Y-48535180D01*
X85126711Y-48557064D01*
X85161228Y-48580786D01*
X85194456Y-48606283D01*
X85226304Y-48633484D01*
X85256685Y-48662315D01*
X85285516Y-48692696D01*
X85312717Y-48724544D01*
X85338214Y-48757772D01*
X85361936Y-48792289D01*
X85383820Y-48828000D01*
X85403805Y-48864808D01*
X85421836Y-48902611D01*
X85437864Y-48941306D01*
X85451845Y-48980786D01*
X85463741Y-49020945D01*
X85473518Y-49061671D01*
X85481151Y-49102852D01*
X85486618Y-49144377D01*
X85489904Y-49186131D01*
X85491000Y-49228000D01*
X85491000Y-50428000D01*
X85489904Y-50469869D01*
X85486618Y-50511623D01*
X85481151Y-50553148D01*
X85473518Y-50594329D01*
X85463741Y-50635055D01*
X85451845Y-50675214D01*
X85437864Y-50714694D01*
X85421836Y-50753389D01*
X85403805Y-50791192D01*
X85383820Y-50828000D01*
X85361936Y-50863711D01*
X85338214Y-50898228D01*
X85312717Y-50931456D01*
X85285516Y-50963304D01*
X85256685Y-50993685D01*
X85226304Y-51022516D01*
X85194456Y-51049717D01*
X85161228Y-51075214D01*
X85126711Y-51098936D01*
X85091000Y-51120820D01*
X85054192Y-51140805D01*
X85016389Y-51158836D01*
X84977694Y-51174864D01*
X84938214Y-51188845D01*
X84898055Y-51200741D01*
X84857329Y-51210518D01*
X84816148Y-51218151D01*
X84774623Y-51223618D01*
X84732869Y-51226904D01*
X84691000Y-51228000D01*
X84649131Y-51226904D01*
X84607377Y-51223618D01*
X84565852Y-51218151D01*
X84524671Y-51210518D01*
X84483945Y-51200741D01*
X84443786Y-51188845D01*
X84404306Y-51174864D01*
X84365611Y-51158836D01*
X84327808Y-51140805D01*
X84291000Y-51120820D01*
X84255289Y-51098936D01*
X84220772Y-51075214D01*
X84187544Y-51049717D01*
X84155696Y-51022516D01*
X84125315Y-50993685D01*
X84096484Y-50963304D01*
X84069283Y-50931456D01*
X84043786Y-50898228D01*
X84020064Y-50863711D01*
X83998180Y-50828000D01*
X83978195Y-50791192D01*
X83960164Y-50753389D01*
X83944136Y-50714694D01*
X83930155Y-50675214D01*
X83918259Y-50635055D01*
X83908482Y-50594329D01*
X83900849Y-50553148D01*
X83895382Y-50511623D01*
X83892096Y-50469869D01*
X83891000Y-50428000D01*
X83891000Y-50428000D01*
G37*
X83891000Y-50428000D02*
X83891000Y-49228000D01*
X83892096Y-49186131D01*
X83895382Y-49144377D01*
X83900849Y-49102852D01*
X83908482Y-49061671D01*
X83918259Y-49020945D01*
X83930155Y-48980786D01*
X83944136Y-48941306D01*
X83960164Y-48902611D01*
X83978195Y-48864808D01*
X83998180Y-48828000D01*
X84020064Y-48792289D01*
X84043786Y-48757772D01*
X84069283Y-48724544D01*
X84096484Y-48692696D01*
X84125315Y-48662315D01*
X84155696Y-48633484D01*
X84187544Y-48606283D01*
X84220772Y-48580786D01*
X84255289Y-48557064D01*
X84291000Y-48535180D01*
X84327808Y-48515195D01*
X84365611Y-48497164D01*
X84404306Y-48481136D01*
X84443786Y-48467155D01*
X84483945Y-48455259D01*
X84524671Y-48445482D01*
X84565852Y-48437849D01*
X84607377Y-48432382D01*
X84649131Y-48429096D01*
X84691000Y-48428000D01*
X84732869Y-48429096D01*
X84774623Y-48432382D01*
X84816148Y-48437849D01*
X84857329Y-48445482D01*
X84898055Y-48455259D01*
X84938214Y-48467155D01*
X84977694Y-48481136D01*
X85016389Y-48497164D01*
X85054192Y-48515195D01*
X85091000Y-48535180D01*
X85126711Y-48557064D01*
X85161228Y-48580786D01*
X85194456Y-48606283D01*
X85226304Y-48633484D01*
X85256685Y-48662315D01*
X85285516Y-48692696D01*
X85312717Y-48724544D01*
X85338214Y-48757772D01*
X85361936Y-48792289D01*
X85383820Y-48828000D01*
X85403805Y-48864808D01*
X85421836Y-48902611D01*
X85437864Y-48941306D01*
X85451845Y-48980786D01*
X85463741Y-49020945D01*
X85473518Y-49061671D01*
X85481151Y-49102852D01*
X85486618Y-49144377D01*
X85489904Y-49186131D01*
X85491000Y-49228000D01*
X85491000Y-50428000D01*
X85489904Y-50469869D01*
X85486618Y-50511623D01*
X85481151Y-50553148D01*
X85473518Y-50594329D01*
X85463741Y-50635055D01*
X85451845Y-50675214D01*
X85437864Y-50714694D01*
X85421836Y-50753389D01*
X85403805Y-50791192D01*
X85383820Y-50828000D01*
X85361936Y-50863711D01*
X85338214Y-50898228D01*
X85312717Y-50931456D01*
X85285516Y-50963304D01*
X85256685Y-50993685D01*
X85226304Y-51022516D01*
X85194456Y-51049717D01*
X85161228Y-51075214D01*
X85126711Y-51098936D01*
X85091000Y-51120820D01*
X85054192Y-51140805D01*
X85016389Y-51158836D01*
X84977694Y-51174864D01*
X84938214Y-51188845D01*
X84898055Y-51200741D01*
X84857329Y-51210518D01*
X84816148Y-51218151D01*
X84774623Y-51223618D01*
X84732869Y-51226904D01*
X84691000Y-51228000D01*
X84649131Y-51226904D01*
X84607377Y-51223618D01*
X84565852Y-51218151D01*
X84524671Y-51210518D01*
X84483945Y-51200741D01*
X84443786Y-51188845D01*
X84404306Y-51174864D01*
X84365611Y-51158836D01*
X84327808Y-51140805D01*
X84291000Y-51120820D01*
X84255289Y-51098936D01*
X84220772Y-51075214D01*
X84187544Y-51049717D01*
X84155696Y-51022516D01*
X84125315Y-50993685D01*
X84096484Y-50963304D01*
X84069283Y-50931456D01*
X84043786Y-50898228D01*
X84020064Y-50863711D01*
X83998180Y-50828000D01*
X83978195Y-50791192D01*
X83960164Y-50753389D01*
X83944136Y-50714694D01*
X83930155Y-50675214D01*
X83918259Y-50635055D01*
X83908482Y-50594329D01*
X83900849Y-50553148D01*
X83895382Y-50511623D01*
X83892096Y-50469869D01*
X83891000Y-50428000D01*
G36*
X93391000Y-45728000D02*
X93391000Y-44528000D01*
X93392096Y-44486131D01*
X93395382Y-44444377D01*
X93400849Y-44402852D01*
X93408482Y-44361671D01*
X93418259Y-44320945D01*
X93430155Y-44280786D01*
X93444136Y-44241306D01*
X93460164Y-44202611D01*
X93478195Y-44164808D01*
X93498180Y-44128000D01*
X93520064Y-44092289D01*
X93543786Y-44057772D01*
X93569283Y-44024544D01*
X93596484Y-43992696D01*
X93625315Y-43962315D01*
X93655696Y-43933484D01*
X93687544Y-43906283D01*
X93720772Y-43880786D01*
X93755289Y-43857064D01*
X93791000Y-43835180D01*
X93827808Y-43815195D01*
X93865611Y-43797164D01*
X93904306Y-43781136D01*
X93943786Y-43767155D01*
X93983945Y-43755259D01*
X94024671Y-43745482D01*
X94065852Y-43737849D01*
X94107377Y-43732382D01*
X94149131Y-43729096D01*
X94191000Y-43728000D01*
X94232869Y-43729096D01*
X94274623Y-43732382D01*
X94316148Y-43737849D01*
X94357329Y-43745482D01*
X94398055Y-43755259D01*
X94438214Y-43767155D01*
X94477694Y-43781136D01*
X94516389Y-43797164D01*
X94554192Y-43815195D01*
X94591000Y-43835180D01*
X94626711Y-43857064D01*
X94661228Y-43880786D01*
X94694456Y-43906283D01*
X94726304Y-43933484D01*
X94756685Y-43962315D01*
X94785516Y-43992696D01*
X94812717Y-44024544D01*
X94838214Y-44057772D01*
X94861936Y-44092289D01*
X94883820Y-44128000D01*
X94903805Y-44164808D01*
X94921836Y-44202611D01*
X94937864Y-44241306D01*
X94951845Y-44280786D01*
X94963741Y-44320945D01*
X94973518Y-44361671D01*
X94981151Y-44402852D01*
X94986618Y-44444377D01*
X94989904Y-44486131D01*
X94991000Y-44528000D01*
X94991000Y-45728000D01*
X94989904Y-45769869D01*
X94986618Y-45811623D01*
X94981151Y-45853148D01*
X94973518Y-45894329D01*
X94963741Y-45935055D01*
X94951845Y-45975214D01*
X94937864Y-46014694D01*
X94921836Y-46053389D01*
X94903805Y-46091192D01*
X94883820Y-46128000D01*
X94861936Y-46163711D01*
X94838214Y-46198228D01*
X94812717Y-46231456D01*
X94785516Y-46263304D01*
X94756685Y-46293685D01*
X94726304Y-46322516D01*
X94694456Y-46349717D01*
X94661228Y-46375214D01*
X94626711Y-46398936D01*
X94591000Y-46420820D01*
X94554192Y-46440805D01*
X94516389Y-46458836D01*
X94477694Y-46474864D01*
X94438214Y-46488845D01*
X94398055Y-46500741D01*
X94357329Y-46510518D01*
X94316148Y-46518151D01*
X94274623Y-46523618D01*
X94232869Y-46526904D01*
X94191000Y-46528000D01*
X94149131Y-46526904D01*
X94107377Y-46523618D01*
X94065852Y-46518151D01*
X94024671Y-46510518D01*
X93983945Y-46500741D01*
X93943786Y-46488845D01*
X93904306Y-46474864D01*
X93865611Y-46458836D01*
X93827808Y-46440805D01*
X93791000Y-46420820D01*
X93755289Y-46398936D01*
X93720772Y-46375214D01*
X93687544Y-46349717D01*
X93655696Y-46322516D01*
X93625315Y-46293685D01*
X93596484Y-46263304D01*
X93569283Y-46231456D01*
X93543786Y-46198228D01*
X93520064Y-46163711D01*
X93498180Y-46128000D01*
X93478195Y-46091192D01*
X93460164Y-46053389D01*
X93444136Y-46014694D01*
X93430155Y-45975214D01*
X93418259Y-45935055D01*
X93408482Y-45894329D01*
X93400849Y-45853148D01*
X93395382Y-45811623D01*
X93392096Y-45769869D01*
X93391000Y-45728000D01*
X93391000Y-45728000D01*
G37*
X93391000Y-45728000D02*
X93391000Y-44528000D01*
X93392096Y-44486131D01*
X93395382Y-44444377D01*
X93400849Y-44402852D01*
X93408482Y-44361671D01*
X93418259Y-44320945D01*
X93430155Y-44280786D01*
X93444136Y-44241306D01*
X93460164Y-44202611D01*
X93478195Y-44164808D01*
X93498180Y-44128000D01*
X93520064Y-44092289D01*
X93543786Y-44057772D01*
X93569283Y-44024544D01*
X93596484Y-43992696D01*
X93625315Y-43962315D01*
X93655696Y-43933484D01*
X93687544Y-43906283D01*
X93720772Y-43880786D01*
X93755289Y-43857064D01*
X93791000Y-43835180D01*
X93827808Y-43815195D01*
X93865611Y-43797164D01*
X93904306Y-43781136D01*
X93943786Y-43767155D01*
X93983945Y-43755259D01*
X94024671Y-43745482D01*
X94065852Y-43737849D01*
X94107377Y-43732382D01*
X94149131Y-43729096D01*
X94191000Y-43728000D01*
X94232869Y-43729096D01*
X94274623Y-43732382D01*
X94316148Y-43737849D01*
X94357329Y-43745482D01*
X94398055Y-43755259D01*
X94438214Y-43767155D01*
X94477694Y-43781136D01*
X94516389Y-43797164D01*
X94554192Y-43815195D01*
X94591000Y-43835180D01*
X94626711Y-43857064D01*
X94661228Y-43880786D01*
X94694456Y-43906283D01*
X94726304Y-43933484D01*
X94756685Y-43962315D01*
X94785516Y-43992696D01*
X94812717Y-44024544D01*
X94838214Y-44057772D01*
X94861936Y-44092289D01*
X94883820Y-44128000D01*
X94903805Y-44164808D01*
X94921836Y-44202611D01*
X94937864Y-44241306D01*
X94951845Y-44280786D01*
X94963741Y-44320945D01*
X94973518Y-44361671D01*
X94981151Y-44402852D01*
X94986618Y-44444377D01*
X94989904Y-44486131D01*
X94991000Y-44528000D01*
X94991000Y-45728000D01*
X94989904Y-45769869D01*
X94986618Y-45811623D01*
X94981151Y-45853148D01*
X94973518Y-45894329D01*
X94963741Y-45935055D01*
X94951845Y-45975214D01*
X94937864Y-46014694D01*
X94921836Y-46053389D01*
X94903805Y-46091192D01*
X94883820Y-46128000D01*
X94861936Y-46163711D01*
X94838214Y-46198228D01*
X94812717Y-46231456D01*
X94785516Y-46263304D01*
X94756685Y-46293685D01*
X94726304Y-46322516D01*
X94694456Y-46349717D01*
X94661228Y-46375214D01*
X94626711Y-46398936D01*
X94591000Y-46420820D01*
X94554192Y-46440805D01*
X94516389Y-46458836D01*
X94477694Y-46474864D01*
X94438214Y-46488845D01*
X94398055Y-46500741D01*
X94357329Y-46510518D01*
X94316148Y-46518151D01*
X94274623Y-46523618D01*
X94232869Y-46526904D01*
X94191000Y-46528000D01*
X94149131Y-46526904D01*
X94107377Y-46523618D01*
X94065852Y-46518151D01*
X94024671Y-46510518D01*
X93983945Y-46500741D01*
X93943786Y-46488845D01*
X93904306Y-46474864D01*
X93865611Y-46458836D01*
X93827808Y-46440805D01*
X93791000Y-46420820D01*
X93755289Y-46398936D01*
X93720772Y-46375214D01*
X93687544Y-46349717D01*
X93655696Y-46322516D01*
X93625315Y-46293685D01*
X93596484Y-46263304D01*
X93569283Y-46231456D01*
X93543786Y-46198228D01*
X93520064Y-46163711D01*
X93498180Y-46128000D01*
X93478195Y-46091192D01*
X93460164Y-46053389D01*
X93444136Y-46014694D01*
X93430155Y-45975214D01*
X93418259Y-45935055D01*
X93408482Y-45894329D01*
X93400849Y-45853148D01*
X93395382Y-45811623D01*
X93392096Y-45769869D01*
X93391000Y-45728000D01*
G36*
X90641000Y-46428000D02*
X88241000Y-46428000D01*
X88199395Y-46424062D01*
X88160475Y-46418245D01*
X88121912Y-46410400D01*
X88083813Y-46400547D01*
X88046282Y-46388713D01*
X88009421Y-46374931D01*
X87973333Y-46359240D01*
X87938115Y-46341681D01*
X87903864Y-46322303D01*
X87870674Y-46301158D01*
X87838637Y-46278306D01*
X87807839Y-46253809D01*
X87778366Y-46227733D01*
X87750298Y-46200150D01*
X87723711Y-46171136D01*
X87698680Y-46140771D01*
X87675272Y-46109137D01*
X87653552Y-46076322D01*
X87633579Y-46042414D01*
X87615408Y-46007508D01*
X87599089Y-45971699D01*
X87584666Y-45935085D01*
X87572179Y-45897766D01*
X87561663Y-45859844D01*
X87553145Y-45821424D01*
X87546650Y-45782612D01*
X87542195Y-45743512D01*
X87539793Y-45704233D01*
X87539450Y-45664882D01*
X87541000Y-45628000D01*
X87542096Y-45586131D01*
X87545382Y-45544377D01*
X87550849Y-45502852D01*
X87558482Y-45461671D01*
X87568259Y-45420945D01*
X87580155Y-45380786D01*
X87594136Y-45341306D01*
X87610164Y-45302611D01*
X87628195Y-45264808D01*
X87648180Y-45228000D01*
X87670064Y-45192289D01*
X87693786Y-45157772D01*
X87719283Y-45124544D01*
X87746484Y-45092696D01*
X87775315Y-45062315D01*
X87805696Y-45033484D01*
X87837544Y-45006283D01*
X87870772Y-44980786D01*
X87905289Y-44957064D01*
X87941000Y-44935180D01*
X87977808Y-44915195D01*
X88015611Y-44897164D01*
X88054306Y-44881136D01*
X88093786Y-44867155D01*
X88133945Y-44855259D01*
X88174671Y-44845482D01*
X88215852Y-44837849D01*
X88257377Y-44832382D01*
X88299131Y-44829096D01*
X88341000Y-44828000D01*
X90741000Y-44828000D01*
X90775922Y-44833885D01*
X90812065Y-44841897D01*
X90847738Y-44851790D01*
X90882845Y-44863537D01*
X90917289Y-44877105D01*
X90950975Y-44892457D01*
X90983812Y-44909550D01*
X91015710Y-44928339D01*
X91046580Y-44948772D01*
X91076338Y-44970792D01*
X91104904Y-44994340D01*
X91132198Y-45019350D01*
X91158145Y-45045754D01*
X91182675Y-45073481D01*
X91205721Y-45102453D01*
X91227218Y-45132591D01*
X91247109Y-45163813D01*
X91265338Y-45196033D01*
X91281856Y-45229164D01*
X91296618Y-45263113D01*
X91309583Y-45297789D01*
X91320715Y-45333095D01*
X91329984Y-45368936D01*
X91337364Y-45405212D01*
X91342836Y-45441825D01*
X91346384Y-45478675D01*
X91347999Y-45515659D01*
X91347676Y-45552678D01*
X91345416Y-45589628D01*
X91341000Y-45628000D01*
X91342550Y-45664882D01*
X91342207Y-45704233D01*
X91339805Y-45743512D01*
X91335350Y-45782612D01*
X91328855Y-45821424D01*
X91320337Y-45859844D01*
X91309821Y-45897766D01*
X91297334Y-45935085D01*
X91282911Y-45971699D01*
X91266592Y-46007508D01*
X91248421Y-46042414D01*
X91228448Y-46076322D01*
X91206728Y-46109137D01*
X91183320Y-46140771D01*
X91158289Y-46171136D01*
X91131702Y-46200150D01*
X91103634Y-46227733D01*
X91074161Y-46253809D01*
X91043363Y-46278306D01*
X91011326Y-46301158D01*
X90978136Y-46322303D01*
X90943885Y-46341681D01*
X90908667Y-46359240D01*
X90872579Y-46374931D01*
X90835718Y-46388713D01*
X90798187Y-46400547D01*
X90760088Y-46410400D01*
X90721525Y-46418245D01*
X90682605Y-46424062D01*
X90641000Y-46428000D01*
X90641000Y-46428000D01*
G37*
X90641000Y-46428000D02*
X88241000Y-46428000D01*
X88199395Y-46424062D01*
X88160475Y-46418245D01*
X88121912Y-46410400D01*
X88083813Y-46400547D01*
X88046282Y-46388713D01*
X88009421Y-46374931D01*
X87973333Y-46359240D01*
X87938115Y-46341681D01*
X87903864Y-46322303D01*
X87870674Y-46301158D01*
X87838637Y-46278306D01*
X87807839Y-46253809D01*
X87778366Y-46227733D01*
X87750298Y-46200150D01*
X87723711Y-46171136D01*
X87698680Y-46140771D01*
X87675272Y-46109137D01*
X87653552Y-46076322D01*
X87633579Y-46042414D01*
X87615408Y-46007508D01*
X87599089Y-45971699D01*
X87584666Y-45935085D01*
X87572179Y-45897766D01*
X87561663Y-45859844D01*
X87553145Y-45821424D01*
X87546650Y-45782612D01*
X87542195Y-45743512D01*
X87539793Y-45704233D01*
X87539450Y-45664882D01*
X87541000Y-45628000D01*
X87542096Y-45586131D01*
X87545382Y-45544377D01*
X87550849Y-45502852D01*
X87558482Y-45461671D01*
X87568259Y-45420945D01*
X87580155Y-45380786D01*
X87594136Y-45341306D01*
X87610164Y-45302611D01*
X87628195Y-45264808D01*
X87648180Y-45228000D01*
X87670064Y-45192289D01*
X87693786Y-45157772D01*
X87719283Y-45124544D01*
X87746484Y-45092696D01*
X87775315Y-45062315D01*
X87805696Y-45033484D01*
X87837544Y-45006283D01*
X87870772Y-44980786D01*
X87905289Y-44957064D01*
X87941000Y-44935180D01*
X87977808Y-44915195D01*
X88015611Y-44897164D01*
X88054306Y-44881136D01*
X88093786Y-44867155D01*
X88133945Y-44855259D01*
X88174671Y-44845482D01*
X88215852Y-44837849D01*
X88257377Y-44832382D01*
X88299131Y-44829096D01*
X88341000Y-44828000D01*
X90741000Y-44828000D01*
X90775922Y-44833885D01*
X90812065Y-44841897D01*
X90847738Y-44851790D01*
X90882845Y-44863537D01*
X90917289Y-44877105D01*
X90950975Y-44892457D01*
X90983812Y-44909550D01*
X91015710Y-44928339D01*
X91046580Y-44948772D01*
X91076338Y-44970792D01*
X91104904Y-44994340D01*
X91132198Y-45019350D01*
X91158145Y-45045754D01*
X91182675Y-45073481D01*
X91205721Y-45102453D01*
X91227218Y-45132591D01*
X91247109Y-45163813D01*
X91265338Y-45196033D01*
X91281856Y-45229164D01*
X91296618Y-45263113D01*
X91309583Y-45297789D01*
X91320715Y-45333095D01*
X91329984Y-45368936D01*
X91337364Y-45405212D01*
X91342836Y-45441825D01*
X91346384Y-45478675D01*
X91347999Y-45515659D01*
X91347676Y-45552678D01*
X91345416Y-45589628D01*
X91341000Y-45628000D01*
X91342550Y-45664882D01*
X91342207Y-45704233D01*
X91339805Y-45743512D01*
X91335350Y-45782612D01*
X91328855Y-45821424D01*
X91320337Y-45859844D01*
X91309821Y-45897766D01*
X91297334Y-45935085D01*
X91282911Y-45971699D01*
X91266592Y-46007508D01*
X91248421Y-46042414D01*
X91228448Y-46076322D01*
X91206728Y-46109137D01*
X91183320Y-46140771D01*
X91158289Y-46171136D01*
X91131702Y-46200150D01*
X91103634Y-46227733D01*
X91074161Y-46253809D01*
X91043363Y-46278306D01*
X91011326Y-46301158D01*
X90978136Y-46322303D01*
X90943885Y-46341681D01*
X90908667Y-46359240D01*
X90872579Y-46374931D01*
X90835718Y-46388713D01*
X90798187Y-46400547D01*
X90760088Y-46410400D01*
X90721525Y-46418245D01*
X90682605Y-46424062D01*
X90641000Y-46428000D01*
G36*
X83891000Y-45728000D02*
X83891000Y-44528000D01*
X83892096Y-44486131D01*
X83895382Y-44444377D01*
X83900849Y-44402852D01*
X83908482Y-44361671D01*
X83918259Y-44320945D01*
X83930155Y-44280786D01*
X83944136Y-44241306D01*
X83960164Y-44202611D01*
X83978195Y-44164808D01*
X83998180Y-44128000D01*
X84020064Y-44092289D01*
X84043786Y-44057772D01*
X84069283Y-44024544D01*
X84096484Y-43992696D01*
X84125315Y-43962315D01*
X84155696Y-43933484D01*
X84187544Y-43906283D01*
X84220772Y-43880786D01*
X84255289Y-43857064D01*
X84291000Y-43835180D01*
X84327808Y-43815195D01*
X84365611Y-43797164D01*
X84404306Y-43781136D01*
X84443786Y-43767155D01*
X84483945Y-43755259D01*
X84524671Y-43745482D01*
X84565852Y-43737849D01*
X84607377Y-43732382D01*
X84649131Y-43729096D01*
X84691000Y-43728000D01*
X84732869Y-43729096D01*
X84774623Y-43732382D01*
X84816148Y-43737849D01*
X84857329Y-43745482D01*
X84898055Y-43755259D01*
X84938214Y-43767155D01*
X84977694Y-43781136D01*
X85016389Y-43797164D01*
X85054192Y-43815195D01*
X85091000Y-43835180D01*
X85126711Y-43857064D01*
X85161228Y-43880786D01*
X85194456Y-43906283D01*
X85226304Y-43933484D01*
X85256685Y-43962315D01*
X85285516Y-43992696D01*
X85312717Y-44024544D01*
X85338214Y-44057772D01*
X85361936Y-44092289D01*
X85383820Y-44128000D01*
X85403805Y-44164808D01*
X85421836Y-44202611D01*
X85437864Y-44241306D01*
X85451845Y-44280786D01*
X85463741Y-44320945D01*
X85473518Y-44361671D01*
X85481151Y-44402852D01*
X85486618Y-44444377D01*
X85489904Y-44486131D01*
X85491000Y-44528000D01*
X85491000Y-45728000D01*
X85489904Y-45769869D01*
X85486618Y-45811623D01*
X85481151Y-45853148D01*
X85473518Y-45894329D01*
X85463741Y-45935055D01*
X85451845Y-45975214D01*
X85437864Y-46014694D01*
X85421836Y-46053389D01*
X85403805Y-46091192D01*
X85383820Y-46128000D01*
X85361936Y-46163711D01*
X85338214Y-46198228D01*
X85312717Y-46231456D01*
X85285516Y-46263304D01*
X85256685Y-46293685D01*
X85226304Y-46322516D01*
X85194456Y-46349717D01*
X85161228Y-46375214D01*
X85126711Y-46398936D01*
X85091000Y-46420820D01*
X85054192Y-46440805D01*
X85016389Y-46458836D01*
X84977694Y-46474864D01*
X84938214Y-46488845D01*
X84898055Y-46500741D01*
X84857329Y-46510518D01*
X84816148Y-46518151D01*
X84774623Y-46523618D01*
X84732869Y-46526904D01*
X84691000Y-46528000D01*
X84649131Y-46526904D01*
X84607377Y-46523618D01*
X84565852Y-46518151D01*
X84524671Y-46510518D01*
X84483945Y-46500741D01*
X84443786Y-46488845D01*
X84404306Y-46474864D01*
X84365611Y-46458836D01*
X84327808Y-46440805D01*
X84291000Y-46420820D01*
X84255289Y-46398936D01*
X84220772Y-46375214D01*
X84187544Y-46349717D01*
X84155696Y-46322516D01*
X84125315Y-46293685D01*
X84096484Y-46263304D01*
X84069283Y-46231456D01*
X84043786Y-46198228D01*
X84020064Y-46163711D01*
X83998180Y-46128000D01*
X83978195Y-46091192D01*
X83960164Y-46053389D01*
X83944136Y-46014694D01*
X83930155Y-45975214D01*
X83918259Y-45935055D01*
X83908482Y-45894329D01*
X83900849Y-45853148D01*
X83895382Y-45811623D01*
X83892096Y-45769869D01*
X83891000Y-45728000D01*
X83891000Y-45728000D01*
G37*
X83891000Y-45728000D02*
X83891000Y-44528000D01*
X83892096Y-44486131D01*
X83895382Y-44444377D01*
X83900849Y-44402852D01*
X83908482Y-44361671D01*
X83918259Y-44320945D01*
X83930155Y-44280786D01*
X83944136Y-44241306D01*
X83960164Y-44202611D01*
X83978195Y-44164808D01*
X83998180Y-44128000D01*
X84020064Y-44092289D01*
X84043786Y-44057772D01*
X84069283Y-44024544D01*
X84096484Y-43992696D01*
X84125315Y-43962315D01*
X84155696Y-43933484D01*
X84187544Y-43906283D01*
X84220772Y-43880786D01*
X84255289Y-43857064D01*
X84291000Y-43835180D01*
X84327808Y-43815195D01*
X84365611Y-43797164D01*
X84404306Y-43781136D01*
X84443786Y-43767155D01*
X84483945Y-43755259D01*
X84524671Y-43745482D01*
X84565852Y-43737849D01*
X84607377Y-43732382D01*
X84649131Y-43729096D01*
X84691000Y-43728000D01*
X84732869Y-43729096D01*
X84774623Y-43732382D01*
X84816148Y-43737849D01*
X84857329Y-43745482D01*
X84898055Y-43755259D01*
X84938214Y-43767155D01*
X84977694Y-43781136D01*
X85016389Y-43797164D01*
X85054192Y-43815195D01*
X85091000Y-43835180D01*
X85126711Y-43857064D01*
X85161228Y-43880786D01*
X85194456Y-43906283D01*
X85226304Y-43933484D01*
X85256685Y-43962315D01*
X85285516Y-43992696D01*
X85312717Y-44024544D01*
X85338214Y-44057772D01*
X85361936Y-44092289D01*
X85383820Y-44128000D01*
X85403805Y-44164808D01*
X85421836Y-44202611D01*
X85437864Y-44241306D01*
X85451845Y-44280786D01*
X85463741Y-44320945D01*
X85473518Y-44361671D01*
X85481151Y-44402852D01*
X85486618Y-44444377D01*
X85489904Y-44486131D01*
X85491000Y-44528000D01*
X85491000Y-45728000D01*
X85489904Y-45769869D01*
X85486618Y-45811623D01*
X85481151Y-45853148D01*
X85473518Y-45894329D01*
X85463741Y-45935055D01*
X85451845Y-45975214D01*
X85437864Y-46014694D01*
X85421836Y-46053389D01*
X85403805Y-46091192D01*
X85383820Y-46128000D01*
X85361936Y-46163711D01*
X85338214Y-46198228D01*
X85312717Y-46231456D01*
X85285516Y-46263304D01*
X85256685Y-46293685D01*
X85226304Y-46322516D01*
X85194456Y-46349717D01*
X85161228Y-46375214D01*
X85126711Y-46398936D01*
X85091000Y-46420820D01*
X85054192Y-46440805D01*
X85016389Y-46458836D01*
X84977694Y-46474864D01*
X84938214Y-46488845D01*
X84898055Y-46500741D01*
X84857329Y-46510518D01*
X84816148Y-46518151D01*
X84774623Y-46523618D01*
X84732869Y-46526904D01*
X84691000Y-46528000D01*
X84649131Y-46526904D01*
X84607377Y-46523618D01*
X84565852Y-46518151D01*
X84524671Y-46510518D01*
X84483945Y-46500741D01*
X84443786Y-46488845D01*
X84404306Y-46474864D01*
X84365611Y-46458836D01*
X84327808Y-46440805D01*
X84291000Y-46420820D01*
X84255289Y-46398936D01*
X84220772Y-46375214D01*
X84187544Y-46349717D01*
X84155696Y-46322516D01*
X84125315Y-46293685D01*
X84096484Y-46263304D01*
X84069283Y-46231456D01*
X84043786Y-46198228D01*
X84020064Y-46163711D01*
X83998180Y-46128000D01*
X83978195Y-46091192D01*
X83960164Y-46053389D01*
X83944136Y-46014694D01*
X83930155Y-45975214D01*
X83918259Y-45935055D01*
X83908482Y-45894329D01*
X83900849Y-45853148D01*
X83895382Y-45811623D01*
X83892096Y-45769869D01*
X83891000Y-45728000D01*
G04 #@! TD*
D11*
G04 #@! TO.C,REF\002A\002A*
X110490000Y-45212000D03*
G04 #@! TD*
G04 #@! TO.C,REF\002A\002A*
X110490000Y-159512000D03*
G04 #@! TD*
G04 #@! TO.C,REF\002A\002A*
X34290000Y-159512000D03*
G04 #@! TD*
D12*
G04 #@! TO.C,J1*
X89441000Y-42378000D03*
D13*
X89441000Y-51628000D03*
D14*
X94191000Y-49828000D03*
X84691000Y-49828000D03*
X94191000Y-45128000D03*
X89441000Y-45628000D03*
X84691000Y-45128000D03*
G04 #@! TD*
D15*
G04 #@! TO.C,J3*
X34798000Y-91440000D03*
X37338000Y-91440000D03*
X34798000Y-88900000D03*
X37338000Y-88900000D03*
X34798000Y-86360000D03*
X37338000Y-86360000D03*
X34798000Y-83820000D03*
D16*
X37338000Y-83820000D03*
G04 #@! TD*
G04 #@! TO.C,J6*
X37338000Y-99060000D03*
D15*
X34798000Y-99060000D03*
X37338000Y-101600000D03*
X34798000Y-101600000D03*
X37338000Y-104140000D03*
X34798000Y-104140000D03*
X37338000Y-106680000D03*
X34798000Y-106680000D03*
G04 #@! TD*
G04 #@! TO.C,J5*
X34798000Y-76200000D03*
X37338000Y-76200000D03*
X34798000Y-73660000D03*
X37338000Y-73660000D03*
X34798000Y-71120000D03*
X37338000Y-71120000D03*
X34798000Y-68580000D03*
D16*
X37338000Y-68580000D03*
G04 #@! TD*
G04 #@! TO.C,J4*
X37338000Y-114300000D03*
D15*
X34798000Y-114300000D03*
X37338000Y-116840000D03*
X34798000Y-116840000D03*
X37338000Y-119380000D03*
X34798000Y-119380000D03*
X37338000Y-121920000D03*
X34798000Y-121920000D03*
G04 #@! TD*
G04 #@! TO.C,J2*
X90932000Y-158496000D03*
X88392000Y-158496000D03*
D16*
X85852000Y-158496000D03*
G04 #@! TD*
D17*
G04 #@! TO.C,A1*
X35052000Y-151130000D03*
X35052000Y-135890000D03*
X70612000Y-151130000D03*
X37592000Y-135890000D03*
X68072000Y-151130000D03*
X40132000Y-135890000D03*
X65532000Y-151130000D03*
X42672000Y-135890000D03*
X62992000Y-151130000D03*
X45212000Y-135890000D03*
X60452000Y-151130000D03*
X47752000Y-135890000D03*
X57912000Y-151130000D03*
X50292000Y-135890000D03*
X55372000Y-151130000D03*
X52832000Y-135890000D03*
X52832000Y-151130000D03*
X55372000Y-135890000D03*
X50292000Y-151130000D03*
X57912000Y-135890000D03*
X47752000Y-151130000D03*
X60452000Y-135890000D03*
X45212000Y-151130000D03*
X62992000Y-135890000D03*
X42672000Y-151130000D03*
X65532000Y-135890000D03*
X40132000Y-151130000D03*
X68072000Y-135890000D03*
X37592000Y-151130000D03*
D18*
X70612000Y-135890000D03*
G04 #@! TD*
D11*
G04 #@! TO.C,REF\002A\002A*
X34290000Y-45212000D03*
G04 #@! TD*
M02*
