M48
;DRILL file {KiCad (5.0.0)} date 11/12/20 12:13:31
;FORMAT={2:4/ absolute / inch / suppress leading zeros}
FMAT,2
INCH,TZ
T1C0.0150
T2C0.0315
T3C0.0394
T4C0.0591
T5C0.1260
%
G90
G05
M72
T1
X11875Y-30000
X12250Y-29000
X12600Y-40000
X12625Y-28000
X13300Y-52400
X15700Y-62300
X17000Y-50600
X17100Y-28000
X17100Y-29000
X17100Y-30000
X17500Y-23200
X17713Y-43200
X18265Y-41435
X18300Y-46500
X18654Y-42354
X18700Y-63000
X19100Y-31200
X19100Y-35700
X19913Y-16461
X20113Y-21161
X20300Y-25700
X21113Y-18161
X21300Y-63500
X21613Y-19561
X21986Y-38182
X22354Y-43836
X22762Y-32761
X22909Y-28381
X23391Y-51306
X23561Y-41096
X23850Y-45841
X24096Y-49810
X24244Y-45126
X24363Y-39285
X24363Y-47605
X24363Y-49101
X24638Y-44230
X24763Y-42104
X24772Y-33685
X24900Y-34600
X25113Y-21461
X25163Y-33771
X25263Y-29584
X25313Y-16461
X25363Y-30311
X25463Y-38866
X25800Y-24700
X25800Y-31300
X26483Y-23783
X26641Y-20948
X26663Y-40702
X26663Y-49574
X26663Y-51463
X26663Y-38442
X26663Y-22911
X27063Y-44230
X27063Y-45894
X27082Y-26467
X27363Y-44711
X27500Y-35200
X27500Y-50200
X27563Y-27773
X27563Y-29463
X27700Y-38800
X27800Y-53500
X28000Y-33200
X28014Y-33791
X28063Y-51611
X28463Y-40211
X28609Y-34991
X28763Y-45711
X28846Y-24807
X28863Y-51411
X29012Y-28912
X29500Y-24600
X29500Y-29800
X30027Y-24413
X30100Y-53600
X30500Y-53600
X30564Y-39909
X30663Y-35211
X30763Y-24411
X30900Y-53600
X30963Y-30411
X31300Y-53600
X31500Y-28200
X31600Y-55000
X31600Y-55400
X31600Y-55800
X31600Y-56200
X31600Y-57100
X31612Y-56688
X31700Y-16500
X31700Y-53600
X32100Y-53600
X32300Y-48300
X32300Y-48700
X32300Y-49100
X32300Y-49500
X32300Y-49900
X32300Y-50300
X36900Y-23500
X37000Y-53700
X37100Y-25200
X37200Y-31500
X37200Y-41700
X37362Y-29438
X37400Y-55000
X37500Y-43100
X37700Y-37300
X37900Y-35500
X38000Y-47800
X38400Y-49600
X40600Y-54700
X40700Y-36800
X40700Y-42600
X40700Y-48800
X41500Y-25700
X42100Y-31600
X42792Y-37784
X42800Y-43700
X42813Y-49687
X42813Y-55687
X43800Y-25600
X43900Y-31600
X44300Y-37800
X44306Y-49794
X44400Y-43700
X44400Y-55900
T2
X35213Y-17964
X13800Y-53500
X13800Y-59500
X14800Y-53500
X14800Y-59500
X15800Y-53500
X15800Y-59500
X16800Y-53500
X16800Y-59500
X17800Y-53500
X17800Y-59500
X18800Y-53500
X18800Y-59500
X19800Y-53500
X19800Y-59500
X20800Y-53500
X20800Y-59500
X21800Y-53500
X21800Y-59500
X22800Y-53500
X22800Y-59500
X23800Y-53500
X23800Y-59500
X24800Y-53500
X24800Y-59500
X25800Y-53500
X25800Y-59500
X26800Y-53500
X26800Y-59500
X27800Y-53500
X27800Y-59500
T3
X13700Y-33000
X13700Y-34000
X13700Y-35000
X13700Y-36000
X14700Y-33000
X14700Y-34000
X14700Y-35000
X14700Y-36000
X33800Y-62400
X34800Y-62400
X35800Y-62400
X13700Y-45000
X13700Y-46000
X13700Y-47000
X13700Y-48000
X14700Y-45000
X14700Y-46000
X14700Y-47000
X14700Y-48000
X13700Y-27000
X13700Y-28000
X13700Y-29000
X13700Y-30000
X14700Y-27000
X14700Y-28000
X14700Y-29000
X14700Y-30000
X13700Y-39000
X13700Y-40000
X13700Y-41000
X13700Y-42000
X14700Y-39000
X14700Y-40000
X14700Y-41000
X14700Y-42000
T4
X35213Y-20326
T5
X13500Y-62800
X43500Y-17800
X43500Y-62800
X13500Y-17800
T0
M30
