G04 #@! TF.GenerationSoftware,KiCad,Pcbnew,(5.0.0)*
G04 #@! TF.CreationDate,2020-11-12T02:24:06-08:00*
G04 #@! TF.ProjectId,Valve_Driver_ArduinoNano,56616C76655F4472697665725F417264,rev?*
G04 #@! TF.SameCoordinates,Original*
G04 #@! TF.FileFunction,Profile,NP*
%FSLAX46Y46*%
G04 Gerber Fmt 4.6, Leading zero omitted, Abs format (unit mm)*
G04 Created by KiCad (PCBNEW (5.0.0)) date 11/12/20 02:24:06*
%MOMM*%
%LPD*%
G01*
G04 APERTURE LIST*
%ADD10C,0.100000*%
G04 #@! TA.AperFunction,NonConductor*
%ADD11C,0.001000*%
G04 #@! TD*
G04 APERTURE END LIST*
D10*
X29606666Y-38862000D02*
G75*
G03X29606666Y-38862000I-1666666J0D01*
G01*
X25440000Y-38862000D02*
X30440000Y-38862000D01*
X27940000Y-36362000D02*
X27940000Y-41362000D01*
X29606666Y-38862000D02*
G75*
G03X29606666Y-38862000I-1666666J0D01*
G01*
X25440000Y-38862000D02*
X30440000Y-38862000D01*
X27940000Y-36362000D02*
X27940000Y-41362000D01*
X29606666Y-38862000D02*
G75*
G03X29606666Y-38862000I-1666666J0D01*
G01*
X25440000Y-38862000D02*
X30440000Y-38862000D01*
X27940000Y-36362000D02*
X27940000Y-41362000D01*
X27940000Y-148082000D02*
X27940000Y-38862000D01*
X116840000Y-148082000D02*
X27940000Y-148082000D01*
X116840000Y-38880600D02*
X116840000Y-148082000D01*
X27940000Y-38862000D02*
X116840000Y-38862000D01*
D11*
G04 #@! TO.C,J1*
X93791000Y-50428000D02*
X93791000Y-49228000D01*
X94191000Y-50828000D02*
G75*
G02X93791000Y-50428000I0J400000D01*
G01*
X94591000Y-50428000D02*
G75*
G02X94191000Y-50828000I-400000J0D01*
G01*
X94591000Y-49228000D02*
X94591000Y-50428000D01*
X94191000Y-48828000D02*
G75*
G02X94591000Y-49228000I0J-400000D01*
G01*
X93791000Y-49228000D02*
G75*
G02X94191000Y-48828000I400000J0D01*
G01*
X84291000Y-50428000D02*
X84291000Y-49228000D01*
X84691000Y-50828000D02*
G75*
G02X84291000Y-50428000I0J400000D01*
G01*
X85091000Y-50428000D02*
G75*
G02X84691000Y-50828000I-400000J0D01*
G01*
X85091000Y-49228000D02*
X85091000Y-50428000D01*
X84691000Y-48828000D02*
G75*
G02X85091000Y-49228000I0J-400000D01*
G01*
X84291000Y-49228000D02*
G75*
G02X84691000Y-48828000I400000J0D01*
G01*
X93791000Y-45728000D02*
X93791000Y-44528000D01*
X94191000Y-46128000D02*
G75*
G02X93791000Y-45728000I0J400000D01*
G01*
X94591000Y-45728000D02*
G75*
G02X94191000Y-46128000I-400000J0D01*
G01*
X94591000Y-44528000D02*
X94591000Y-45728000D01*
X94191000Y-44128000D02*
G75*
G02X94591000Y-44528000I0J-400000D01*
G01*
X93791000Y-44528000D02*
G75*
G02X94191000Y-44128000I400000J0D01*
G01*
X90541000Y-46028000D02*
X88341000Y-46028000D01*
X90941000Y-45628000D02*
G75*
G02X90541000Y-46028000I-400000J0D01*
G01*
X90541000Y-45228000D02*
G75*
G02X90941000Y-45628000I0J-400000D01*
G01*
X88341000Y-45228000D02*
X90541000Y-45228000D01*
X87941000Y-45628000D02*
G75*
G02X88341000Y-45228000I400000J0D01*
G01*
X88341000Y-46028000D02*
G75*
G02X87941000Y-45628000I0J400000D01*
G01*
X84291000Y-45728000D02*
X84291000Y-44528000D01*
X84691000Y-46128000D02*
G75*
G02X84291000Y-45728000I0J400000D01*
G01*
X85091000Y-45728000D02*
G75*
G02X84691000Y-46128000I-400000J0D01*
G01*
X85091000Y-44528000D02*
X85091000Y-45728000D01*
X84691000Y-44128000D02*
G75*
G02X85091000Y-44528000I0J-400000D01*
G01*
X84291000Y-44528000D02*
G75*
G02X84691000Y-44128000I400000J0D01*
G01*
G04 #@! TD*
M02*
