M48
;DRILL file {KiCad (5.0.0)} date 11/12/20 01:38:05
;FORMAT={2:4/ absolute / inch / suppress leading zeros}
FMAT,2
INCH,TZ
T1C0.0150
T2C0.0315
T3C0.0394
T4C0.0551
T5C0.0591
%
G90
G05
M72
T1
X12300Y-43600
X13400Y-45900
X13800Y-42800
X13900Y-48000
X14600Y-42800
X14600Y-47900
X15400Y-46600
X15446Y-46146
X15500Y-18700
X15500Y-17250
X15500Y-17950
X15500Y-19300
X15500Y-20000
X15500Y-20800
X17600Y-25200
X17600Y-36200
X17700Y-31700
X17800Y-28100
X17900Y-40100
X17900Y-44200
X18100Y-46000
X21613Y-40813
X21700Y-16700
X22000Y-21500
X22087Y-26787
X22100Y-30100
X22300Y-33800
X22368Y-37756
X23100Y-25700
X23300Y-33050
X23362Y-36762
X23400Y-29150
X23458Y-46628
X23650Y-54500
X23950Y-43800
X24100Y-19400
X24200Y-24600
X24300Y-32050
X24362Y-35762
X24400Y-52050
X24650Y-27900
X25050Y-46900
X25850Y-54450
X25900Y-52050
X26000Y-41800
X26000Y-43350
X26265Y-54485
X26265Y-54485
X27050Y-51550
X27105Y-43871
X27150Y-52050
X27350Y-24350
X27400Y-27600
X27400Y-35300
X27500Y-31300
X27500Y-39700
X27550Y-53850
X28100Y-48350
X28150Y-48850
X29400Y-33026
X29631Y-25719
X29700Y-29300
X29700Y-42000
X29700Y-46000
X30000Y-37450
X30600Y-47450
X31100Y-53800
X31200Y-17000
X32850Y-25600
X32950Y-42050
X33000Y-46100
X33050Y-33550
X33050Y-37700
X33350Y-25700
X33350Y-42050
X33400Y-29600
X33400Y-46100
X33450Y-33550
X33450Y-37700
X33750Y-25700
X33750Y-42050
X33800Y-46100
X33850Y-29600
X33850Y-33550
X33850Y-37700
X34150Y-25700
X34250Y-29600
X38350Y-18600
X38350Y-36100
X38400Y-40550
X38500Y-37000
X38500Y-44700
X38600Y-25600
X38600Y-41600
X38600Y-45700
X38650Y-24000
X38700Y-29450
X38700Y-32050
X38700Y-33100
X38750Y-28000
T2
X13950Y-50450
X13950Y-56450
X14950Y-50450
X14950Y-56450
X15950Y-50450
X15950Y-56450
X16950Y-50450
X16950Y-56450
X17950Y-50450
X17950Y-56450
X18950Y-50450
X18950Y-56450
X19950Y-50450
X19950Y-56450
X20950Y-50450
X20950Y-56450
X21950Y-50450
X21950Y-56450
X22950Y-50450
X22950Y-56450
X23950Y-50450
X23950Y-56450
X24950Y-50450
X24950Y-56450
X25950Y-50450
X25950Y-56450
X26950Y-50450
X26950Y-56450
X27950Y-50450
X27950Y-56450
X35213Y-17964
T3
X40000Y-23800
X40000Y-24800
X40000Y-27800
X40000Y-28800
X33100Y-51700
X34100Y-51700
X35100Y-51700
X40000Y-35900
X40000Y-36900
X40000Y-44500
X40000Y-45500
X40000Y-31800
X40000Y-32800
X40000Y-40400
X40000Y-41400
T4
X43700Y-22946
X43700Y-24915
X43700Y-26883
X43700Y-28852
X43700Y-30820
X43700Y-32789
X43700Y-34757
X43700Y-36726
X43700Y-38694
X43700Y-40663
X43700Y-42631
X43700Y-44600
X13300Y-25100
X13300Y-27100
X13300Y-29100
X13300Y-31100
X13300Y-33100
X13300Y-35100
X13300Y-37100
X13300Y-39100
T5
X35213Y-20326
T0
M30
