G04 #@! TF.GenerationSoftware,KiCad,Pcbnew,(5.0.0)*
G04 #@! TF.CreationDate,2020-11-12T02:24:06-08:00*
G04 #@! TF.ProjectId,Valve_Driver_ArduinoNano,56616C76655F4472697665725F417264,rev?*
G04 #@! TF.SameCoordinates,Original*
G04 #@! TF.FileFunction,Legend,Top*
G04 #@! TF.FilePolarity,Positive*
%FSLAX46Y46*%
G04 Gerber Fmt 4.6, Leading zero omitted, Abs format (unit mm)*
G04 Created by KiCad (PCBNEW (5.0.0)) date 11/12/20 02:24:06*
%MOMM*%
%LPD*%
G01*
G04 APERTURE LIST*
%ADD10C,0.120000*%
%ADD11C,0.200000*%
%ADD12C,0.150000*%
G04 APERTURE END LIST*
D10*
G04 #@! TO.C,J10*
X35997821Y-97327159D02*
G75*
G02X35982000Y-101314000I-1665821J-1986841D01*
G01*
X35997821Y-92247159D02*
G75*
G02X35982000Y-96234000I-1665821J-1986841D01*
G01*
X35997821Y-87167159D02*
G75*
G02X35982000Y-91154000I-1665821J-1986841D01*
G01*
X35997821Y-82087159D02*
G75*
G02X35982000Y-86074000I-1665821J-1986841D01*
G01*
X35997821Y-77007159D02*
G75*
G02X35982000Y-80994000I-1665821J-1986841D01*
G01*
X35997821Y-71927159D02*
G75*
G02X35982000Y-75914000I-1665821J-1986841D01*
G01*
X35997821Y-66847159D02*
G75*
G02X35982000Y-70834000I-1665821J-1986841D01*
G01*
X35997821Y-61767159D02*
G75*
G02X35982000Y-65754000I-1665821J-1986841D01*
G01*
X35682000Y-104394000D02*
G75*
G03X35682000Y-104394000I-1900000J0D01*
G01*
X35682000Y-58674000D02*
G75*
G03X35682000Y-58674000I-1900000J0D01*
G01*
X28902000Y-107014000D02*
X37662000Y-107014000D01*
X37662000Y-107014000D02*
X37662000Y-56054000D01*
X37662000Y-56054000D02*
X28902000Y-56054000D01*
X28902000Y-56054000D02*
X28902000Y-107014000D01*
X29682000Y-107014000D02*
X29682000Y-105474000D01*
X29682000Y-56054000D02*
X29682000Y-57594000D01*
X29682000Y-98314000D02*
X29682000Y-95234000D01*
X29682000Y-93234000D02*
X29682000Y-90154000D01*
X29682000Y-88154000D02*
X29682000Y-85074000D01*
X29682000Y-83074000D02*
X29682000Y-79994000D01*
X29682000Y-77994000D02*
X29682000Y-74914000D01*
X29682000Y-72914000D02*
X29682000Y-69834000D01*
X29682000Y-67834000D02*
X29682000Y-64754000D01*
X30682000Y-105394000D02*
X28902000Y-105394000D01*
X28902000Y-105394000D02*
X28902000Y-103394000D01*
X28902000Y-103394000D02*
X30682000Y-103394000D01*
X30682000Y-103394000D02*
X30682000Y-105394000D01*
X30682000Y-59674000D02*
X28902000Y-59674000D01*
X28902000Y-59674000D02*
X28902000Y-57674000D01*
X28902000Y-57674000D02*
X30682000Y-57674000D01*
X30682000Y-57674000D02*
X30682000Y-59674000D01*
X29682000Y-103394000D02*
X29682000Y-100314000D01*
X29682000Y-62754000D02*
X29682000Y-59674000D01*
X30682000Y-100314000D02*
X28902000Y-100314000D01*
X28902000Y-100314000D02*
X28902000Y-98314000D01*
X28902000Y-98314000D02*
X30682000Y-98314000D01*
X30682000Y-98314000D02*
X30682000Y-100314000D01*
X30682000Y-95234000D02*
X28902000Y-95234000D01*
X28902000Y-95234000D02*
X28902000Y-93234000D01*
X28902000Y-93234000D02*
X30682000Y-93234000D01*
X30682000Y-93234000D02*
X30682000Y-95234000D01*
X30682000Y-90154000D02*
X28902000Y-90154000D01*
X28902000Y-90154000D02*
X28902000Y-88154000D01*
X28902000Y-88154000D02*
X30682000Y-88154000D01*
X30682000Y-88154000D02*
X30682000Y-90154000D01*
X30682000Y-85074000D02*
X28902000Y-85074000D01*
X28902000Y-85074000D02*
X28902000Y-83074000D01*
X28902000Y-83074000D02*
X30682000Y-83074000D01*
X30682000Y-83074000D02*
X30682000Y-85074000D01*
X30682000Y-79994000D02*
X28902000Y-79994000D01*
X28902000Y-79994000D02*
X28902000Y-77994000D01*
X28902000Y-77994000D02*
X30682000Y-77994000D01*
X30682000Y-77994000D02*
X30682000Y-79994000D01*
X30682000Y-74914000D02*
X28902000Y-74914000D01*
X28902000Y-74914000D02*
X28902000Y-72914000D01*
X28902000Y-72914000D02*
X30682000Y-72914000D01*
X30682000Y-72914000D02*
X30682000Y-74914000D01*
X30682000Y-69834000D02*
X28902000Y-69834000D01*
X28902000Y-69834000D02*
X28902000Y-67834000D01*
X28902000Y-67834000D02*
X30682000Y-67834000D01*
X30682000Y-67834000D02*
X30682000Y-69834000D01*
X30682000Y-64754000D02*
X28902000Y-64754000D01*
X28902000Y-64754000D02*
X28902000Y-62754000D01*
X28902000Y-62754000D02*
X30682000Y-62754000D01*
X30682000Y-62754000D02*
X30682000Y-64754000D01*
X35982000Y-97314000D02*
X35982000Y-96234000D01*
X35982000Y-92234000D02*
X35982000Y-91154000D01*
X35982000Y-87154000D02*
X35982000Y-86074000D01*
X35982000Y-82074000D02*
X35982000Y-80994000D01*
X35982000Y-76994000D02*
X35982000Y-75914000D01*
X35982000Y-71914000D02*
X35982000Y-70834000D01*
X35982000Y-66834000D02*
X35982000Y-65754000D01*
X35982000Y-101314000D02*
X35982000Y-102054000D01*
X35982000Y-102054000D02*
X30682000Y-102054000D01*
X30682000Y-102054000D02*
X30682000Y-61014000D01*
X30682000Y-61014000D02*
X35982000Y-61014000D01*
X35982000Y-61014000D02*
X35982000Y-61754000D01*
X28102000Y-99014000D02*
X28702000Y-99314000D01*
X28702000Y-99314000D02*
X28102000Y-99614000D01*
X28102000Y-99614000D02*
X28102000Y-99014000D01*
G04 #@! TO.C,SW1*
X47196000Y-63390000D02*
X47196000Y-62940000D01*
X53896000Y-62940000D02*
X53896000Y-63390000D01*
X47196000Y-62940000D02*
X53896000Y-62940000D01*
X53896000Y-64690000D02*
X53896000Y-67390000D01*
X47196000Y-67390000D02*
X47196000Y-64690000D01*
X53896000Y-69140000D02*
X53896000Y-68740000D01*
X47196000Y-69140000D02*
X53896000Y-69140000D01*
X47196000Y-68690000D02*
X47196000Y-69140000D01*
G04 #@! TO.C,SW2*
X47450000Y-77072000D02*
X47450000Y-77522000D01*
X47450000Y-77522000D02*
X54150000Y-77522000D01*
X54150000Y-77522000D02*
X54150000Y-77122000D01*
X47450000Y-75772000D02*
X47450000Y-73072000D01*
X54150000Y-73072000D02*
X54150000Y-75772000D01*
X47450000Y-71322000D02*
X54150000Y-71322000D01*
X54150000Y-71322000D02*
X54150000Y-71772000D01*
X47450000Y-71772000D02*
X47450000Y-71322000D01*
G04 #@! TO.C,SW3*
X47450000Y-101490000D02*
X47450000Y-101040000D01*
X54150000Y-101040000D02*
X54150000Y-101490000D01*
X47450000Y-101040000D02*
X54150000Y-101040000D01*
X54150000Y-102790000D02*
X54150000Y-105490000D01*
X47450000Y-105490000D02*
X47450000Y-102790000D01*
X54150000Y-107240000D02*
X54150000Y-106840000D01*
X47450000Y-107240000D02*
X54150000Y-107240000D01*
X47450000Y-106790000D02*
X47450000Y-107240000D01*
G04 #@! TO.C,SW4*
X47450000Y-96630000D02*
X47450000Y-97080000D01*
X47450000Y-97080000D02*
X54150000Y-97080000D01*
X54150000Y-97080000D02*
X54150000Y-96680000D01*
X47450000Y-95330000D02*
X47450000Y-92630000D01*
X54150000Y-92630000D02*
X54150000Y-95330000D01*
X47450000Y-90880000D02*
X54150000Y-90880000D01*
X54150000Y-90880000D02*
X54150000Y-91330000D01*
X47450000Y-91330000D02*
X47450000Y-90880000D01*
G04 #@! TO.C,SW5*
X47450000Y-81170000D02*
X47450000Y-80720000D01*
X54150000Y-80720000D02*
X54150000Y-81170000D01*
X47450000Y-80720000D02*
X54150000Y-80720000D01*
X54150000Y-82470000D02*
X54150000Y-85170000D01*
X47450000Y-85170000D02*
X47450000Y-82470000D01*
X54150000Y-86920000D02*
X54150000Y-86520000D01*
X47450000Y-86920000D02*
X54150000Y-86920000D01*
X47450000Y-86470000D02*
X47450000Y-86920000D01*
G04 #@! TO.C,SW6*
X47450000Y-116950000D02*
X47450000Y-117400000D01*
X47450000Y-117400000D02*
X54150000Y-117400000D01*
X54150000Y-117400000D02*
X54150000Y-117000000D01*
X47450000Y-115650000D02*
X47450000Y-112950000D01*
X54150000Y-112950000D02*
X54150000Y-115650000D01*
X47450000Y-111200000D02*
X54150000Y-111200000D01*
X54150000Y-111200000D02*
X54150000Y-111650000D01*
X47450000Y-111650000D02*
X47450000Y-111200000D01*
G04 #@! TO.C,J7*
X108782179Y-60270841D02*
G75*
G02X108798000Y-56284000I1665821J1986841D01*
G01*
X108782179Y-65270841D02*
G75*
G02X108798000Y-61284000I1665821J1986841D01*
G01*
X108782179Y-70270841D02*
G75*
G02X108798000Y-66284000I1665821J1986841D01*
G01*
X108782179Y-75270841D02*
G75*
G02X108798000Y-71284000I1665821J1986841D01*
G01*
X108782179Y-80270841D02*
G75*
G02X108798000Y-76284000I1665821J1986841D01*
G01*
X108782179Y-85270841D02*
G75*
G02X108798000Y-81284000I1665821J1986841D01*
G01*
X108782179Y-90270841D02*
G75*
G02X108798000Y-86284000I1665821J1986841D01*
G01*
X108782179Y-95270841D02*
G75*
G02X108798000Y-91284000I1665821J1986841D01*
G01*
X108782179Y-100270841D02*
G75*
G02X108798000Y-96284000I1665821J1986841D01*
G01*
X108782179Y-105270841D02*
G75*
G02X108798000Y-101284000I1665821J1986841D01*
G01*
X108782179Y-110270841D02*
G75*
G02X108798000Y-106284000I1665821J1986841D01*
G01*
X108782179Y-115270841D02*
G75*
G02X108798000Y-111284000I1665821J1986841D01*
G01*
X115878000Y-54704000D02*
X107118000Y-54704000D01*
X107118000Y-54704000D02*
X107118000Y-116864000D01*
X107118000Y-116864000D02*
X115878000Y-116864000D01*
X115878000Y-116864000D02*
X115878000Y-54704000D01*
X115098000Y-54704000D02*
X115098000Y-57204000D01*
X115098000Y-116864000D02*
X115098000Y-114364000D01*
X115098000Y-59284000D02*
X115098000Y-62284000D01*
X115098000Y-64284000D02*
X115098000Y-67284000D01*
X115098000Y-69284000D02*
X115098000Y-72284000D01*
X115098000Y-74284000D02*
X115098000Y-77284000D01*
X115098000Y-79284000D02*
X115098000Y-82284000D01*
X115098000Y-84284000D02*
X115098000Y-87284000D01*
X115098000Y-89284000D02*
X115098000Y-92284000D01*
X115098000Y-94284000D02*
X115098000Y-97284000D01*
X115098000Y-99284000D02*
X115098000Y-102284000D01*
X115098000Y-104284000D02*
X115098000Y-107284000D01*
X115098000Y-109284000D02*
X115098000Y-112284000D01*
X114098000Y-57284000D02*
X115878000Y-57284000D01*
X115878000Y-57284000D02*
X115878000Y-59284000D01*
X115878000Y-59284000D02*
X114098000Y-59284000D01*
X114098000Y-59284000D02*
X114098000Y-57284000D01*
X114098000Y-62284000D02*
X115878000Y-62284000D01*
X115878000Y-62284000D02*
X115878000Y-64284000D01*
X115878000Y-64284000D02*
X114098000Y-64284000D01*
X114098000Y-64284000D02*
X114098000Y-62284000D01*
X114098000Y-67284000D02*
X115878000Y-67284000D01*
X115878000Y-67284000D02*
X115878000Y-69284000D01*
X115878000Y-69284000D02*
X114098000Y-69284000D01*
X114098000Y-69284000D02*
X114098000Y-67284000D01*
X114098000Y-72284000D02*
X115878000Y-72284000D01*
X115878000Y-72284000D02*
X115878000Y-74284000D01*
X115878000Y-74284000D02*
X114098000Y-74284000D01*
X114098000Y-74284000D02*
X114098000Y-72284000D01*
X114098000Y-77284000D02*
X115878000Y-77284000D01*
X115878000Y-77284000D02*
X115878000Y-79284000D01*
X115878000Y-79284000D02*
X114098000Y-79284000D01*
X114098000Y-79284000D02*
X114098000Y-77284000D01*
X114098000Y-82284000D02*
X115878000Y-82284000D01*
X115878000Y-82284000D02*
X115878000Y-84284000D01*
X115878000Y-84284000D02*
X114098000Y-84284000D01*
X114098000Y-84284000D02*
X114098000Y-82284000D01*
X114098000Y-87284000D02*
X115878000Y-87284000D01*
X115878000Y-87284000D02*
X115878000Y-89284000D01*
X115878000Y-89284000D02*
X114098000Y-89284000D01*
X114098000Y-89284000D02*
X114098000Y-87284000D01*
X114098000Y-92284000D02*
X115878000Y-92284000D01*
X115878000Y-92284000D02*
X115878000Y-94284000D01*
X115878000Y-94284000D02*
X114098000Y-94284000D01*
X114098000Y-94284000D02*
X114098000Y-92284000D01*
X114098000Y-97284000D02*
X115878000Y-97284000D01*
X115878000Y-97284000D02*
X115878000Y-99284000D01*
X115878000Y-99284000D02*
X114098000Y-99284000D01*
X114098000Y-99284000D02*
X114098000Y-97284000D01*
X114098000Y-102284000D02*
X115878000Y-102284000D01*
X115878000Y-102284000D02*
X115878000Y-104284000D01*
X115878000Y-104284000D02*
X114098000Y-104284000D01*
X114098000Y-104284000D02*
X114098000Y-102284000D01*
X114098000Y-107284000D02*
X115878000Y-107284000D01*
X115878000Y-107284000D02*
X115878000Y-109284000D01*
X115878000Y-109284000D02*
X114098000Y-109284000D01*
X114098000Y-109284000D02*
X114098000Y-107284000D01*
X114098000Y-112284000D02*
X115878000Y-112284000D01*
X115878000Y-112284000D02*
X115878000Y-114284000D01*
X115878000Y-114284000D02*
X114098000Y-114284000D01*
X114098000Y-114284000D02*
X114098000Y-112284000D01*
X108798000Y-60284000D02*
X108798000Y-61284000D01*
X108798000Y-65284000D02*
X108798000Y-66284000D01*
X108798000Y-70284000D02*
X108798000Y-71284000D01*
X108798000Y-75284000D02*
X108798000Y-76284000D01*
X108798000Y-80284000D02*
X108798000Y-81284000D01*
X108798000Y-85284000D02*
X108798000Y-86284000D01*
X108798000Y-90284000D02*
X108798000Y-91284000D01*
X108798000Y-95284000D02*
X108798000Y-96284000D01*
X108798000Y-100284000D02*
X108798000Y-101284000D01*
X108798000Y-105284000D02*
X108798000Y-106284000D01*
X108798000Y-110284000D02*
X108798000Y-111284000D01*
X108798000Y-56284000D02*
X108798000Y-55584000D01*
X108798000Y-55584000D02*
X114098000Y-55584000D01*
X114098000Y-55584000D02*
X114098000Y-115984000D01*
X114098000Y-115984000D02*
X108798000Y-115984000D01*
X108798000Y-115984000D02*
X108798000Y-115284000D01*
X116678000Y-58584000D02*
X116078000Y-58284000D01*
X116078000Y-58284000D02*
X116678000Y-57984000D01*
X116678000Y-57984000D02*
X116678000Y-58584000D01*
G04 #@! TO.C,J5*
X102930000Y-116900000D02*
X101600000Y-116900000D01*
X102930000Y-115570000D02*
X102930000Y-116900000D01*
X102930000Y-114300000D02*
X100270000Y-114300000D01*
X100270000Y-114300000D02*
X100270000Y-111700000D01*
X102930000Y-114300000D02*
X102930000Y-111700000D01*
X102930000Y-111700000D02*
X100270000Y-111700000D01*
G04 #@! TO.C,J3*
X102930000Y-89856000D02*
X100270000Y-89856000D01*
X102930000Y-92456000D02*
X102930000Y-89856000D01*
X100270000Y-92456000D02*
X100270000Y-89856000D01*
X102930000Y-92456000D02*
X100270000Y-92456000D01*
X102930000Y-93726000D02*
X102930000Y-95056000D01*
X102930000Y-95056000D02*
X101600000Y-95056000D01*
G04 #@! TO.C,J4*
X102930000Y-106486000D02*
X101600000Y-106486000D01*
X102930000Y-105156000D02*
X102930000Y-106486000D01*
X102930000Y-103886000D02*
X100270000Y-103886000D01*
X100270000Y-103886000D02*
X100270000Y-101286000D01*
X102930000Y-103886000D02*
X102930000Y-101286000D01*
X102930000Y-101286000D02*
X100270000Y-101286000D01*
G04 #@! TO.C,J9*
X102930000Y-79442000D02*
X100270000Y-79442000D01*
X102930000Y-82042000D02*
X102930000Y-79442000D01*
X100270000Y-82042000D02*
X100270000Y-79442000D01*
X102930000Y-82042000D02*
X100270000Y-82042000D01*
X102930000Y-83312000D02*
X102930000Y-84642000D01*
X102930000Y-84642000D02*
X101600000Y-84642000D01*
G04 #@! TO.C,J8*
X102930000Y-74482000D02*
X101600000Y-74482000D01*
X102930000Y-73152000D02*
X102930000Y-74482000D01*
X102930000Y-71882000D02*
X100270000Y-71882000D01*
X100270000Y-71882000D02*
X100270000Y-69282000D01*
X102930000Y-71882000D02*
X102930000Y-69282000D01*
X102930000Y-69282000D02*
X100270000Y-69282000D01*
G04 #@! TO.C,J6*
X102930000Y-59122000D02*
X100270000Y-59122000D01*
X102930000Y-61722000D02*
X102930000Y-59122000D01*
X100270000Y-61722000D02*
X100270000Y-59122000D01*
X102930000Y-61722000D02*
X100270000Y-61722000D01*
X102930000Y-62992000D02*
X102930000Y-64322000D01*
X102930000Y-64322000D02*
X101600000Y-64322000D01*
G04 #@! TO.C,D4*
X89805000Y-64352000D02*
X89805000Y-60452000D01*
X91805000Y-64352000D02*
X91805000Y-60452000D01*
X89805000Y-64352000D02*
X91805000Y-64352000D01*
G04 #@! TO.C,D5*
X89678000Y-74006000D02*
X91678000Y-74006000D01*
X91678000Y-74006000D02*
X91678000Y-70106000D01*
X89678000Y-74006000D02*
X89678000Y-70106000D01*
G04 #@! TO.C,D6*
X89170000Y-84166000D02*
X89170000Y-80266000D01*
X91170000Y-84166000D02*
X91170000Y-80266000D01*
X89170000Y-84166000D02*
X91170000Y-84166000D01*
G04 #@! TO.C,D3*
X89170000Y-115916000D02*
X91170000Y-115916000D01*
X91170000Y-115916000D02*
X91170000Y-112016000D01*
X89170000Y-115916000D02*
X89170000Y-112016000D01*
G04 #@! TO.C,D2*
X89170000Y-105756000D02*
X89170000Y-101856000D01*
X91170000Y-105756000D02*
X91170000Y-101856000D01*
X89170000Y-105756000D02*
X91170000Y-105756000D01*
G04 #@! TO.C,D1*
X89170000Y-94326000D02*
X91170000Y-94326000D01*
X91170000Y-94326000D02*
X91170000Y-90426000D01*
X89170000Y-94326000D02*
X89170000Y-90426000D01*
G04 #@! TO.C,U1*
X35496588Y-116876874D02*
X37296588Y-116876874D01*
X37296588Y-113656874D02*
X34846588Y-113656874D01*
D11*
G04 #@! TO.C,J1*
X84441000Y-39628000D02*
X94441000Y-39628000D01*
X84441000Y-42628000D02*
X84441000Y-39628000D01*
X94441000Y-39628000D02*
X94441000Y-42628000D01*
D10*
G04 #@! TO.C,Q13*
X96642000Y-70376000D02*
X96642000Y-71836000D01*
X93482000Y-70376000D02*
X93482000Y-72536000D01*
X93482000Y-70376000D02*
X94412000Y-70376000D01*
X96642000Y-70376000D02*
X95712000Y-70376000D01*
G04 #@! TO.C,U4*
X74336000Y-69825000D02*
X71886000Y-69825000D01*
X72536000Y-73045000D02*
X74336000Y-73045000D01*
G04 #@! TO.C,R14*
X84942000Y-72193564D02*
X84942000Y-70989436D01*
X86762000Y-72193564D02*
X86762000Y-70989436D01*
G04 #@! TO.C,R20*
X79941267Y-69975000D02*
X79598733Y-69975000D01*
X79941267Y-70995000D02*
X79598733Y-70995000D01*
G04 #@! TO.C,C2*
X72613733Y-74932000D02*
X72956267Y-74932000D01*
X72613733Y-73912000D02*
X72956267Y-73912000D01*
G04 #@! TO.C,C4*
X29964588Y-115104141D02*
X29964588Y-114761607D01*
X28944588Y-115104141D02*
X28944588Y-114761607D01*
G04 #@! TO.C,C6*
X77345000Y-71686267D02*
X77345000Y-71343733D01*
X76325000Y-71686267D02*
X76325000Y-71343733D01*
G04 #@! TO.C,C8*
X66489733Y-71376000D02*
X66832267Y-71376000D01*
X66489733Y-70356000D02*
X66832267Y-70356000D01*
G04 #@! TO.C,R11*
X79941267Y-71880000D02*
X79598733Y-71880000D01*
X79941267Y-72900000D02*
X79598733Y-72900000D01*
G04 #@! TO.C,R15*
X66517733Y-73154000D02*
X66860267Y-73154000D01*
X66517733Y-72134000D02*
X66860267Y-72134000D01*
G04 #@! TO.C,R4*
X36342855Y-111769874D02*
X36000321Y-111769874D01*
X36342855Y-112789874D02*
X36000321Y-112789874D01*
G04 #@! TO.C,R2*
X30722588Y-114789607D02*
X30722588Y-115132141D01*
X31742588Y-114789607D02*
X31742588Y-115132141D01*
G04 #@! TO.C,R10*
X44137733Y-47881000D02*
X44480267Y-47881000D01*
X44137733Y-46861000D02*
X44480267Y-46861000D01*
G04 #@! TO.C,C30*
X51027733Y-40937000D02*
X51370267Y-40937000D01*
X51027733Y-41957000D02*
X51370267Y-41957000D01*
G04 #@! TO.C,R41*
X84053000Y-104016564D02*
X84053000Y-102812436D01*
X85873000Y-104016564D02*
X85873000Y-102812436D01*
G04 #@! TO.C,R64*
X86000000Y-114176564D02*
X86000000Y-112972436D01*
X84180000Y-114176564D02*
X84180000Y-112972436D01*
G04 #@! TO.C,R12*
X85036000Y-62816564D02*
X85036000Y-61612436D01*
X86856000Y-62816564D02*
X86856000Y-61612436D01*
G04 #@! TO.C,R66*
X86000000Y-82426564D02*
X86000000Y-81222436D01*
X84180000Y-82426564D02*
X84180000Y-81222436D01*
G04 #@! TO.C,R43*
X84180000Y-92840564D02*
X84180000Y-91636436D01*
X86000000Y-92840564D02*
X86000000Y-91636436D01*
G04 #@! TO.C,U7*
X74386000Y-101956000D02*
X71936000Y-101956000D01*
X72586000Y-105176000D02*
X74386000Y-105176000D01*
G04 #@! TO.C,U3*
X72536000Y-64075000D02*
X74336000Y-64075000D01*
X74336000Y-60855000D02*
X71886000Y-60855000D01*
G04 #@! TO.C,U8*
X72586000Y-93751000D02*
X74386000Y-93751000D01*
X74386000Y-90531000D02*
X71936000Y-90531000D01*
G04 #@! TO.C,U11*
X74386000Y-112116000D02*
X71936000Y-112116000D01*
X72586000Y-115336000D02*
X74386000Y-115336000D01*
G04 #@! TO.C,U12*
X72680000Y-83586000D02*
X74480000Y-83586000D01*
X74480000Y-80366000D02*
X72030000Y-80366000D01*
G04 #@! TO.C,C32*
X50882733Y-54862000D02*
X51225267Y-54862000D01*
X50882733Y-55882000D02*
X51225267Y-55882000D01*
G04 #@! TO.C,C31*
X51087748Y-44157000D02*
X51610252Y-44157000D01*
X51087748Y-42737000D02*
X51610252Y-42737000D01*
G04 #@! TO.C,C33*
X51037748Y-52757000D02*
X51560252Y-52757000D01*
X51037748Y-54177000D02*
X51560252Y-54177000D01*
G04 #@! TO.C,U14*
X55784000Y-52057000D02*
X55784000Y-50797000D01*
X55784000Y-45237000D02*
X55784000Y-46497000D01*
X52024000Y-52057000D02*
X55784000Y-52057000D01*
X49774000Y-45237000D02*
X55784000Y-45237000D01*
G04 #@! TO.C,U15*
X75519000Y-125209000D02*
X75519000Y-124279000D01*
X75519000Y-122049000D02*
X75519000Y-122979000D01*
X75519000Y-122049000D02*
X73359000Y-122049000D01*
X75519000Y-125209000D02*
X74059000Y-125209000D01*
G04 #@! TO.C,R42*
X66771733Y-104904000D02*
X67114267Y-104904000D01*
X66771733Y-103884000D02*
X67114267Y-103884000D01*
G04 #@! TO.C,R50*
X94824733Y-65534000D02*
X95167267Y-65534000D01*
X94824733Y-64514000D02*
X95167267Y-64514000D01*
G04 #@! TO.C,R77*
X94683733Y-84584000D02*
X95026267Y-84584000D01*
X94683733Y-83564000D02*
X95026267Y-83564000D01*
G04 #@! TO.C,R70*
X94937733Y-74678000D02*
X95280267Y-74678000D01*
X94937733Y-73658000D02*
X95280267Y-73658000D01*
G04 #@! TO.C,R19*
X80042267Y-61017000D02*
X79699733Y-61017000D01*
X80042267Y-62037000D02*
X79699733Y-62037000D01*
G04 #@! TO.C,R40*
X80068267Y-92708000D02*
X79725733Y-92708000D01*
X80068267Y-93728000D02*
X79725733Y-93728000D01*
G04 #@! TO.C,R38*
X79786267Y-103884000D02*
X79443733Y-103884000D01*
X79786267Y-104904000D02*
X79443733Y-104904000D01*
G04 #@! TO.C,C7*
X66529733Y-63037000D02*
X66872267Y-63037000D01*
X66529733Y-62017000D02*
X66872267Y-62017000D01*
G04 #@! TO.C,C5*
X77656000Y-62423267D02*
X77656000Y-62080733D01*
X76636000Y-62423267D02*
X76636000Y-62080733D01*
G04 #@! TO.C,C3*
X38723588Y-114916607D02*
X38723588Y-115259141D01*
X39743588Y-114916607D02*
X39743588Y-115259141D01*
G04 #@! TO.C,C1*
X72649733Y-65837000D02*
X72992267Y-65837000D01*
X72649733Y-64817000D02*
X72992267Y-64817000D01*
G04 #@! TO.C,C21*
X77472000Y-113850267D02*
X77472000Y-113507733D01*
X76452000Y-113850267D02*
X76452000Y-113507733D01*
G04 #@! TO.C,C22*
X77726000Y-82100267D02*
X77726000Y-81757733D01*
X76706000Y-82100267D02*
X76706000Y-81757733D01*
G04 #@! TO.C,C23*
X66771733Y-113286000D02*
X67114267Y-113286000D01*
X66771733Y-112266000D02*
X67114267Y-112266000D01*
G04 #@! TO.C,C24*
X66771733Y-81790000D02*
X67114267Y-81790000D01*
X66771733Y-80770000D02*
X67114267Y-80770000D01*
G04 #@! TO.C,C29*
X74462733Y-121339000D02*
X74805267Y-121339000D01*
X74462733Y-120319000D02*
X74805267Y-120319000D01*
G04 #@! TO.C,C17*
X72585733Y-117096000D02*
X72928267Y-117096000D01*
X72585733Y-116076000D02*
X72928267Y-116076000D01*
G04 #@! TO.C,C16*
X66771733Y-91950000D02*
X67114267Y-91950000D01*
X66771733Y-90930000D02*
X67114267Y-90930000D01*
G04 #@! TO.C,C15*
X66771733Y-103126000D02*
X67114267Y-103126000D01*
X66771733Y-102106000D02*
X67114267Y-102106000D01*
G04 #@! TO.C,C14*
X77472000Y-92387267D02*
X77472000Y-92044733D01*
X76452000Y-92387267D02*
X76452000Y-92044733D01*
G04 #@! TO.C,C13*
X77472000Y-103690267D02*
X77472000Y-103347733D01*
X76452000Y-103690267D02*
X76452000Y-103347733D01*
G04 #@! TO.C,C18*
X72613733Y-85600000D02*
X72956267Y-85600000D01*
X72613733Y-84580000D02*
X72956267Y-84580000D01*
G04 #@! TO.C,C11*
X36000321Y-120536874D02*
X36342855Y-120536874D01*
X36000321Y-119516874D02*
X36342855Y-119516874D01*
G04 #@! TO.C,C10*
X72585733Y-95506000D02*
X72928267Y-95506000D01*
X72585733Y-94486000D02*
X72928267Y-94486000D01*
G04 #@! TO.C,C9*
X72585733Y-106936000D02*
X72928267Y-106936000D01*
X72585733Y-105916000D02*
X72928267Y-105916000D01*
G04 #@! TO.C,J2*
X82744000Y-132648000D02*
X82744000Y-131318000D01*
X84074000Y-132648000D02*
X82744000Y-132648000D01*
X85344000Y-132648000D02*
X85344000Y-129988000D01*
X85344000Y-129988000D02*
X90484000Y-129988000D01*
X85344000Y-132648000D02*
X90484000Y-132648000D01*
X90484000Y-132648000D02*
X90484000Y-129988000D01*
G04 #@! TO.C,Q7*
X96256000Y-112286000D02*
X96256000Y-113746000D01*
X93096000Y-112286000D02*
X93096000Y-114446000D01*
X93096000Y-112286000D02*
X94026000Y-112286000D01*
X96256000Y-112286000D02*
X95326000Y-112286000D01*
G04 #@! TO.C,Q10*
X96642000Y-60724000D02*
X96642000Y-62184000D01*
X93482000Y-60724000D02*
X93482000Y-62884000D01*
X93482000Y-60724000D02*
X94412000Y-60724000D01*
X96642000Y-60724000D02*
X95712000Y-60724000D01*
G04 #@! TO.C,Q17*
X96388000Y-80536000D02*
X96388000Y-81996000D01*
X93228000Y-80536000D02*
X93228000Y-82696000D01*
X93228000Y-80536000D02*
X94158000Y-80536000D01*
X96388000Y-80536000D02*
X95458000Y-80536000D01*
G04 #@! TO.C,Q1*
X96134000Y-90696000D02*
X96134000Y-92156000D01*
X92974000Y-90696000D02*
X92974000Y-92856000D01*
X92974000Y-90696000D02*
X93904000Y-90696000D01*
X96134000Y-90696000D02*
X95204000Y-90696000D01*
G04 #@! TO.C,Q4*
X96388000Y-102060000D02*
X96388000Y-103520000D01*
X93228000Y-102060000D02*
X93228000Y-104220000D01*
X93228000Y-102060000D02*
X94158000Y-102060000D01*
X96388000Y-102060000D02*
X95458000Y-102060000D01*
G04 #@! TO.C,R34*
X94570733Y-116588000D02*
X94913267Y-116588000D01*
X94570733Y-115568000D02*
X94913267Y-115568000D01*
G04 #@! TO.C,R44*
X66771733Y-93728000D02*
X67114267Y-93728000D01*
X66771733Y-92708000D02*
X67114267Y-92708000D01*
G04 #@! TO.C,R45*
X79786267Y-102106000D02*
X79443733Y-102106000D01*
X79786267Y-103126000D02*
X79443733Y-103126000D01*
G04 #@! TO.C,R46*
X80068267Y-90803000D02*
X79725733Y-90803000D01*
X80068267Y-91823000D02*
X79725733Y-91823000D01*
G04 #@! TO.C,R58*
X79786267Y-114044000D02*
X79443733Y-114044000D01*
X79786267Y-115064000D02*
X79443733Y-115064000D01*
G04 #@! TO.C,R81*
X68324733Y-122821000D02*
X68667267Y-122821000D01*
X68324733Y-121801000D02*
X68667267Y-121801000D01*
G04 #@! TO.C,R60*
X80294267Y-82294000D02*
X79951733Y-82294000D01*
X80294267Y-83314000D02*
X79951733Y-83314000D01*
G04 #@! TO.C,R67*
X66771733Y-83568000D02*
X67114267Y-83568000D01*
X66771733Y-82548000D02*
X67114267Y-82548000D01*
G04 #@! TO.C,R68*
X79814267Y-112266000D02*
X79471733Y-112266000D01*
X79814267Y-113286000D02*
X79471733Y-113286000D01*
G04 #@! TO.C,R69*
X80294267Y-80516000D02*
X79951733Y-80516000D01*
X80294267Y-81536000D02*
X79951733Y-81536000D01*
G04 #@! TO.C,R80*
X68324733Y-121221000D02*
X68667267Y-121221000D01*
X68324733Y-120201000D02*
X68667267Y-120201000D01*
G04 #@! TO.C,R79*
X68324733Y-119621000D02*
X68667267Y-119621000D01*
X68324733Y-118601000D02*
X68667267Y-118601000D01*
G04 #@! TO.C,R65*
X66771733Y-115064000D02*
X67114267Y-115064000D01*
X66771733Y-114044000D02*
X67114267Y-114044000D01*
G04 #@! TO.C,R13*
X66529733Y-64637000D02*
X66872267Y-64637000D01*
X66529733Y-63617000D02*
X66872267Y-63617000D01*
G04 #@! TO.C,R8*
X44165733Y-49659000D02*
X44508267Y-49659000D01*
X44165733Y-48639000D02*
X44508267Y-48639000D01*
G04 #@! TO.C,R9*
X80042267Y-62617000D02*
X79699733Y-62617000D01*
X80042267Y-63637000D02*
X79699733Y-63637000D01*
G04 #@! TO.C,R7*
X44137733Y-51310000D02*
X44480267Y-51310000D01*
X44137733Y-50290000D02*
X44480267Y-50290000D01*
G04 #@! TO.C,R6*
X44137733Y-46103000D02*
X44480267Y-46103000D01*
X44137733Y-45083000D02*
X44480267Y-45083000D01*
G04 #@! TO.C,R5*
X44165733Y-44325000D02*
X44508267Y-44325000D01*
X44165733Y-43305000D02*
X44508267Y-43305000D01*
G04 #@! TO.C,R3*
X36342855Y-109991874D02*
X36000321Y-109991874D01*
X36342855Y-111011874D02*
X36000321Y-111011874D01*
G04 #@! TO.C,R31*
X94683733Y-106301000D02*
X95026267Y-106301000D01*
X94683733Y-105281000D02*
X95026267Y-105281000D01*
G04 #@! TO.C,R1*
X36028321Y-118758874D02*
X36370855Y-118758874D01*
X36028321Y-117738874D02*
X36370855Y-117738874D01*
G04 #@! TO.C,R17*
X44165733Y-53215000D02*
X44508267Y-53215000D01*
X44165733Y-52195000D02*
X44508267Y-52195000D01*
G04 #@! TO.C,R16*
X94429733Y-94744000D02*
X94772267Y-94744000D01*
X94429733Y-93724000D02*
X94772267Y-93724000D01*
G04 #@! TO.C,R82*
X68667267Y-123401000D02*
X68324733Y-123401000D01*
X68667267Y-124421000D02*
X68324733Y-124421000D01*
G04 #@! TO.C,A1*
X74933000Y-144783000D02*
X74933000Y-126743000D01*
X31493000Y-144783000D02*
X74933000Y-144783000D01*
X31493000Y-126743000D02*
X31493000Y-144783000D01*
X34163000Y-129413000D02*
X34163000Y-126743000D01*
X69723000Y-129413000D02*
X34163000Y-129413000D01*
X69723000Y-129413000D02*
X69723000Y-126743000D01*
X34163000Y-142113000D02*
X34163000Y-144783000D01*
X72263000Y-142113000D02*
X34163000Y-142113000D01*
X72263000Y-142113000D02*
X72263000Y-144783000D01*
X74933000Y-126743000D02*
X72263000Y-126743000D01*
X69723000Y-126743000D02*
X31493000Y-126743000D01*
X72263000Y-129413000D02*
X72263000Y-126743000D01*
X69723000Y-129413000D02*
X72263000Y-129413000D01*
G04 #@! TO.C,J10*
D12*
X27434380Y-82343523D02*
X28148666Y-82343523D01*
X28291523Y-82391142D01*
X28386761Y-82486380D01*
X28434380Y-82629238D01*
X28434380Y-82724476D01*
X28434380Y-81343523D02*
X28434380Y-81914952D01*
X28434380Y-81629238D02*
X27434380Y-81629238D01*
X27577238Y-81724476D01*
X27672476Y-81819714D01*
X27720095Y-81914952D01*
X27434380Y-80724476D02*
X27434380Y-80629238D01*
X27482000Y-80534000D01*
X27529619Y-80486380D01*
X27624857Y-80438761D01*
X27815333Y-80391142D01*
X28053428Y-80391142D01*
X28243904Y-80438761D01*
X28339142Y-80486380D01*
X28386761Y-80534000D01*
X28434380Y-80629238D01*
X28434380Y-80724476D01*
X28386761Y-80819714D01*
X28339142Y-80867333D01*
X28243904Y-80914952D01*
X28053428Y-80962571D01*
X27815333Y-80962571D01*
X27624857Y-80914952D01*
X27529619Y-80867333D01*
X27482000Y-80819714D01*
X27434380Y-80724476D01*
G04 #@! TO.C,SW1*
X49212666Y-62544761D02*
X49355523Y-62592380D01*
X49593619Y-62592380D01*
X49688857Y-62544761D01*
X49736476Y-62497142D01*
X49784095Y-62401904D01*
X49784095Y-62306666D01*
X49736476Y-62211428D01*
X49688857Y-62163809D01*
X49593619Y-62116190D01*
X49403142Y-62068571D01*
X49307904Y-62020952D01*
X49260285Y-61973333D01*
X49212666Y-61878095D01*
X49212666Y-61782857D01*
X49260285Y-61687619D01*
X49307904Y-61640000D01*
X49403142Y-61592380D01*
X49641238Y-61592380D01*
X49784095Y-61640000D01*
X50117428Y-61592380D02*
X50355523Y-62592380D01*
X50546000Y-61878095D01*
X50736476Y-62592380D01*
X50974571Y-61592380D01*
X51879333Y-62592380D02*
X51307904Y-62592380D01*
X51593619Y-62592380D02*
X51593619Y-61592380D01*
X51498380Y-61735238D01*
X51403142Y-61830476D01*
X51307904Y-61878095D01*
G04 #@! TO.C,SW2*
X49466666Y-70926761D02*
X49609523Y-70974380D01*
X49847619Y-70974380D01*
X49942857Y-70926761D01*
X49990476Y-70879142D01*
X50038095Y-70783904D01*
X50038095Y-70688666D01*
X49990476Y-70593428D01*
X49942857Y-70545809D01*
X49847619Y-70498190D01*
X49657142Y-70450571D01*
X49561904Y-70402952D01*
X49514285Y-70355333D01*
X49466666Y-70260095D01*
X49466666Y-70164857D01*
X49514285Y-70069619D01*
X49561904Y-70022000D01*
X49657142Y-69974380D01*
X49895238Y-69974380D01*
X50038095Y-70022000D01*
X50371428Y-69974380D02*
X50609523Y-70974380D01*
X50800000Y-70260095D01*
X50990476Y-70974380D01*
X51228571Y-69974380D01*
X51561904Y-70069619D02*
X51609523Y-70022000D01*
X51704761Y-69974380D01*
X51942857Y-69974380D01*
X52038095Y-70022000D01*
X52085714Y-70069619D01*
X52133333Y-70164857D01*
X52133333Y-70260095D01*
X52085714Y-70402952D01*
X51514285Y-70974380D01*
X52133333Y-70974380D01*
G04 #@! TO.C,SW3*
X49466666Y-100644761D02*
X49609523Y-100692380D01*
X49847619Y-100692380D01*
X49942857Y-100644761D01*
X49990476Y-100597142D01*
X50038095Y-100501904D01*
X50038095Y-100406666D01*
X49990476Y-100311428D01*
X49942857Y-100263809D01*
X49847619Y-100216190D01*
X49657142Y-100168571D01*
X49561904Y-100120952D01*
X49514285Y-100073333D01*
X49466666Y-99978095D01*
X49466666Y-99882857D01*
X49514285Y-99787619D01*
X49561904Y-99740000D01*
X49657142Y-99692380D01*
X49895238Y-99692380D01*
X50038095Y-99740000D01*
X50371428Y-99692380D02*
X50609523Y-100692380D01*
X50800000Y-99978095D01*
X50990476Y-100692380D01*
X51228571Y-99692380D01*
X51514285Y-99692380D02*
X52133333Y-99692380D01*
X51800000Y-100073333D01*
X51942857Y-100073333D01*
X52038095Y-100120952D01*
X52085714Y-100168571D01*
X52133333Y-100263809D01*
X52133333Y-100501904D01*
X52085714Y-100597142D01*
X52038095Y-100644761D01*
X51942857Y-100692380D01*
X51657142Y-100692380D01*
X51561904Y-100644761D01*
X51514285Y-100597142D01*
G04 #@! TO.C,SW4*
X49466666Y-90484761D02*
X49609523Y-90532380D01*
X49847619Y-90532380D01*
X49942857Y-90484761D01*
X49990476Y-90437142D01*
X50038095Y-90341904D01*
X50038095Y-90246666D01*
X49990476Y-90151428D01*
X49942857Y-90103809D01*
X49847619Y-90056190D01*
X49657142Y-90008571D01*
X49561904Y-89960952D01*
X49514285Y-89913333D01*
X49466666Y-89818095D01*
X49466666Y-89722857D01*
X49514285Y-89627619D01*
X49561904Y-89580000D01*
X49657142Y-89532380D01*
X49895238Y-89532380D01*
X50038095Y-89580000D01*
X50371428Y-89532380D02*
X50609523Y-90532380D01*
X50800000Y-89818095D01*
X50990476Y-90532380D01*
X51228571Y-89532380D01*
X52038095Y-89865714D02*
X52038095Y-90532380D01*
X51800000Y-89484761D02*
X51561904Y-90199047D01*
X52180952Y-90199047D01*
G04 #@! TO.C,SW5*
X49466666Y-80324761D02*
X49609523Y-80372380D01*
X49847619Y-80372380D01*
X49942857Y-80324761D01*
X49990476Y-80277142D01*
X50038095Y-80181904D01*
X50038095Y-80086666D01*
X49990476Y-79991428D01*
X49942857Y-79943809D01*
X49847619Y-79896190D01*
X49657142Y-79848571D01*
X49561904Y-79800952D01*
X49514285Y-79753333D01*
X49466666Y-79658095D01*
X49466666Y-79562857D01*
X49514285Y-79467619D01*
X49561904Y-79420000D01*
X49657142Y-79372380D01*
X49895238Y-79372380D01*
X50038095Y-79420000D01*
X50371428Y-79372380D02*
X50609523Y-80372380D01*
X50800000Y-79658095D01*
X50990476Y-80372380D01*
X51228571Y-79372380D01*
X52085714Y-79372380D02*
X51609523Y-79372380D01*
X51561904Y-79848571D01*
X51609523Y-79800952D01*
X51704761Y-79753333D01*
X51942857Y-79753333D01*
X52038095Y-79800952D01*
X52085714Y-79848571D01*
X52133333Y-79943809D01*
X52133333Y-80181904D01*
X52085714Y-80277142D01*
X52038095Y-80324761D01*
X51942857Y-80372380D01*
X51704761Y-80372380D01*
X51609523Y-80324761D01*
X51561904Y-80277142D01*
G04 #@! TO.C,SW6*
X49466666Y-110804761D02*
X49609523Y-110852380D01*
X49847619Y-110852380D01*
X49942857Y-110804761D01*
X49990476Y-110757142D01*
X50038095Y-110661904D01*
X50038095Y-110566666D01*
X49990476Y-110471428D01*
X49942857Y-110423809D01*
X49847619Y-110376190D01*
X49657142Y-110328571D01*
X49561904Y-110280952D01*
X49514285Y-110233333D01*
X49466666Y-110138095D01*
X49466666Y-110042857D01*
X49514285Y-109947619D01*
X49561904Y-109900000D01*
X49657142Y-109852380D01*
X49895238Y-109852380D01*
X50038095Y-109900000D01*
X50371428Y-109852380D02*
X50609523Y-110852380D01*
X50800000Y-110138095D01*
X50990476Y-110852380D01*
X51228571Y-109852380D01*
X52038095Y-109852380D02*
X51847619Y-109852380D01*
X51752380Y-109900000D01*
X51704761Y-109947619D01*
X51609523Y-110090476D01*
X51561904Y-110280952D01*
X51561904Y-110661904D01*
X51609523Y-110757142D01*
X51657142Y-110804761D01*
X51752380Y-110852380D01*
X51942857Y-110852380D01*
X52038095Y-110804761D01*
X52085714Y-110757142D01*
X52133333Y-110661904D01*
X52133333Y-110423809D01*
X52085714Y-110328571D01*
X52038095Y-110280952D01*
X51942857Y-110233333D01*
X51752380Y-110233333D01*
X51657142Y-110280952D01*
X51609523Y-110328571D01*
X51561904Y-110423809D01*
G04 #@! TO.C,J7*
X116250380Y-86117333D02*
X116964666Y-86117333D01*
X117107523Y-86164952D01*
X117202761Y-86260190D01*
X117250380Y-86403047D01*
X117250380Y-86498285D01*
X116250380Y-85736380D02*
X116250380Y-85069714D01*
X117250380Y-85498285D01*
G04 #@! TO.C,J5*
X101266666Y-117352380D02*
X101266666Y-118066666D01*
X101219047Y-118209523D01*
X101123809Y-118304761D01*
X100980952Y-118352380D01*
X100885714Y-118352380D01*
X102219047Y-117352380D02*
X101742857Y-117352380D01*
X101695238Y-117828571D01*
X101742857Y-117780952D01*
X101838095Y-117733333D01*
X102076190Y-117733333D01*
X102171428Y-117780952D01*
X102219047Y-117828571D01*
X102266666Y-117923809D01*
X102266666Y-118161904D01*
X102219047Y-118257142D01*
X102171428Y-118304761D01*
X102076190Y-118352380D01*
X101838095Y-118352380D01*
X101742857Y-118304761D01*
X101695238Y-118257142D01*
G04 #@! TO.C,J3*
X101266666Y-95508380D02*
X101266666Y-96222666D01*
X101219047Y-96365523D01*
X101123809Y-96460761D01*
X100980952Y-96508380D01*
X100885714Y-96508380D01*
X101647619Y-95508380D02*
X102266666Y-95508380D01*
X101933333Y-95889333D01*
X102076190Y-95889333D01*
X102171428Y-95936952D01*
X102219047Y-95984571D01*
X102266666Y-96079809D01*
X102266666Y-96317904D01*
X102219047Y-96413142D01*
X102171428Y-96460761D01*
X102076190Y-96508380D01*
X101790476Y-96508380D01*
X101695238Y-96460761D01*
X101647619Y-96413142D01*
G04 #@! TO.C,J4*
X101266666Y-106938380D02*
X101266666Y-107652666D01*
X101219047Y-107795523D01*
X101123809Y-107890761D01*
X100980952Y-107938380D01*
X100885714Y-107938380D01*
X102171428Y-107271714D02*
X102171428Y-107938380D01*
X101933333Y-106890761D02*
X101695238Y-107605047D01*
X102314285Y-107605047D01*
G04 #@! TO.C,J9*
X101266666Y-85094380D02*
X101266666Y-85808666D01*
X101219047Y-85951523D01*
X101123809Y-86046761D01*
X100980952Y-86094380D01*
X100885714Y-86094380D01*
X101790476Y-86094380D02*
X101980952Y-86094380D01*
X102076190Y-86046761D01*
X102123809Y-85999142D01*
X102219047Y-85856285D01*
X102266666Y-85665809D01*
X102266666Y-85284857D01*
X102219047Y-85189619D01*
X102171428Y-85142000D01*
X102076190Y-85094380D01*
X101885714Y-85094380D01*
X101790476Y-85142000D01*
X101742857Y-85189619D01*
X101695238Y-85284857D01*
X101695238Y-85522952D01*
X101742857Y-85618190D01*
X101790476Y-85665809D01*
X101885714Y-85713428D01*
X102076190Y-85713428D01*
X102171428Y-85665809D01*
X102219047Y-85618190D01*
X102266666Y-85522952D01*
G04 #@! TO.C,J8*
X101266666Y-74934380D02*
X101266666Y-75648666D01*
X101219047Y-75791523D01*
X101123809Y-75886761D01*
X100980952Y-75934380D01*
X100885714Y-75934380D01*
X101885714Y-75362952D02*
X101790476Y-75315333D01*
X101742857Y-75267714D01*
X101695238Y-75172476D01*
X101695238Y-75124857D01*
X101742857Y-75029619D01*
X101790476Y-74982000D01*
X101885714Y-74934380D01*
X102076190Y-74934380D01*
X102171428Y-74982000D01*
X102219047Y-75029619D01*
X102266666Y-75124857D01*
X102266666Y-75172476D01*
X102219047Y-75267714D01*
X102171428Y-75315333D01*
X102076190Y-75362952D01*
X101885714Y-75362952D01*
X101790476Y-75410571D01*
X101742857Y-75458190D01*
X101695238Y-75553428D01*
X101695238Y-75743904D01*
X101742857Y-75839142D01*
X101790476Y-75886761D01*
X101885714Y-75934380D01*
X102076190Y-75934380D01*
X102171428Y-75886761D01*
X102219047Y-75839142D01*
X102266666Y-75743904D01*
X102266666Y-75553428D01*
X102219047Y-75458190D01*
X102171428Y-75410571D01*
X102076190Y-75362952D01*
G04 #@! TO.C,J6*
X101266666Y-64774380D02*
X101266666Y-65488666D01*
X101219047Y-65631523D01*
X101123809Y-65726761D01*
X100980952Y-65774380D01*
X100885714Y-65774380D01*
X102171428Y-64774380D02*
X101980952Y-64774380D01*
X101885714Y-64822000D01*
X101838095Y-64869619D01*
X101742857Y-65012476D01*
X101695238Y-65202952D01*
X101695238Y-65583904D01*
X101742857Y-65679142D01*
X101790476Y-65726761D01*
X101885714Y-65774380D01*
X102076190Y-65774380D01*
X102171428Y-65726761D01*
X102219047Y-65679142D01*
X102266666Y-65583904D01*
X102266666Y-65345809D01*
X102219047Y-65250571D01*
X102171428Y-65202952D01*
X102076190Y-65155333D01*
X101885714Y-65155333D01*
X101790476Y-65202952D01*
X101742857Y-65250571D01*
X101695238Y-65345809D01*
G04 #@! TO.C,D4*
X90066904Y-59507380D02*
X90066904Y-58507380D01*
X90305000Y-58507380D01*
X90447857Y-58555000D01*
X90543095Y-58650238D01*
X90590714Y-58745476D01*
X90638333Y-58935952D01*
X90638333Y-59078809D01*
X90590714Y-59269285D01*
X90543095Y-59364523D01*
X90447857Y-59459761D01*
X90305000Y-59507380D01*
X90066904Y-59507380D01*
X91495476Y-58840714D02*
X91495476Y-59507380D01*
X91257380Y-58459761D02*
X91019285Y-59174047D01*
X91638333Y-59174047D01*
G04 #@! TO.C,D5*
X90066904Y-69032380D02*
X90066904Y-68032380D01*
X90305000Y-68032380D01*
X90447857Y-68080000D01*
X90543095Y-68175238D01*
X90590714Y-68270476D01*
X90638333Y-68460952D01*
X90638333Y-68603809D01*
X90590714Y-68794285D01*
X90543095Y-68889523D01*
X90447857Y-68984761D01*
X90305000Y-69032380D01*
X90066904Y-69032380D01*
X91543095Y-68032380D02*
X91066904Y-68032380D01*
X91019285Y-68508571D01*
X91066904Y-68460952D01*
X91162142Y-68413333D01*
X91400238Y-68413333D01*
X91495476Y-68460952D01*
X91543095Y-68508571D01*
X91590714Y-68603809D01*
X91590714Y-68841904D01*
X91543095Y-68937142D01*
X91495476Y-68984761D01*
X91400238Y-69032380D01*
X91162142Y-69032380D01*
X91066904Y-68984761D01*
X91019285Y-68937142D01*
G04 #@! TO.C,D6*
X89558904Y-79001880D02*
X89558904Y-78001880D01*
X89797000Y-78001880D01*
X89939857Y-78049500D01*
X90035095Y-78144738D01*
X90082714Y-78239976D01*
X90130333Y-78430452D01*
X90130333Y-78573309D01*
X90082714Y-78763785D01*
X90035095Y-78859023D01*
X89939857Y-78954261D01*
X89797000Y-79001880D01*
X89558904Y-79001880D01*
X90987476Y-78001880D02*
X90797000Y-78001880D01*
X90701761Y-78049500D01*
X90654142Y-78097119D01*
X90558904Y-78239976D01*
X90511285Y-78430452D01*
X90511285Y-78811404D01*
X90558904Y-78906642D01*
X90606523Y-78954261D01*
X90701761Y-79001880D01*
X90892238Y-79001880D01*
X90987476Y-78954261D01*
X91035095Y-78906642D01*
X91082714Y-78811404D01*
X91082714Y-78573309D01*
X91035095Y-78478071D01*
X90987476Y-78430452D01*
X90892238Y-78382833D01*
X90701761Y-78382833D01*
X90606523Y-78430452D01*
X90558904Y-78478071D01*
X90511285Y-78573309D01*
G04 #@! TO.C,D3*
X89431904Y-110751880D02*
X89431904Y-109751880D01*
X89670000Y-109751880D01*
X89812857Y-109799500D01*
X89908095Y-109894738D01*
X89955714Y-109989976D01*
X90003333Y-110180452D01*
X90003333Y-110323309D01*
X89955714Y-110513785D01*
X89908095Y-110609023D01*
X89812857Y-110704261D01*
X89670000Y-110751880D01*
X89431904Y-110751880D01*
X90336666Y-109751880D02*
X90955714Y-109751880D01*
X90622380Y-110132833D01*
X90765238Y-110132833D01*
X90860476Y-110180452D01*
X90908095Y-110228071D01*
X90955714Y-110323309D01*
X90955714Y-110561404D01*
X90908095Y-110656642D01*
X90860476Y-110704261D01*
X90765238Y-110751880D01*
X90479523Y-110751880D01*
X90384285Y-110704261D01*
X90336666Y-110656642D01*
G04 #@! TO.C,D2*
X88622380Y-104244095D02*
X87622380Y-104244095D01*
X87622380Y-104006000D01*
X87670000Y-103863142D01*
X87765238Y-103767904D01*
X87860476Y-103720285D01*
X88050952Y-103672666D01*
X88193809Y-103672666D01*
X88384285Y-103720285D01*
X88479523Y-103767904D01*
X88574761Y-103863142D01*
X88622380Y-104006000D01*
X88622380Y-104244095D01*
X87717619Y-103291714D02*
X87670000Y-103244095D01*
X87622380Y-103148857D01*
X87622380Y-102910761D01*
X87670000Y-102815523D01*
X87717619Y-102767904D01*
X87812857Y-102720285D01*
X87908095Y-102720285D01*
X88050952Y-102767904D01*
X88622380Y-103339333D01*
X88622380Y-102720285D01*
G04 #@! TO.C,D1*
X89241404Y-88907880D02*
X89241404Y-87907880D01*
X89479500Y-87907880D01*
X89622357Y-87955500D01*
X89717595Y-88050738D01*
X89765214Y-88145976D01*
X89812833Y-88336452D01*
X89812833Y-88479309D01*
X89765214Y-88669785D01*
X89717595Y-88765023D01*
X89622357Y-88860261D01*
X89479500Y-88907880D01*
X89241404Y-88907880D01*
X90765214Y-88907880D02*
X90193785Y-88907880D01*
X90479500Y-88907880D02*
X90479500Y-87907880D01*
X90384261Y-88050738D01*
X90289023Y-88145976D01*
X90193785Y-88193595D01*
G04 #@! TO.C,U1*
X32756683Y-113637254D02*
X32756683Y-114446778D01*
X32804302Y-114542016D01*
X32851921Y-114589635D01*
X32947159Y-114637254D01*
X33137635Y-114637254D01*
X33232873Y-114589635D01*
X33280492Y-114542016D01*
X33328111Y-114446778D01*
X33328111Y-113637254D01*
X34328111Y-114637254D02*
X33756683Y-114637254D01*
X34042397Y-114637254D02*
X34042397Y-113637254D01*
X33947159Y-113780112D01*
X33851921Y-113875350D01*
X33756683Y-113922969D01*
G04 #@! TO.C,J1*
X84121519Y-53681139D02*
X84121519Y-54395740D01*
X84073879Y-54538660D01*
X83978599Y-54633940D01*
X83835679Y-54681580D01*
X83740399Y-54681580D01*
X85121960Y-54681580D02*
X84550280Y-54681580D01*
X84836120Y-54681580D02*
X84836120Y-53681139D01*
X84740840Y-53824059D01*
X84645560Y-53919339D01*
X84550280Y-53966979D01*
G04 #@! TO.C,Q13*
X94297571Y-69000619D02*
X94202333Y-68953000D01*
X94107095Y-68857761D01*
X93964238Y-68714904D01*
X93869000Y-68667285D01*
X93773761Y-68667285D01*
X93821380Y-68905380D02*
X93726142Y-68857761D01*
X93630904Y-68762523D01*
X93583285Y-68572047D01*
X93583285Y-68238714D01*
X93630904Y-68048238D01*
X93726142Y-67953000D01*
X93821380Y-67905380D01*
X94011857Y-67905380D01*
X94107095Y-67953000D01*
X94202333Y-68048238D01*
X94249952Y-68238714D01*
X94249952Y-68572047D01*
X94202333Y-68762523D01*
X94107095Y-68857761D01*
X94011857Y-68905380D01*
X93821380Y-68905380D01*
X95202333Y-68905380D02*
X94630904Y-68905380D01*
X94916619Y-68905380D02*
X94916619Y-67905380D01*
X94821380Y-68048238D01*
X94726142Y-68143476D01*
X94630904Y-68191095D01*
X95535666Y-67905380D02*
X96154714Y-67905380D01*
X95821380Y-68286333D01*
X95964238Y-68286333D01*
X96059476Y-68333952D01*
X96107095Y-68381571D01*
X96154714Y-68476809D01*
X96154714Y-68714904D01*
X96107095Y-68810142D01*
X96059476Y-68857761D01*
X95964238Y-68905380D01*
X95678523Y-68905380D01*
X95583285Y-68857761D01*
X95535666Y-68810142D01*
G04 #@! TO.C,U4*
X72263095Y-68097380D02*
X72263095Y-68906904D01*
X72310714Y-69002142D01*
X72358333Y-69049761D01*
X72453571Y-69097380D01*
X72644047Y-69097380D01*
X72739285Y-69049761D01*
X72786904Y-69002142D01*
X72834523Y-68906904D01*
X72834523Y-68097380D01*
X73739285Y-68430714D02*
X73739285Y-69097380D01*
X73501190Y-68049761D02*
X73263095Y-68764047D01*
X73882142Y-68764047D01*
G04 #@! TO.C,R14*
X85209142Y-68651380D02*
X84875809Y-68175190D01*
X84637714Y-68651380D02*
X84637714Y-67651380D01*
X85018666Y-67651380D01*
X85113904Y-67699000D01*
X85161523Y-67746619D01*
X85209142Y-67841857D01*
X85209142Y-67984714D01*
X85161523Y-68079952D01*
X85113904Y-68127571D01*
X85018666Y-68175190D01*
X84637714Y-68175190D01*
X86161523Y-68651380D02*
X85590095Y-68651380D01*
X85875809Y-68651380D02*
X85875809Y-67651380D01*
X85780571Y-67794238D01*
X85685333Y-67889476D01*
X85590095Y-67937095D01*
X87018666Y-67984714D02*
X87018666Y-68651380D01*
X86780571Y-67603761D02*
X86542476Y-68318047D01*
X87161523Y-68318047D01*
G04 #@! TO.C,R20*
X79002142Y-69437380D02*
X78668809Y-68961190D01*
X78430714Y-69437380D02*
X78430714Y-68437380D01*
X78811666Y-68437380D01*
X78906904Y-68485000D01*
X78954523Y-68532619D01*
X79002142Y-68627857D01*
X79002142Y-68770714D01*
X78954523Y-68865952D01*
X78906904Y-68913571D01*
X78811666Y-68961190D01*
X78430714Y-68961190D01*
X79383095Y-68532619D02*
X79430714Y-68485000D01*
X79525952Y-68437380D01*
X79764047Y-68437380D01*
X79859285Y-68485000D01*
X79906904Y-68532619D01*
X79954523Y-68627857D01*
X79954523Y-68723095D01*
X79906904Y-68865952D01*
X79335476Y-69437380D01*
X79954523Y-69437380D01*
X80573571Y-68437380D02*
X80668809Y-68437380D01*
X80764047Y-68485000D01*
X80811666Y-68532619D01*
X80859285Y-68627857D01*
X80906904Y-68818333D01*
X80906904Y-69056428D01*
X80859285Y-69246904D01*
X80811666Y-69342142D01*
X80764047Y-69389761D01*
X80668809Y-69437380D01*
X80573571Y-69437380D01*
X80478333Y-69389761D01*
X80430714Y-69342142D01*
X80383095Y-69246904D01*
X80335476Y-69056428D01*
X80335476Y-68818333D01*
X80383095Y-68627857D01*
X80430714Y-68532619D01*
X80478333Y-68485000D01*
X80573571Y-68437380D01*
G04 #@! TO.C,C2*
X72743333Y-76279142D02*
X72695714Y-76326761D01*
X72552857Y-76374380D01*
X72457619Y-76374380D01*
X72314761Y-76326761D01*
X72219523Y-76231523D01*
X72171904Y-76136285D01*
X72124285Y-75945809D01*
X72124285Y-75802952D01*
X72171904Y-75612476D01*
X72219523Y-75517238D01*
X72314761Y-75422000D01*
X72457619Y-75374380D01*
X72552857Y-75374380D01*
X72695714Y-75422000D01*
X72743333Y-75469619D01*
X73124285Y-75469619D02*
X73171904Y-75422000D01*
X73267142Y-75374380D01*
X73505238Y-75374380D01*
X73600476Y-75422000D01*
X73648095Y-75469619D01*
X73695714Y-75564857D01*
X73695714Y-75660095D01*
X73648095Y-75802952D01*
X73076666Y-76374380D01*
X73695714Y-76374380D01*
G04 #@! TO.C,C4*
X28970445Y-117447207D02*
X28922826Y-117399588D01*
X28875207Y-117256731D01*
X28875207Y-117161493D01*
X28922826Y-117018635D01*
X29018064Y-116923397D01*
X29113302Y-116875778D01*
X29303778Y-116828159D01*
X29446635Y-116828159D01*
X29637111Y-116875778D01*
X29732349Y-116923397D01*
X29827588Y-117018635D01*
X29875207Y-117161493D01*
X29875207Y-117256731D01*
X29827588Y-117399588D01*
X29779968Y-117447207D01*
X29541873Y-118304350D02*
X28875207Y-118304350D01*
X29922826Y-118066254D02*
X29208540Y-117828159D01*
X29208540Y-118447207D01*
G04 #@! TO.C,C6*
X76688333Y-69572142D02*
X76640714Y-69619761D01*
X76497857Y-69667380D01*
X76402619Y-69667380D01*
X76259761Y-69619761D01*
X76164523Y-69524523D01*
X76116904Y-69429285D01*
X76069285Y-69238809D01*
X76069285Y-69095952D01*
X76116904Y-68905476D01*
X76164523Y-68810238D01*
X76259761Y-68715000D01*
X76402619Y-68667380D01*
X76497857Y-68667380D01*
X76640714Y-68715000D01*
X76688333Y-68762619D01*
X77545476Y-68667380D02*
X77355000Y-68667380D01*
X77259761Y-68715000D01*
X77212142Y-68762619D01*
X77116904Y-68905476D01*
X77069285Y-69095952D01*
X77069285Y-69476904D01*
X77116904Y-69572142D01*
X77164523Y-69619761D01*
X77259761Y-69667380D01*
X77450238Y-69667380D01*
X77545476Y-69619761D01*
X77593095Y-69572142D01*
X77640714Y-69476904D01*
X77640714Y-69238809D01*
X77593095Y-69143571D01*
X77545476Y-69095952D01*
X77450238Y-69048333D01*
X77259761Y-69048333D01*
X77164523Y-69095952D01*
X77116904Y-69143571D01*
X77069285Y-69238809D01*
G04 #@! TO.C,C8*
X63819333Y-71223142D02*
X63771714Y-71270761D01*
X63628857Y-71318380D01*
X63533619Y-71318380D01*
X63390761Y-71270761D01*
X63295523Y-71175523D01*
X63247904Y-71080285D01*
X63200285Y-70889809D01*
X63200285Y-70746952D01*
X63247904Y-70556476D01*
X63295523Y-70461238D01*
X63390761Y-70366000D01*
X63533619Y-70318380D01*
X63628857Y-70318380D01*
X63771714Y-70366000D01*
X63819333Y-70413619D01*
X64390761Y-70746952D02*
X64295523Y-70699333D01*
X64247904Y-70651714D01*
X64200285Y-70556476D01*
X64200285Y-70508857D01*
X64247904Y-70413619D01*
X64295523Y-70366000D01*
X64390761Y-70318380D01*
X64581238Y-70318380D01*
X64676476Y-70366000D01*
X64724095Y-70413619D01*
X64771714Y-70508857D01*
X64771714Y-70556476D01*
X64724095Y-70651714D01*
X64676476Y-70699333D01*
X64581238Y-70746952D01*
X64390761Y-70746952D01*
X64295523Y-70794571D01*
X64247904Y-70842190D01*
X64200285Y-70937428D01*
X64200285Y-71127904D01*
X64247904Y-71223142D01*
X64295523Y-71270761D01*
X64390761Y-71318380D01*
X64581238Y-71318380D01*
X64676476Y-71270761D01*
X64724095Y-71223142D01*
X64771714Y-71127904D01*
X64771714Y-70937428D01*
X64724095Y-70842190D01*
X64676476Y-70794571D01*
X64581238Y-70746952D01*
G04 #@! TO.C,R11*
X79252142Y-70937380D02*
X78918809Y-70461190D01*
X78680714Y-70937380D02*
X78680714Y-69937380D01*
X79061666Y-69937380D01*
X79156904Y-69985000D01*
X79204523Y-70032619D01*
X79252142Y-70127857D01*
X79252142Y-70270714D01*
X79204523Y-70365952D01*
X79156904Y-70413571D01*
X79061666Y-70461190D01*
X78680714Y-70461190D01*
X80204523Y-70937380D02*
X79633095Y-70937380D01*
X79918809Y-70937380D02*
X79918809Y-69937380D01*
X79823571Y-70080238D01*
X79728333Y-70175476D01*
X79633095Y-70223095D01*
X81156904Y-70937380D02*
X80585476Y-70937380D01*
X80871190Y-70937380D02*
X80871190Y-69937380D01*
X80775952Y-70080238D01*
X80680714Y-70175476D01*
X80585476Y-70223095D01*
G04 #@! TO.C,R15*
X62771142Y-73096380D02*
X62437809Y-72620190D01*
X62199714Y-73096380D02*
X62199714Y-72096380D01*
X62580666Y-72096380D01*
X62675904Y-72144000D01*
X62723523Y-72191619D01*
X62771142Y-72286857D01*
X62771142Y-72429714D01*
X62723523Y-72524952D01*
X62675904Y-72572571D01*
X62580666Y-72620190D01*
X62199714Y-72620190D01*
X63723523Y-73096380D02*
X63152095Y-73096380D01*
X63437809Y-73096380D02*
X63437809Y-72096380D01*
X63342571Y-72239238D01*
X63247333Y-72334476D01*
X63152095Y-72382095D01*
X64628285Y-72096380D02*
X64152095Y-72096380D01*
X64104476Y-72572571D01*
X64152095Y-72524952D01*
X64247333Y-72477333D01*
X64485428Y-72477333D01*
X64580666Y-72524952D01*
X64628285Y-72572571D01*
X64675904Y-72667809D01*
X64675904Y-72905904D01*
X64628285Y-73001142D01*
X64580666Y-73048761D01*
X64485428Y-73096380D01*
X64247333Y-73096380D01*
X64152095Y-73048761D01*
X64104476Y-73001142D01*
G04 #@! TO.C,R4*
X33351921Y-112732254D02*
X33018588Y-112256064D01*
X32780492Y-112732254D02*
X32780492Y-111732254D01*
X33161445Y-111732254D01*
X33256683Y-111779874D01*
X33304302Y-111827493D01*
X33351921Y-111922731D01*
X33351921Y-112065588D01*
X33304302Y-112160826D01*
X33256683Y-112208445D01*
X33161445Y-112256064D01*
X32780492Y-112256064D01*
X34209064Y-112065588D02*
X34209064Y-112732254D01*
X33970968Y-111684635D02*
X33732873Y-112398921D01*
X34351921Y-112398921D01*
G04 #@! TO.C,R2*
X31557968Y-117780540D02*
X31081778Y-118113874D01*
X31557968Y-118351969D02*
X30557968Y-118351969D01*
X30557968Y-117971016D01*
X30605588Y-117875778D01*
X30653207Y-117828159D01*
X30748445Y-117780540D01*
X30891302Y-117780540D01*
X30986540Y-117828159D01*
X31034159Y-117875778D01*
X31081778Y-117971016D01*
X31081778Y-118351969D01*
X30653207Y-117399588D02*
X30605588Y-117351969D01*
X30557968Y-117256731D01*
X30557968Y-117018635D01*
X30605588Y-116923397D01*
X30653207Y-116875778D01*
X30748445Y-116828159D01*
X30843683Y-116828159D01*
X30986540Y-116875778D01*
X31557968Y-117447207D01*
X31557968Y-116828159D01*
G04 #@! TO.C,R10*
X40477142Y-47823380D02*
X40143809Y-47347190D01*
X39905714Y-47823380D02*
X39905714Y-46823380D01*
X40286666Y-46823380D01*
X40381904Y-46871000D01*
X40429523Y-46918619D01*
X40477142Y-47013857D01*
X40477142Y-47156714D01*
X40429523Y-47251952D01*
X40381904Y-47299571D01*
X40286666Y-47347190D01*
X39905714Y-47347190D01*
X41429523Y-47823380D02*
X40858095Y-47823380D01*
X41143809Y-47823380D02*
X41143809Y-46823380D01*
X41048571Y-46966238D01*
X40953333Y-47061476D01*
X40858095Y-47109095D01*
X42048571Y-46823380D02*
X42143809Y-46823380D01*
X42239047Y-46871000D01*
X42286666Y-46918619D01*
X42334285Y-47013857D01*
X42381904Y-47204333D01*
X42381904Y-47442428D01*
X42334285Y-47632904D01*
X42286666Y-47728142D01*
X42239047Y-47775761D01*
X42143809Y-47823380D01*
X42048571Y-47823380D01*
X41953333Y-47775761D01*
X41905714Y-47728142D01*
X41858095Y-47632904D01*
X41810476Y-47442428D01*
X41810476Y-47204333D01*
X41858095Y-47013857D01*
X41905714Y-46918619D01*
X41953333Y-46871000D01*
X42048571Y-46823380D01*
G04 #@! TO.C,C30*
X53967142Y-41378142D02*
X53919523Y-41425761D01*
X53776666Y-41473380D01*
X53681428Y-41473380D01*
X53538571Y-41425761D01*
X53443333Y-41330523D01*
X53395714Y-41235285D01*
X53348095Y-41044809D01*
X53348095Y-40901952D01*
X53395714Y-40711476D01*
X53443333Y-40616238D01*
X53538571Y-40521000D01*
X53681428Y-40473380D01*
X53776666Y-40473380D01*
X53919523Y-40521000D01*
X53967142Y-40568619D01*
X54300476Y-40473380D02*
X54919523Y-40473380D01*
X54586190Y-40854333D01*
X54729047Y-40854333D01*
X54824285Y-40901952D01*
X54871904Y-40949571D01*
X54919523Y-41044809D01*
X54919523Y-41282904D01*
X54871904Y-41378142D01*
X54824285Y-41425761D01*
X54729047Y-41473380D01*
X54443333Y-41473380D01*
X54348095Y-41425761D01*
X54300476Y-41378142D01*
X55538571Y-40473380D02*
X55633809Y-40473380D01*
X55729047Y-40521000D01*
X55776666Y-40568619D01*
X55824285Y-40663857D01*
X55871904Y-40854333D01*
X55871904Y-41092428D01*
X55824285Y-41282904D01*
X55776666Y-41378142D01*
X55729047Y-41425761D01*
X55633809Y-41473380D01*
X55538571Y-41473380D01*
X55443333Y-41425761D01*
X55395714Y-41378142D01*
X55348095Y-41282904D01*
X55300476Y-41092428D01*
X55300476Y-40854333D01*
X55348095Y-40663857D01*
X55395714Y-40568619D01*
X55443333Y-40521000D01*
X55538571Y-40473380D01*
G04 #@! TO.C,R41*
X87447380Y-103893857D02*
X86971190Y-104227190D01*
X87447380Y-104465285D02*
X86447380Y-104465285D01*
X86447380Y-104084333D01*
X86495000Y-103989095D01*
X86542619Y-103941476D01*
X86637857Y-103893857D01*
X86780714Y-103893857D01*
X86875952Y-103941476D01*
X86923571Y-103989095D01*
X86971190Y-104084333D01*
X86971190Y-104465285D01*
X86780714Y-103036714D02*
X87447380Y-103036714D01*
X86399761Y-103274809D02*
X87114047Y-103512904D01*
X87114047Y-102893857D01*
X87447380Y-101989095D02*
X87447380Y-102560523D01*
X87447380Y-102274809D02*
X86447380Y-102274809D01*
X86590238Y-102370047D01*
X86685476Y-102465285D01*
X86733095Y-102560523D01*
G04 #@! TO.C,R64*
X84574142Y-110751880D02*
X84240809Y-110275690D01*
X84002714Y-110751880D02*
X84002714Y-109751880D01*
X84383666Y-109751880D01*
X84478904Y-109799500D01*
X84526523Y-109847119D01*
X84574142Y-109942357D01*
X84574142Y-110085214D01*
X84526523Y-110180452D01*
X84478904Y-110228071D01*
X84383666Y-110275690D01*
X84002714Y-110275690D01*
X85431285Y-109751880D02*
X85240809Y-109751880D01*
X85145571Y-109799500D01*
X85097952Y-109847119D01*
X85002714Y-109989976D01*
X84955095Y-110180452D01*
X84955095Y-110561404D01*
X85002714Y-110656642D01*
X85050333Y-110704261D01*
X85145571Y-110751880D01*
X85336047Y-110751880D01*
X85431285Y-110704261D01*
X85478904Y-110656642D01*
X85526523Y-110561404D01*
X85526523Y-110323309D01*
X85478904Y-110228071D01*
X85431285Y-110180452D01*
X85336047Y-110132833D01*
X85145571Y-110132833D01*
X85050333Y-110180452D01*
X85002714Y-110228071D01*
X84955095Y-110323309D01*
X86383666Y-110085214D02*
X86383666Y-110751880D01*
X86145571Y-109704261D02*
X85907476Y-110418547D01*
X86526523Y-110418547D01*
G04 #@! TO.C,R12*
X85336142Y-59507380D02*
X85002809Y-59031190D01*
X84764714Y-59507380D02*
X84764714Y-58507380D01*
X85145666Y-58507380D01*
X85240904Y-58555000D01*
X85288523Y-58602619D01*
X85336142Y-58697857D01*
X85336142Y-58840714D01*
X85288523Y-58935952D01*
X85240904Y-58983571D01*
X85145666Y-59031190D01*
X84764714Y-59031190D01*
X86288523Y-59507380D02*
X85717095Y-59507380D01*
X86002809Y-59507380D02*
X86002809Y-58507380D01*
X85907571Y-58650238D01*
X85812333Y-58745476D01*
X85717095Y-58793095D01*
X86669476Y-58602619D02*
X86717095Y-58555000D01*
X86812333Y-58507380D01*
X87050428Y-58507380D01*
X87145666Y-58555000D01*
X87193285Y-58602619D01*
X87240904Y-58697857D01*
X87240904Y-58793095D01*
X87193285Y-58935952D01*
X86621857Y-59507380D01*
X87240904Y-59507380D01*
G04 #@! TO.C,R66*
X84510642Y-78747880D02*
X84177309Y-78271690D01*
X83939214Y-78747880D02*
X83939214Y-77747880D01*
X84320166Y-77747880D01*
X84415404Y-77795500D01*
X84463023Y-77843119D01*
X84510642Y-77938357D01*
X84510642Y-78081214D01*
X84463023Y-78176452D01*
X84415404Y-78224071D01*
X84320166Y-78271690D01*
X83939214Y-78271690D01*
X85367785Y-77747880D02*
X85177309Y-77747880D01*
X85082071Y-77795500D01*
X85034452Y-77843119D01*
X84939214Y-77985976D01*
X84891595Y-78176452D01*
X84891595Y-78557404D01*
X84939214Y-78652642D01*
X84986833Y-78700261D01*
X85082071Y-78747880D01*
X85272547Y-78747880D01*
X85367785Y-78700261D01*
X85415404Y-78652642D01*
X85463023Y-78557404D01*
X85463023Y-78319309D01*
X85415404Y-78224071D01*
X85367785Y-78176452D01*
X85272547Y-78128833D01*
X85082071Y-78128833D01*
X84986833Y-78176452D01*
X84939214Y-78224071D01*
X84891595Y-78319309D01*
X86320166Y-77747880D02*
X86129690Y-77747880D01*
X86034452Y-77795500D01*
X85986833Y-77843119D01*
X85891595Y-77985976D01*
X85843976Y-78176452D01*
X85843976Y-78557404D01*
X85891595Y-78652642D01*
X85939214Y-78700261D01*
X86034452Y-78747880D01*
X86224928Y-78747880D01*
X86320166Y-78700261D01*
X86367785Y-78652642D01*
X86415404Y-78557404D01*
X86415404Y-78319309D01*
X86367785Y-78224071D01*
X86320166Y-78176452D01*
X86224928Y-78128833D01*
X86034452Y-78128833D01*
X85939214Y-78176452D01*
X85891595Y-78224071D01*
X85843976Y-78319309D01*
G04 #@! TO.C,R43*
X84574142Y-89161880D02*
X84240809Y-88685690D01*
X84002714Y-89161880D02*
X84002714Y-88161880D01*
X84383666Y-88161880D01*
X84478904Y-88209500D01*
X84526523Y-88257119D01*
X84574142Y-88352357D01*
X84574142Y-88495214D01*
X84526523Y-88590452D01*
X84478904Y-88638071D01*
X84383666Y-88685690D01*
X84002714Y-88685690D01*
X85431285Y-88495214D02*
X85431285Y-89161880D01*
X85193190Y-88114261D02*
X84955095Y-88828547D01*
X85574142Y-88828547D01*
X85859857Y-88161880D02*
X86478904Y-88161880D01*
X86145571Y-88542833D01*
X86288428Y-88542833D01*
X86383666Y-88590452D01*
X86431285Y-88638071D01*
X86478904Y-88733309D01*
X86478904Y-88971404D01*
X86431285Y-89066642D01*
X86383666Y-89114261D01*
X86288428Y-89161880D01*
X86002714Y-89161880D01*
X85907476Y-89114261D01*
X85859857Y-89066642D01*
G04 #@! TO.C,U7*
X72724095Y-100118380D02*
X72724095Y-100927904D01*
X72771714Y-101023142D01*
X72819333Y-101070761D01*
X72914571Y-101118380D01*
X73105047Y-101118380D01*
X73200285Y-101070761D01*
X73247904Y-101023142D01*
X73295523Y-100927904D01*
X73295523Y-100118380D01*
X73676476Y-100118380D02*
X74343142Y-100118380D01*
X73914571Y-101118380D01*
G04 #@! TO.C,U3*
X72674095Y-59017380D02*
X72674095Y-59826904D01*
X72721714Y-59922142D01*
X72769333Y-59969761D01*
X72864571Y-60017380D01*
X73055047Y-60017380D01*
X73150285Y-59969761D01*
X73197904Y-59922142D01*
X73245523Y-59826904D01*
X73245523Y-59017380D01*
X73626476Y-59017380D02*
X74245523Y-59017380D01*
X73912190Y-59398333D01*
X74055047Y-59398333D01*
X74150285Y-59445952D01*
X74197904Y-59493571D01*
X74245523Y-59588809D01*
X74245523Y-59826904D01*
X74197904Y-59922142D01*
X74150285Y-59969761D01*
X74055047Y-60017380D01*
X73769333Y-60017380D01*
X73674095Y-59969761D01*
X73626476Y-59922142D01*
G04 #@! TO.C,U8*
X72724095Y-88693380D02*
X72724095Y-89502904D01*
X72771714Y-89598142D01*
X72819333Y-89645761D01*
X72914571Y-89693380D01*
X73105047Y-89693380D01*
X73200285Y-89645761D01*
X73247904Y-89598142D01*
X73295523Y-89502904D01*
X73295523Y-88693380D01*
X73914571Y-89121952D02*
X73819333Y-89074333D01*
X73771714Y-89026714D01*
X73724095Y-88931476D01*
X73724095Y-88883857D01*
X73771714Y-88788619D01*
X73819333Y-88741000D01*
X73914571Y-88693380D01*
X74105047Y-88693380D01*
X74200285Y-88741000D01*
X74247904Y-88788619D01*
X74295523Y-88883857D01*
X74295523Y-88931476D01*
X74247904Y-89026714D01*
X74200285Y-89074333D01*
X74105047Y-89121952D01*
X73914571Y-89121952D01*
X73819333Y-89169571D01*
X73771714Y-89217190D01*
X73724095Y-89312428D01*
X73724095Y-89502904D01*
X73771714Y-89598142D01*
X73819333Y-89645761D01*
X73914571Y-89693380D01*
X74105047Y-89693380D01*
X74200285Y-89645761D01*
X74247904Y-89598142D01*
X74295523Y-89502904D01*
X74295523Y-89312428D01*
X74247904Y-89217190D01*
X74200285Y-89169571D01*
X74105047Y-89121952D01*
G04 #@! TO.C,U11*
X71711904Y-110482380D02*
X71711904Y-111291904D01*
X71759523Y-111387142D01*
X71807142Y-111434761D01*
X71902380Y-111482380D01*
X72092857Y-111482380D01*
X72188095Y-111434761D01*
X72235714Y-111387142D01*
X72283333Y-111291904D01*
X72283333Y-110482380D01*
X73283333Y-111482380D02*
X72711904Y-111482380D01*
X72997619Y-111482380D02*
X72997619Y-110482380D01*
X72902380Y-110625238D01*
X72807142Y-110720476D01*
X72711904Y-110768095D01*
X74235714Y-111482380D02*
X73664285Y-111482380D01*
X73950000Y-111482380D02*
X73950000Y-110482380D01*
X73854761Y-110625238D01*
X73759523Y-110720476D01*
X73664285Y-110768095D01*
G04 #@! TO.C,U12*
X72341904Y-78528380D02*
X72341904Y-79337904D01*
X72389523Y-79433142D01*
X72437142Y-79480761D01*
X72532380Y-79528380D01*
X72722857Y-79528380D01*
X72818095Y-79480761D01*
X72865714Y-79433142D01*
X72913333Y-79337904D01*
X72913333Y-78528380D01*
X73913333Y-79528380D02*
X73341904Y-79528380D01*
X73627619Y-79528380D02*
X73627619Y-78528380D01*
X73532380Y-78671238D01*
X73437142Y-78766476D01*
X73341904Y-78814095D01*
X74294285Y-78623619D02*
X74341904Y-78576000D01*
X74437142Y-78528380D01*
X74675238Y-78528380D01*
X74770476Y-78576000D01*
X74818095Y-78623619D01*
X74865714Y-78718857D01*
X74865714Y-78814095D01*
X74818095Y-78956952D01*
X74246666Y-79528380D01*
X74865714Y-79528380D01*
G04 #@! TO.C,C32*
X53713142Y-56491142D02*
X53665523Y-56538761D01*
X53522666Y-56586380D01*
X53427428Y-56586380D01*
X53284571Y-56538761D01*
X53189333Y-56443523D01*
X53141714Y-56348285D01*
X53094095Y-56157809D01*
X53094095Y-56014952D01*
X53141714Y-55824476D01*
X53189333Y-55729238D01*
X53284571Y-55634000D01*
X53427428Y-55586380D01*
X53522666Y-55586380D01*
X53665523Y-55634000D01*
X53713142Y-55681619D01*
X54046476Y-55586380D02*
X54665523Y-55586380D01*
X54332190Y-55967333D01*
X54475047Y-55967333D01*
X54570285Y-56014952D01*
X54617904Y-56062571D01*
X54665523Y-56157809D01*
X54665523Y-56395904D01*
X54617904Y-56491142D01*
X54570285Y-56538761D01*
X54475047Y-56586380D01*
X54189333Y-56586380D01*
X54094095Y-56538761D01*
X54046476Y-56491142D01*
X55046476Y-55681619D02*
X55094095Y-55634000D01*
X55189333Y-55586380D01*
X55427428Y-55586380D01*
X55522666Y-55634000D01*
X55570285Y-55681619D01*
X55617904Y-55776857D01*
X55617904Y-55872095D01*
X55570285Y-56014952D01*
X54998857Y-56586380D01*
X55617904Y-56586380D01*
G04 #@! TO.C,C31*
X54221142Y-44426142D02*
X54173523Y-44473761D01*
X54030666Y-44521380D01*
X53935428Y-44521380D01*
X53792571Y-44473761D01*
X53697333Y-44378523D01*
X53649714Y-44283285D01*
X53602095Y-44092809D01*
X53602095Y-43949952D01*
X53649714Y-43759476D01*
X53697333Y-43664238D01*
X53792571Y-43569000D01*
X53935428Y-43521380D01*
X54030666Y-43521380D01*
X54173523Y-43569000D01*
X54221142Y-43616619D01*
X54554476Y-43521380D02*
X55173523Y-43521380D01*
X54840190Y-43902333D01*
X54983047Y-43902333D01*
X55078285Y-43949952D01*
X55125904Y-43997571D01*
X55173523Y-44092809D01*
X55173523Y-44330904D01*
X55125904Y-44426142D01*
X55078285Y-44473761D01*
X54983047Y-44521380D01*
X54697333Y-44521380D01*
X54602095Y-44473761D01*
X54554476Y-44426142D01*
X56125904Y-44521380D02*
X55554476Y-44521380D01*
X55840190Y-44521380D02*
X55840190Y-43521380D01*
X55744952Y-43664238D01*
X55649714Y-43759476D01*
X55554476Y-43807095D01*
G04 #@! TO.C,C33*
X54094142Y-53697142D02*
X54046523Y-53744761D01*
X53903666Y-53792380D01*
X53808428Y-53792380D01*
X53665571Y-53744761D01*
X53570333Y-53649523D01*
X53522714Y-53554285D01*
X53475095Y-53363809D01*
X53475095Y-53220952D01*
X53522714Y-53030476D01*
X53570333Y-52935238D01*
X53665571Y-52840000D01*
X53808428Y-52792380D01*
X53903666Y-52792380D01*
X54046523Y-52840000D01*
X54094142Y-52887619D01*
X54427476Y-52792380D02*
X55046523Y-52792380D01*
X54713190Y-53173333D01*
X54856047Y-53173333D01*
X54951285Y-53220952D01*
X54998904Y-53268571D01*
X55046523Y-53363809D01*
X55046523Y-53601904D01*
X54998904Y-53697142D01*
X54951285Y-53744761D01*
X54856047Y-53792380D01*
X54570333Y-53792380D01*
X54475095Y-53744761D01*
X54427476Y-53697142D01*
X55379857Y-52792380D02*
X55998904Y-52792380D01*
X55665571Y-53173333D01*
X55808428Y-53173333D01*
X55903666Y-53220952D01*
X55951285Y-53268571D01*
X55998904Y-53363809D01*
X55998904Y-53601904D01*
X55951285Y-53697142D01*
X55903666Y-53744761D01*
X55808428Y-53792380D01*
X55522714Y-53792380D01*
X55427476Y-53744761D01*
X55379857Y-53697142D01*
G04 #@! TO.C,U14*
X58959904Y-45553380D02*
X58959904Y-46362904D01*
X59007523Y-46458142D01*
X59055142Y-46505761D01*
X59150380Y-46553380D01*
X59340857Y-46553380D01*
X59436095Y-46505761D01*
X59483714Y-46458142D01*
X59531333Y-46362904D01*
X59531333Y-45553380D01*
X60531333Y-46553380D02*
X59959904Y-46553380D01*
X60245619Y-46553380D02*
X60245619Y-45553380D01*
X60150380Y-45696238D01*
X60055142Y-45791476D01*
X59959904Y-45839095D01*
X61388476Y-45886714D02*
X61388476Y-46553380D01*
X61150380Y-45505761D02*
X60912285Y-46220047D01*
X61531333Y-46220047D01*
G04 #@! TO.C,U15*
X76720904Y-121681380D02*
X76720904Y-122490904D01*
X76768523Y-122586142D01*
X76816142Y-122633761D01*
X76911380Y-122681380D01*
X77101857Y-122681380D01*
X77197095Y-122633761D01*
X77244714Y-122586142D01*
X77292333Y-122490904D01*
X77292333Y-121681380D01*
X78292333Y-122681380D02*
X77720904Y-122681380D01*
X78006619Y-122681380D02*
X78006619Y-121681380D01*
X77911380Y-121824238D01*
X77816142Y-121919476D01*
X77720904Y-121967095D01*
X79197095Y-121681380D02*
X78720904Y-121681380D01*
X78673285Y-122157571D01*
X78720904Y-122109952D01*
X78816142Y-122062333D01*
X79054238Y-122062333D01*
X79149476Y-122109952D01*
X79197095Y-122157571D01*
X79244714Y-122252809D01*
X79244714Y-122490904D01*
X79197095Y-122586142D01*
X79149476Y-122633761D01*
X79054238Y-122681380D01*
X78816142Y-122681380D01*
X78720904Y-122633761D01*
X78673285Y-122586142D01*
G04 #@! TO.C,R42*
X69551142Y-104655380D02*
X69217809Y-104179190D01*
X68979714Y-104655380D02*
X68979714Y-103655380D01*
X69360666Y-103655380D01*
X69455904Y-103703000D01*
X69503523Y-103750619D01*
X69551142Y-103845857D01*
X69551142Y-103988714D01*
X69503523Y-104083952D01*
X69455904Y-104131571D01*
X69360666Y-104179190D01*
X68979714Y-104179190D01*
X70408285Y-103988714D02*
X70408285Y-104655380D01*
X70170190Y-103607761D02*
X69932095Y-104322047D01*
X70551142Y-104322047D01*
X70884476Y-103750619D02*
X70932095Y-103703000D01*
X71027333Y-103655380D01*
X71265428Y-103655380D01*
X71360666Y-103703000D01*
X71408285Y-103750619D01*
X71455904Y-103845857D01*
X71455904Y-103941095D01*
X71408285Y-104083952D01*
X70836857Y-104655380D01*
X71455904Y-104655380D01*
G04 #@! TO.C,R50*
X94353142Y-67000380D02*
X94019809Y-66524190D01*
X93781714Y-67000380D02*
X93781714Y-66000380D01*
X94162666Y-66000380D01*
X94257904Y-66048000D01*
X94305523Y-66095619D01*
X94353142Y-66190857D01*
X94353142Y-66333714D01*
X94305523Y-66428952D01*
X94257904Y-66476571D01*
X94162666Y-66524190D01*
X93781714Y-66524190D01*
X95257904Y-66000380D02*
X94781714Y-66000380D01*
X94734095Y-66476571D01*
X94781714Y-66428952D01*
X94876952Y-66381333D01*
X95115047Y-66381333D01*
X95210285Y-66428952D01*
X95257904Y-66476571D01*
X95305523Y-66571809D01*
X95305523Y-66809904D01*
X95257904Y-66905142D01*
X95210285Y-66952761D01*
X95115047Y-67000380D01*
X94876952Y-67000380D01*
X94781714Y-66952761D01*
X94734095Y-66905142D01*
X95924571Y-66000380D02*
X96019809Y-66000380D01*
X96115047Y-66048000D01*
X96162666Y-66095619D01*
X96210285Y-66190857D01*
X96257904Y-66381333D01*
X96257904Y-66619428D01*
X96210285Y-66809904D01*
X96162666Y-66905142D01*
X96115047Y-66952761D01*
X96019809Y-67000380D01*
X95924571Y-67000380D01*
X95829333Y-66952761D01*
X95781714Y-66905142D01*
X95734095Y-66809904D01*
X95686476Y-66619428D01*
X95686476Y-66381333D01*
X95734095Y-66190857D01*
X95781714Y-66095619D01*
X95829333Y-66048000D01*
X95924571Y-66000380D01*
G04 #@! TO.C,R77*
X94162642Y-86367880D02*
X93829309Y-85891690D01*
X93591214Y-86367880D02*
X93591214Y-85367880D01*
X93972166Y-85367880D01*
X94067404Y-85415500D01*
X94115023Y-85463119D01*
X94162642Y-85558357D01*
X94162642Y-85701214D01*
X94115023Y-85796452D01*
X94067404Y-85844071D01*
X93972166Y-85891690D01*
X93591214Y-85891690D01*
X94495976Y-85367880D02*
X95162642Y-85367880D01*
X94734071Y-86367880D01*
X95448357Y-85367880D02*
X96115023Y-85367880D01*
X95686452Y-86367880D01*
G04 #@! TO.C,R70*
X94226142Y-76525380D02*
X93892809Y-76049190D01*
X93654714Y-76525380D02*
X93654714Y-75525380D01*
X94035666Y-75525380D01*
X94130904Y-75573000D01*
X94178523Y-75620619D01*
X94226142Y-75715857D01*
X94226142Y-75858714D01*
X94178523Y-75953952D01*
X94130904Y-76001571D01*
X94035666Y-76049190D01*
X93654714Y-76049190D01*
X94559476Y-75525380D02*
X95226142Y-75525380D01*
X94797571Y-76525380D01*
X95797571Y-75525380D02*
X95892809Y-75525380D01*
X95988047Y-75573000D01*
X96035666Y-75620619D01*
X96083285Y-75715857D01*
X96130904Y-75906333D01*
X96130904Y-76144428D01*
X96083285Y-76334904D01*
X96035666Y-76430142D01*
X95988047Y-76477761D01*
X95892809Y-76525380D01*
X95797571Y-76525380D01*
X95702333Y-76477761D01*
X95654714Y-76430142D01*
X95607095Y-76334904D01*
X95559476Y-76144428D01*
X95559476Y-75906333D01*
X95607095Y-75715857D01*
X95654714Y-75620619D01*
X95702333Y-75573000D01*
X95797571Y-75525380D01*
G04 #@! TO.C,R19*
X79103142Y-60379380D02*
X78769809Y-59903190D01*
X78531714Y-60379380D02*
X78531714Y-59379380D01*
X78912666Y-59379380D01*
X79007904Y-59427000D01*
X79055523Y-59474619D01*
X79103142Y-59569857D01*
X79103142Y-59712714D01*
X79055523Y-59807952D01*
X79007904Y-59855571D01*
X78912666Y-59903190D01*
X78531714Y-59903190D01*
X80055523Y-60379380D02*
X79484095Y-60379380D01*
X79769809Y-60379380D02*
X79769809Y-59379380D01*
X79674571Y-59522238D01*
X79579333Y-59617476D01*
X79484095Y-59665095D01*
X80531714Y-60379380D02*
X80722190Y-60379380D01*
X80817428Y-60331761D01*
X80865047Y-60284142D01*
X80960285Y-60141285D01*
X81007904Y-59950809D01*
X81007904Y-59569857D01*
X80960285Y-59474619D01*
X80912666Y-59427000D01*
X80817428Y-59379380D01*
X80626952Y-59379380D01*
X80531714Y-59427000D01*
X80484095Y-59474619D01*
X80436476Y-59569857D01*
X80436476Y-59807952D01*
X80484095Y-59903190D01*
X80531714Y-59950809D01*
X80626952Y-59998428D01*
X80817428Y-59998428D01*
X80912666Y-59950809D01*
X80960285Y-59903190D01*
X81007904Y-59807952D01*
G04 #@! TO.C,R40*
X79049642Y-95638880D02*
X78716309Y-95162690D01*
X78478214Y-95638880D02*
X78478214Y-94638880D01*
X78859166Y-94638880D01*
X78954404Y-94686500D01*
X79002023Y-94734119D01*
X79049642Y-94829357D01*
X79049642Y-94972214D01*
X79002023Y-95067452D01*
X78954404Y-95115071D01*
X78859166Y-95162690D01*
X78478214Y-95162690D01*
X79906785Y-94972214D02*
X79906785Y-95638880D01*
X79668690Y-94591261D02*
X79430595Y-95305547D01*
X80049642Y-95305547D01*
X80621071Y-94638880D02*
X80716309Y-94638880D01*
X80811547Y-94686500D01*
X80859166Y-94734119D01*
X80906785Y-94829357D01*
X80954404Y-95019833D01*
X80954404Y-95257928D01*
X80906785Y-95448404D01*
X80859166Y-95543642D01*
X80811547Y-95591261D01*
X80716309Y-95638880D01*
X80621071Y-95638880D01*
X80525833Y-95591261D01*
X80478214Y-95543642D01*
X80430595Y-95448404D01*
X80382976Y-95257928D01*
X80382976Y-95019833D01*
X80430595Y-94829357D01*
X80478214Y-94734119D01*
X80525833Y-94686500D01*
X80621071Y-94638880D01*
G04 #@! TO.C,R38*
X79047142Y-106246380D02*
X78713809Y-105770190D01*
X78475714Y-106246380D02*
X78475714Y-105246380D01*
X78856666Y-105246380D01*
X78951904Y-105294000D01*
X78999523Y-105341619D01*
X79047142Y-105436857D01*
X79047142Y-105579714D01*
X78999523Y-105674952D01*
X78951904Y-105722571D01*
X78856666Y-105770190D01*
X78475714Y-105770190D01*
X79380476Y-105246380D02*
X79999523Y-105246380D01*
X79666190Y-105627333D01*
X79809047Y-105627333D01*
X79904285Y-105674952D01*
X79951904Y-105722571D01*
X79999523Y-105817809D01*
X79999523Y-106055904D01*
X79951904Y-106151142D01*
X79904285Y-106198761D01*
X79809047Y-106246380D01*
X79523333Y-106246380D01*
X79428095Y-106198761D01*
X79380476Y-106151142D01*
X80570952Y-105674952D02*
X80475714Y-105627333D01*
X80428095Y-105579714D01*
X80380476Y-105484476D01*
X80380476Y-105436857D01*
X80428095Y-105341619D01*
X80475714Y-105294000D01*
X80570952Y-105246380D01*
X80761428Y-105246380D01*
X80856666Y-105294000D01*
X80904285Y-105341619D01*
X80951904Y-105436857D01*
X80951904Y-105484476D01*
X80904285Y-105579714D01*
X80856666Y-105627333D01*
X80761428Y-105674952D01*
X80570952Y-105674952D01*
X80475714Y-105722571D01*
X80428095Y-105770190D01*
X80380476Y-105865428D01*
X80380476Y-106055904D01*
X80428095Y-106151142D01*
X80475714Y-106198761D01*
X80570952Y-106246380D01*
X80761428Y-106246380D01*
X80856666Y-106198761D01*
X80904285Y-106151142D01*
X80951904Y-106055904D01*
X80951904Y-105865428D01*
X80904285Y-105770190D01*
X80856666Y-105722571D01*
X80761428Y-105674952D01*
G04 #@! TO.C,C7*
X63859333Y-62884142D02*
X63811714Y-62931761D01*
X63668857Y-62979380D01*
X63573619Y-62979380D01*
X63430761Y-62931761D01*
X63335523Y-62836523D01*
X63287904Y-62741285D01*
X63240285Y-62550809D01*
X63240285Y-62407952D01*
X63287904Y-62217476D01*
X63335523Y-62122238D01*
X63430761Y-62027000D01*
X63573619Y-61979380D01*
X63668857Y-61979380D01*
X63811714Y-62027000D01*
X63859333Y-62074619D01*
X64192666Y-61979380D02*
X64859333Y-61979380D01*
X64430761Y-62979380D01*
G04 #@! TO.C,C5*
X76668333Y-60047142D02*
X76620714Y-60094761D01*
X76477857Y-60142380D01*
X76382619Y-60142380D01*
X76239761Y-60094761D01*
X76144523Y-59999523D01*
X76096904Y-59904285D01*
X76049285Y-59713809D01*
X76049285Y-59570952D01*
X76096904Y-59380476D01*
X76144523Y-59285238D01*
X76239761Y-59190000D01*
X76382619Y-59142380D01*
X76477857Y-59142380D01*
X76620714Y-59190000D01*
X76668333Y-59237619D01*
X77573095Y-59142380D02*
X77096904Y-59142380D01*
X77049285Y-59618571D01*
X77096904Y-59570952D01*
X77192142Y-59523333D01*
X77430238Y-59523333D01*
X77525476Y-59570952D01*
X77573095Y-59618571D01*
X77620714Y-59713809D01*
X77620714Y-59951904D01*
X77573095Y-60047142D01*
X77525476Y-60094761D01*
X77430238Y-60142380D01*
X77192142Y-60142380D01*
X77096904Y-60094761D01*
X77049285Y-60047142D01*
G04 #@! TO.C,C3*
X39590730Y-112579540D02*
X39638349Y-112627159D01*
X39685968Y-112770016D01*
X39685968Y-112865254D01*
X39638349Y-113008112D01*
X39543111Y-113103350D01*
X39447873Y-113150969D01*
X39257397Y-113198588D01*
X39114540Y-113198588D01*
X38924064Y-113150969D01*
X38828826Y-113103350D01*
X38733588Y-113008112D01*
X38685968Y-112865254D01*
X38685968Y-112770016D01*
X38733588Y-112627159D01*
X38781207Y-112579540D01*
X38685968Y-112246207D02*
X38685968Y-111627159D01*
X39066921Y-111960493D01*
X39066921Y-111817635D01*
X39114540Y-111722397D01*
X39162159Y-111674778D01*
X39257397Y-111627159D01*
X39495492Y-111627159D01*
X39590730Y-111674778D01*
X39638349Y-111722397D01*
X39685968Y-111817635D01*
X39685968Y-112103350D01*
X39638349Y-112198588D01*
X39590730Y-112246207D01*
G04 #@! TO.C,C1*
X72654333Y-67284142D02*
X72606714Y-67331761D01*
X72463857Y-67379380D01*
X72368619Y-67379380D01*
X72225761Y-67331761D01*
X72130523Y-67236523D01*
X72082904Y-67141285D01*
X72035285Y-66950809D01*
X72035285Y-66807952D01*
X72082904Y-66617476D01*
X72130523Y-66522238D01*
X72225761Y-66427000D01*
X72368619Y-66379380D01*
X72463857Y-66379380D01*
X72606714Y-66427000D01*
X72654333Y-66474619D01*
X73606714Y-67379380D02*
X73035285Y-67379380D01*
X73321000Y-67379380D02*
X73321000Y-66379380D01*
X73225761Y-66522238D01*
X73130523Y-66617476D01*
X73035285Y-66665095D01*
G04 #@! TO.C,C21*
X76255642Y-111482142D02*
X76208023Y-111529761D01*
X76065166Y-111577380D01*
X75969928Y-111577380D01*
X75827071Y-111529761D01*
X75731833Y-111434523D01*
X75684214Y-111339285D01*
X75636595Y-111148809D01*
X75636595Y-111005952D01*
X75684214Y-110815476D01*
X75731833Y-110720238D01*
X75827071Y-110625000D01*
X75969928Y-110577380D01*
X76065166Y-110577380D01*
X76208023Y-110625000D01*
X76255642Y-110672619D01*
X76636595Y-110672619D02*
X76684214Y-110625000D01*
X76779452Y-110577380D01*
X77017547Y-110577380D01*
X77112785Y-110625000D01*
X77160404Y-110672619D01*
X77208023Y-110767857D01*
X77208023Y-110863095D01*
X77160404Y-111005952D01*
X76588976Y-111577380D01*
X77208023Y-111577380D01*
X78160404Y-111577380D02*
X77588976Y-111577380D01*
X77874690Y-111577380D02*
X77874690Y-110577380D01*
X77779452Y-110720238D01*
X77684214Y-110815476D01*
X77588976Y-110863095D01*
G04 #@! TO.C,C22*
X77573142Y-79382857D02*
X77620761Y-79430476D01*
X77668380Y-79573333D01*
X77668380Y-79668571D01*
X77620761Y-79811428D01*
X77525523Y-79906666D01*
X77430285Y-79954285D01*
X77239809Y-80001904D01*
X77096952Y-80001904D01*
X76906476Y-79954285D01*
X76811238Y-79906666D01*
X76716000Y-79811428D01*
X76668380Y-79668571D01*
X76668380Y-79573333D01*
X76716000Y-79430476D01*
X76763619Y-79382857D01*
X76763619Y-79001904D02*
X76716000Y-78954285D01*
X76668380Y-78859047D01*
X76668380Y-78620952D01*
X76716000Y-78525714D01*
X76763619Y-78478095D01*
X76858857Y-78430476D01*
X76954095Y-78430476D01*
X77096952Y-78478095D01*
X77668380Y-79049523D01*
X77668380Y-78430476D01*
X76763619Y-78049523D02*
X76716000Y-78001904D01*
X76668380Y-77906666D01*
X76668380Y-77668571D01*
X76716000Y-77573333D01*
X76763619Y-77525714D01*
X76858857Y-77478095D01*
X76954095Y-77478095D01*
X77096952Y-77525714D01*
X77668380Y-78097142D01*
X77668380Y-77478095D01*
G04 #@! TO.C,C23*
X63175142Y-113133142D02*
X63127523Y-113180761D01*
X62984666Y-113228380D01*
X62889428Y-113228380D01*
X62746571Y-113180761D01*
X62651333Y-113085523D01*
X62603714Y-112990285D01*
X62556095Y-112799809D01*
X62556095Y-112656952D01*
X62603714Y-112466476D01*
X62651333Y-112371238D01*
X62746571Y-112276000D01*
X62889428Y-112228380D01*
X62984666Y-112228380D01*
X63127523Y-112276000D01*
X63175142Y-112323619D01*
X63556095Y-112323619D02*
X63603714Y-112276000D01*
X63698952Y-112228380D01*
X63937047Y-112228380D01*
X64032285Y-112276000D01*
X64079904Y-112323619D01*
X64127523Y-112418857D01*
X64127523Y-112514095D01*
X64079904Y-112656952D01*
X63508476Y-113228380D01*
X64127523Y-113228380D01*
X64460857Y-112228380D02*
X65079904Y-112228380D01*
X64746571Y-112609333D01*
X64889428Y-112609333D01*
X64984666Y-112656952D01*
X65032285Y-112704571D01*
X65079904Y-112799809D01*
X65079904Y-113037904D01*
X65032285Y-113133142D01*
X64984666Y-113180761D01*
X64889428Y-113228380D01*
X64603714Y-113228380D01*
X64508476Y-113180761D01*
X64460857Y-113133142D01*
G04 #@! TO.C,C24*
X62984142Y-81508142D02*
X62936523Y-81555761D01*
X62793666Y-81603380D01*
X62698428Y-81603380D01*
X62555571Y-81555761D01*
X62460333Y-81460523D01*
X62412714Y-81365285D01*
X62365095Y-81174809D01*
X62365095Y-81031952D01*
X62412714Y-80841476D01*
X62460333Y-80746238D01*
X62555571Y-80651000D01*
X62698428Y-80603380D01*
X62793666Y-80603380D01*
X62936523Y-80651000D01*
X62984142Y-80698619D01*
X63365095Y-80698619D02*
X63412714Y-80651000D01*
X63507952Y-80603380D01*
X63746047Y-80603380D01*
X63841285Y-80651000D01*
X63888904Y-80698619D01*
X63936523Y-80793857D01*
X63936523Y-80889095D01*
X63888904Y-81031952D01*
X63317476Y-81603380D01*
X63936523Y-81603380D01*
X64793666Y-80936714D02*
X64793666Y-81603380D01*
X64555571Y-80555761D02*
X64317476Y-81270047D01*
X64936523Y-81270047D01*
G04 #@! TO.C,C29*
X73991142Y-119756142D02*
X73943523Y-119803761D01*
X73800666Y-119851380D01*
X73705428Y-119851380D01*
X73562571Y-119803761D01*
X73467333Y-119708523D01*
X73419714Y-119613285D01*
X73372095Y-119422809D01*
X73372095Y-119279952D01*
X73419714Y-119089476D01*
X73467333Y-118994238D01*
X73562571Y-118899000D01*
X73705428Y-118851380D01*
X73800666Y-118851380D01*
X73943523Y-118899000D01*
X73991142Y-118946619D01*
X74372095Y-118946619D02*
X74419714Y-118899000D01*
X74514952Y-118851380D01*
X74753047Y-118851380D01*
X74848285Y-118899000D01*
X74895904Y-118946619D01*
X74943523Y-119041857D01*
X74943523Y-119137095D01*
X74895904Y-119279952D01*
X74324476Y-119851380D01*
X74943523Y-119851380D01*
X75419714Y-119851380D02*
X75610190Y-119851380D01*
X75705428Y-119803761D01*
X75753047Y-119756142D01*
X75848285Y-119613285D01*
X75895904Y-119422809D01*
X75895904Y-119041857D01*
X75848285Y-118946619D01*
X75800666Y-118899000D01*
X75705428Y-118851380D01*
X75514952Y-118851380D01*
X75419714Y-118899000D01*
X75372095Y-118946619D01*
X75324476Y-119041857D01*
X75324476Y-119279952D01*
X75372095Y-119375190D01*
X75419714Y-119422809D01*
X75514952Y-119470428D01*
X75705428Y-119470428D01*
X75800666Y-119422809D01*
X75848285Y-119375190D01*
X75895904Y-119279952D01*
G04 #@! TO.C,C17*
X72114142Y-118343142D02*
X72066523Y-118390761D01*
X71923666Y-118438380D01*
X71828428Y-118438380D01*
X71685571Y-118390761D01*
X71590333Y-118295523D01*
X71542714Y-118200285D01*
X71495095Y-118009809D01*
X71495095Y-117866952D01*
X71542714Y-117676476D01*
X71590333Y-117581238D01*
X71685571Y-117486000D01*
X71828428Y-117438380D01*
X71923666Y-117438380D01*
X72066523Y-117486000D01*
X72114142Y-117533619D01*
X73066523Y-118438380D02*
X72495095Y-118438380D01*
X72780809Y-118438380D02*
X72780809Y-117438380D01*
X72685571Y-117581238D01*
X72590333Y-117676476D01*
X72495095Y-117724095D01*
X73399857Y-117438380D02*
X74066523Y-117438380D01*
X73637952Y-118438380D01*
G04 #@! TO.C,C16*
X65905142Y-90082642D02*
X65857523Y-90130261D01*
X65714666Y-90177880D01*
X65619428Y-90177880D01*
X65476571Y-90130261D01*
X65381333Y-90035023D01*
X65333714Y-89939785D01*
X65286095Y-89749309D01*
X65286095Y-89606452D01*
X65333714Y-89415976D01*
X65381333Y-89320738D01*
X65476571Y-89225500D01*
X65619428Y-89177880D01*
X65714666Y-89177880D01*
X65857523Y-89225500D01*
X65905142Y-89273119D01*
X66857523Y-90177880D02*
X66286095Y-90177880D01*
X66571809Y-90177880D02*
X66571809Y-89177880D01*
X66476571Y-89320738D01*
X66381333Y-89415976D01*
X66286095Y-89463595D01*
X67714666Y-89177880D02*
X67524190Y-89177880D01*
X67428952Y-89225500D01*
X67381333Y-89273119D01*
X67286095Y-89415976D01*
X67238476Y-89606452D01*
X67238476Y-89987404D01*
X67286095Y-90082642D01*
X67333714Y-90130261D01*
X67428952Y-90177880D01*
X67619428Y-90177880D01*
X67714666Y-90130261D01*
X67762285Y-90082642D01*
X67809904Y-89987404D01*
X67809904Y-89749309D01*
X67762285Y-89654071D01*
X67714666Y-89606452D01*
X67619428Y-89558833D01*
X67428952Y-89558833D01*
X67333714Y-89606452D01*
X67286095Y-89654071D01*
X67238476Y-89749309D01*
G04 #@! TO.C,C15*
X69551142Y-102973142D02*
X69503523Y-103020761D01*
X69360666Y-103068380D01*
X69265428Y-103068380D01*
X69122571Y-103020761D01*
X69027333Y-102925523D01*
X68979714Y-102830285D01*
X68932095Y-102639809D01*
X68932095Y-102496952D01*
X68979714Y-102306476D01*
X69027333Y-102211238D01*
X69122571Y-102116000D01*
X69265428Y-102068380D01*
X69360666Y-102068380D01*
X69503523Y-102116000D01*
X69551142Y-102163619D01*
X70503523Y-103068380D02*
X69932095Y-103068380D01*
X70217809Y-103068380D02*
X70217809Y-102068380D01*
X70122571Y-102211238D01*
X70027333Y-102306476D01*
X69932095Y-102354095D01*
X71408285Y-102068380D02*
X70932095Y-102068380D01*
X70884476Y-102544571D01*
X70932095Y-102496952D01*
X71027333Y-102449333D01*
X71265428Y-102449333D01*
X71360666Y-102496952D01*
X71408285Y-102544571D01*
X71455904Y-102639809D01*
X71455904Y-102877904D01*
X71408285Y-102973142D01*
X71360666Y-103020761D01*
X71265428Y-103068380D01*
X71027333Y-103068380D01*
X70932095Y-103020761D01*
X70884476Y-102973142D01*
G04 #@! TO.C,C14*
X76382642Y-89765142D02*
X76335023Y-89812761D01*
X76192166Y-89860380D01*
X76096928Y-89860380D01*
X75954071Y-89812761D01*
X75858833Y-89717523D01*
X75811214Y-89622285D01*
X75763595Y-89431809D01*
X75763595Y-89288952D01*
X75811214Y-89098476D01*
X75858833Y-89003238D01*
X75954071Y-88908000D01*
X76096928Y-88860380D01*
X76192166Y-88860380D01*
X76335023Y-88908000D01*
X76382642Y-88955619D01*
X77335023Y-89860380D02*
X76763595Y-89860380D01*
X77049309Y-89860380D02*
X77049309Y-88860380D01*
X76954071Y-89003238D01*
X76858833Y-89098476D01*
X76763595Y-89146095D01*
X78192166Y-89193714D02*
X78192166Y-89860380D01*
X77954071Y-88812761D02*
X77715976Y-89527047D01*
X78335023Y-89527047D01*
G04 #@! TO.C,C13*
X77319142Y-100972857D02*
X77366761Y-101020476D01*
X77414380Y-101163333D01*
X77414380Y-101258571D01*
X77366761Y-101401428D01*
X77271523Y-101496666D01*
X77176285Y-101544285D01*
X76985809Y-101591904D01*
X76842952Y-101591904D01*
X76652476Y-101544285D01*
X76557238Y-101496666D01*
X76462000Y-101401428D01*
X76414380Y-101258571D01*
X76414380Y-101163333D01*
X76462000Y-101020476D01*
X76509619Y-100972857D01*
X77414380Y-100020476D02*
X77414380Y-100591904D01*
X77414380Y-100306190D02*
X76414380Y-100306190D01*
X76557238Y-100401428D01*
X76652476Y-100496666D01*
X76700095Y-100591904D01*
X76414380Y-99687142D02*
X76414380Y-99068095D01*
X76795333Y-99401428D01*
X76795333Y-99258571D01*
X76842952Y-99163333D01*
X76890571Y-99115714D01*
X76985809Y-99068095D01*
X77223904Y-99068095D01*
X77319142Y-99115714D01*
X77366761Y-99163333D01*
X77414380Y-99258571D01*
X77414380Y-99544285D01*
X77366761Y-99639523D01*
X77319142Y-99687142D01*
G04 #@! TO.C,C18*
X72017142Y-86847142D02*
X71969523Y-86894761D01*
X71826666Y-86942380D01*
X71731428Y-86942380D01*
X71588571Y-86894761D01*
X71493333Y-86799523D01*
X71445714Y-86704285D01*
X71398095Y-86513809D01*
X71398095Y-86370952D01*
X71445714Y-86180476D01*
X71493333Y-86085238D01*
X71588571Y-85990000D01*
X71731428Y-85942380D01*
X71826666Y-85942380D01*
X71969523Y-85990000D01*
X72017142Y-86037619D01*
X72969523Y-86942380D02*
X72398095Y-86942380D01*
X72683809Y-86942380D02*
X72683809Y-85942380D01*
X72588571Y-86085238D01*
X72493333Y-86180476D01*
X72398095Y-86228095D01*
X73540952Y-86370952D02*
X73445714Y-86323333D01*
X73398095Y-86275714D01*
X73350476Y-86180476D01*
X73350476Y-86132857D01*
X73398095Y-86037619D01*
X73445714Y-85990000D01*
X73540952Y-85942380D01*
X73731428Y-85942380D01*
X73826666Y-85990000D01*
X73874285Y-86037619D01*
X73921904Y-86132857D01*
X73921904Y-86180476D01*
X73874285Y-86275714D01*
X73826666Y-86323333D01*
X73731428Y-86370952D01*
X73540952Y-86370952D01*
X73445714Y-86418571D01*
X73398095Y-86466190D01*
X73350476Y-86561428D01*
X73350476Y-86751904D01*
X73398095Y-86847142D01*
X73445714Y-86894761D01*
X73540952Y-86942380D01*
X73731428Y-86942380D01*
X73826666Y-86894761D01*
X73874285Y-86847142D01*
X73921904Y-86751904D01*
X73921904Y-86561428D01*
X73874285Y-86466190D01*
X73826666Y-86418571D01*
X73731428Y-86370952D01*
G04 #@! TO.C,C11*
X32403730Y-120384016D02*
X32356111Y-120431635D01*
X32213254Y-120479254D01*
X32118016Y-120479254D01*
X31975159Y-120431635D01*
X31879921Y-120336397D01*
X31832302Y-120241159D01*
X31784683Y-120050683D01*
X31784683Y-119907826D01*
X31832302Y-119717350D01*
X31879921Y-119622112D01*
X31975159Y-119526874D01*
X32118016Y-119479254D01*
X32213254Y-119479254D01*
X32356111Y-119526874D01*
X32403730Y-119574493D01*
X33356111Y-120479254D02*
X32784683Y-120479254D01*
X33070397Y-120479254D02*
X33070397Y-119479254D01*
X32975159Y-119622112D01*
X32879921Y-119717350D01*
X32784683Y-119764969D01*
X34308492Y-120479254D02*
X33737064Y-120479254D01*
X34022778Y-120479254D02*
X34022778Y-119479254D01*
X33927540Y-119622112D01*
X33832302Y-119717350D01*
X33737064Y-119764969D01*
G04 #@! TO.C,C10*
X72039142Y-96753142D02*
X71991523Y-96800761D01*
X71848666Y-96848380D01*
X71753428Y-96848380D01*
X71610571Y-96800761D01*
X71515333Y-96705523D01*
X71467714Y-96610285D01*
X71420095Y-96419809D01*
X71420095Y-96276952D01*
X71467714Y-96086476D01*
X71515333Y-95991238D01*
X71610571Y-95896000D01*
X71753428Y-95848380D01*
X71848666Y-95848380D01*
X71991523Y-95896000D01*
X72039142Y-95943619D01*
X72991523Y-96848380D02*
X72420095Y-96848380D01*
X72705809Y-96848380D02*
X72705809Y-95848380D01*
X72610571Y-95991238D01*
X72515333Y-96086476D01*
X72420095Y-96134095D01*
X73610571Y-95848380D02*
X73705809Y-95848380D01*
X73801047Y-95896000D01*
X73848666Y-95943619D01*
X73896285Y-96038857D01*
X73943904Y-96229333D01*
X73943904Y-96467428D01*
X73896285Y-96657904D01*
X73848666Y-96753142D01*
X73801047Y-96800761D01*
X73705809Y-96848380D01*
X73610571Y-96848380D01*
X73515333Y-96800761D01*
X73467714Y-96753142D01*
X73420095Y-96657904D01*
X73372476Y-96467428D01*
X73372476Y-96229333D01*
X73420095Y-96038857D01*
X73467714Y-95943619D01*
X73515333Y-95896000D01*
X73610571Y-95848380D01*
G04 #@! TO.C,C9*
X72515333Y-108183142D02*
X72467714Y-108230761D01*
X72324857Y-108278380D01*
X72229619Y-108278380D01*
X72086761Y-108230761D01*
X71991523Y-108135523D01*
X71943904Y-108040285D01*
X71896285Y-107849809D01*
X71896285Y-107706952D01*
X71943904Y-107516476D01*
X71991523Y-107421238D01*
X72086761Y-107326000D01*
X72229619Y-107278380D01*
X72324857Y-107278380D01*
X72467714Y-107326000D01*
X72515333Y-107373619D01*
X72991523Y-108278380D02*
X73182000Y-108278380D01*
X73277238Y-108230761D01*
X73324857Y-108183142D01*
X73420095Y-108040285D01*
X73467714Y-107849809D01*
X73467714Y-107468857D01*
X73420095Y-107373619D01*
X73372476Y-107326000D01*
X73277238Y-107278380D01*
X73086761Y-107278380D01*
X72991523Y-107326000D01*
X72943904Y-107373619D01*
X72896285Y-107468857D01*
X72896285Y-107706952D01*
X72943904Y-107802190D01*
X72991523Y-107849809D01*
X73086761Y-107897428D01*
X73277238Y-107897428D01*
X73372476Y-107849809D01*
X73420095Y-107802190D01*
X73467714Y-107706952D01*
G04 #@! TO.C,J2*
X89392166Y-127531880D02*
X89392166Y-128246166D01*
X89344547Y-128389023D01*
X89249309Y-128484261D01*
X89106452Y-128531880D01*
X89011214Y-128531880D01*
X89820738Y-127627119D02*
X89868357Y-127579500D01*
X89963595Y-127531880D01*
X90201690Y-127531880D01*
X90296928Y-127579500D01*
X90344547Y-127627119D01*
X90392166Y-127722357D01*
X90392166Y-127817595D01*
X90344547Y-127960452D01*
X89773119Y-128531880D01*
X90392166Y-128531880D01*
G04 #@! TO.C,Q7*
X94837261Y-110847119D02*
X94742023Y-110799500D01*
X94646785Y-110704261D01*
X94503928Y-110561404D01*
X94408690Y-110513785D01*
X94313452Y-110513785D01*
X94361071Y-110751880D02*
X94265833Y-110704261D01*
X94170595Y-110609023D01*
X94122976Y-110418547D01*
X94122976Y-110085214D01*
X94170595Y-109894738D01*
X94265833Y-109799500D01*
X94361071Y-109751880D01*
X94551547Y-109751880D01*
X94646785Y-109799500D01*
X94742023Y-109894738D01*
X94789642Y-110085214D01*
X94789642Y-110418547D01*
X94742023Y-110609023D01*
X94646785Y-110704261D01*
X94551547Y-110751880D01*
X94361071Y-110751880D01*
X95122976Y-109751880D02*
X95789642Y-109751880D01*
X95361071Y-110751880D01*
G04 #@! TO.C,Q10*
X94490571Y-59634619D02*
X94395333Y-59587000D01*
X94300095Y-59491761D01*
X94157238Y-59348904D01*
X94062000Y-59301285D01*
X93966761Y-59301285D01*
X94014380Y-59539380D02*
X93919142Y-59491761D01*
X93823904Y-59396523D01*
X93776285Y-59206047D01*
X93776285Y-58872714D01*
X93823904Y-58682238D01*
X93919142Y-58587000D01*
X94014380Y-58539380D01*
X94204857Y-58539380D01*
X94300095Y-58587000D01*
X94395333Y-58682238D01*
X94442952Y-58872714D01*
X94442952Y-59206047D01*
X94395333Y-59396523D01*
X94300095Y-59491761D01*
X94204857Y-59539380D01*
X94014380Y-59539380D01*
X95395333Y-59539380D02*
X94823904Y-59539380D01*
X95109619Y-59539380D02*
X95109619Y-58539380D01*
X95014380Y-58682238D01*
X94919142Y-58777476D01*
X94823904Y-58825095D01*
X96014380Y-58539380D02*
X96109619Y-58539380D01*
X96204857Y-58587000D01*
X96252476Y-58634619D01*
X96300095Y-58729857D01*
X96347714Y-58920333D01*
X96347714Y-59158428D01*
X96300095Y-59348904D01*
X96252476Y-59444142D01*
X96204857Y-59491761D01*
X96109619Y-59539380D01*
X96014380Y-59539380D01*
X95919142Y-59491761D01*
X95871523Y-59444142D01*
X95823904Y-59348904D01*
X95776285Y-59158428D01*
X95776285Y-58920333D01*
X95823904Y-58729857D01*
X95871523Y-58634619D01*
X95919142Y-58587000D01*
X96014380Y-58539380D01*
G04 #@! TO.C,Q17*
X94170571Y-79033619D02*
X94075333Y-78986000D01*
X93980095Y-78890761D01*
X93837238Y-78747904D01*
X93742000Y-78700285D01*
X93646761Y-78700285D01*
X93694380Y-78938380D02*
X93599142Y-78890761D01*
X93503904Y-78795523D01*
X93456285Y-78605047D01*
X93456285Y-78271714D01*
X93503904Y-78081238D01*
X93599142Y-77986000D01*
X93694380Y-77938380D01*
X93884857Y-77938380D01*
X93980095Y-77986000D01*
X94075333Y-78081238D01*
X94122952Y-78271714D01*
X94122952Y-78605047D01*
X94075333Y-78795523D01*
X93980095Y-78890761D01*
X93884857Y-78938380D01*
X93694380Y-78938380D01*
X95075333Y-78938380D02*
X94503904Y-78938380D01*
X94789619Y-78938380D02*
X94789619Y-77938380D01*
X94694380Y-78081238D01*
X94599142Y-78176476D01*
X94503904Y-78224095D01*
X95408666Y-77938380D02*
X96075333Y-77938380D01*
X95646761Y-78938380D01*
G04 #@! TO.C,Q1*
X95789761Y-89320619D02*
X95694523Y-89273000D01*
X95599285Y-89177761D01*
X95456428Y-89034904D01*
X95361190Y-88987285D01*
X95265952Y-88987285D01*
X95313571Y-89225380D02*
X95218333Y-89177761D01*
X95123095Y-89082523D01*
X95075476Y-88892047D01*
X95075476Y-88558714D01*
X95123095Y-88368238D01*
X95218333Y-88273000D01*
X95313571Y-88225380D01*
X95504047Y-88225380D01*
X95599285Y-88273000D01*
X95694523Y-88368238D01*
X95742142Y-88558714D01*
X95742142Y-88892047D01*
X95694523Y-89082523D01*
X95599285Y-89177761D01*
X95504047Y-89225380D01*
X95313571Y-89225380D01*
X96694523Y-89225380D02*
X96123095Y-89225380D01*
X96408809Y-89225380D02*
X96408809Y-88225380D01*
X96313571Y-88368238D01*
X96218333Y-88463476D01*
X96123095Y-88511095D01*
G04 #@! TO.C,Q4*
X92855619Y-102915238D02*
X92808000Y-103010476D01*
X92712761Y-103105714D01*
X92569904Y-103248571D01*
X92522285Y-103343809D01*
X92522285Y-103439047D01*
X92760380Y-103391428D02*
X92712761Y-103486666D01*
X92617523Y-103581904D01*
X92427047Y-103629523D01*
X92093714Y-103629523D01*
X91903238Y-103581904D01*
X91808000Y-103486666D01*
X91760380Y-103391428D01*
X91760380Y-103200952D01*
X91808000Y-103105714D01*
X91903238Y-103010476D01*
X92093714Y-102962857D01*
X92427047Y-102962857D01*
X92617523Y-103010476D01*
X92712761Y-103105714D01*
X92760380Y-103200952D01*
X92760380Y-103391428D01*
X92093714Y-102105714D02*
X92760380Y-102105714D01*
X91712761Y-102343809D02*
X92427047Y-102581904D01*
X92427047Y-101962857D01*
G04 #@! TO.C,R34*
X94162642Y-118308380D02*
X93829309Y-117832190D01*
X93591214Y-118308380D02*
X93591214Y-117308380D01*
X93972166Y-117308380D01*
X94067404Y-117356000D01*
X94115023Y-117403619D01*
X94162642Y-117498857D01*
X94162642Y-117641714D01*
X94115023Y-117736952D01*
X94067404Y-117784571D01*
X93972166Y-117832190D01*
X93591214Y-117832190D01*
X94495976Y-117308380D02*
X95115023Y-117308380D01*
X94781690Y-117689333D01*
X94924547Y-117689333D01*
X95019785Y-117736952D01*
X95067404Y-117784571D01*
X95115023Y-117879809D01*
X95115023Y-118117904D01*
X95067404Y-118213142D01*
X95019785Y-118260761D01*
X94924547Y-118308380D01*
X94638833Y-118308380D01*
X94543595Y-118260761D01*
X94495976Y-118213142D01*
X95972166Y-117641714D02*
X95972166Y-118308380D01*
X95734071Y-117260761D02*
X95495976Y-117975047D01*
X96115023Y-117975047D01*
G04 #@! TO.C,R44*
X66222642Y-95575380D02*
X65889309Y-95099190D01*
X65651214Y-95575380D02*
X65651214Y-94575380D01*
X66032166Y-94575380D01*
X66127404Y-94623000D01*
X66175023Y-94670619D01*
X66222642Y-94765857D01*
X66222642Y-94908714D01*
X66175023Y-95003952D01*
X66127404Y-95051571D01*
X66032166Y-95099190D01*
X65651214Y-95099190D01*
X67079785Y-94908714D02*
X67079785Y-95575380D01*
X66841690Y-94527761D02*
X66603595Y-95242047D01*
X67222642Y-95242047D01*
X68032166Y-94908714D02*
X68032166Y-95575380D01*
X67794071Y-94527761D02*
X67555976Y-95242047D01*
X68175023Y-95242047D01*
G04 #@! TO.C,R45*
X78972142Y-101468380D02*
X78638809Y-100992190D01*
X78400714Y-101468380D02*
X78400714Y-100468380D01*
X78781666Y-100468380D01*
X78876904Y-100516000D01*
X78924523Y-100563619D01*
X78972142Y-100658857D01*
X78972142Y-100801714D01*
X78924523Y-100896952D01*
X78876904Y-100944571D01*
X78781666Y-100992190D01*
X78400714Y-100992190D01*
X79829285Y-100801714D02*
X79829285Y-101468380D01*
X79591190Y-100420761D02*
X79353095Y-101135047D01*
X79972142Y-101135047D01*
X80829285Y-100468380D02*
X80353095Y-100468380D01*
X80305476Y-100944571D01*
X80353095Y-100896952D01*
X80448333Y-100849333D01*
X80686428Y-100849333D01*
X80781666Y-100896952D01*
X80829285Y-100944571D01*
X80876904Y-101039809D01*
X80876904Y-101277904D01*
X80829285Y-101373142D01*
X80781666Y-101420761D01*
X80686428Y-101468380D01*
X80448333Y-101468380D01*
X80353095Y-101420761D01*
X80305476Y-101373142D01*
G04 #@! TO.C,R46*
X80002142Y-90165380D02*
X79668809Y-89689190D01*
X79430714Y-90165380D02*
X79430714Y-89165380D01*
X79811666Y-89165380D01*
X79906904Y-89213000D01*
X79954523Y-89260619D01*
X80002142Y-89355857D01*
X80002142Y-89498714D01*
X79954523Y-89593952D01*
X79906904Y-89641571D01*
X79811666Y-89689190D01*
X79430714Y-89689190D01*
X80859285Y-89498714D02*
X80859285Y-90165380D01*
X80621190Y-89117761D02*
X80383095Y-89832047D01*
X81002142Y-89832047D01*
X81811666Y-89165380D02*
X81621190Y-89165380D01*
X81525952Y-89213000D01*
X81478333Y-89260619D01*
X81383095Y-89403476D01*
X81335476Y-89593952D01*
X81335476Y-89974904D01*
X81383095Y-90070142D01*
X81430714Y-90117761D01*
X81525952Y-90165380D01*
X81716428Y-90165380D01*
X81811666Y-90117761D01*
X81859285Y-90070142D01*
X81906904Y-89974904D01*
X81906904Y-89736809D01*
X81859285Y-89641571D01*
X81811666Y-89593952D01*
X81716428Y-89546333D01*
X81525952Y-89546333D01*
X81430714Y-89593952D01*
X81383095Y-89641571D01*
X81335476Y-89736809D01*
G04 #@! TO.C,R58*
X79240142Y-116593880D02*
X78906809Y-116117690D01*
X78668714Y-116593880D02*
X78668714Y-115593880D01*
X79049666Y-115593880D01*
X79144904Y-115641500D01*
X79192523Y-115689119D01*
X79240142Y-115784357D01*
X79240142Y-115927214D01*
X79192523Y-116022452D01*
X79144904Y-116070071D01*
X79049666Y-116117690D01*
X78668714Y-116117690D01*
X80144904Y-115593880D02*
X79668714Y-115593880D01*
X79621095Y-116070071D01*
X79668714Y-116022452D01*
X79763952Y-115974833D01*
X80002047Y-115974833D01*
X80097285Y-116022452D01*
X80144904Y-116070071D01*
X80192523Y-116165309D01*
X80192523Y-116403404D01*
X80144904Y-116498642D01*
X80097285Y-116546261D01*
X80002047Y-116593880D01*
X79763952Y-116593880D01*
X79668714Y-116546261D01*
X79621095Y-116498642D01*
X80763952Y-116022452D02*
X80668714Y-115974833D01*
X80621095Y-115927214D01*
X80573476Y-115831976D01*
X80573476Y-115784357D01*
X80621095Y-115689119D01*
X80668714Y-115641500D01*
X80763952Y-115593880D01*
X80954428Y-115593880D01*
X81049666Y-115641500D01*
X81097285Y-115689119D01*
X81144904Y-115784357D01*
X81144904Y-115831976D01*
X81097285Y-115927214D01*
X81049666Y-115974833D01*
X80954428Y-116022452D01*
X80763952Y-116022452D01*
X80668714Y-116070071D01*
X80621095Y-116117690D01*
X80573476Y-116212928D01*
X80573476Y-116403404D01*
X80621095Y-116498642D01*
X80668714Y-116546261D01*
X80763952Y-116593880D01*
X80954428Y-116593880D01*
X81049666Y-116546261D01*
X81097285Y-116498642D01*
X81144904Y-116403404D01*
X81144904Y-116212928D01*
X81097285Y-116117690D01*
X81049666Y-116070071D01*
X80954428Y-116022452D01*
G04 #@! TO.C,R81*
X64728142Y-122763380D02*
X64394809Y-122287190D01*
X64156714Y-122763380D02*
X64156714Y-121763380D01*
X64537666Y-121763380D01*
X64632904Y-121811000D01*
X64680523Y-121858619D01*
X64728142Y-121953857D01*
X64728142Y-122096714D01*
X64680523Y-122191952D01*
X64632904Y-122239571D01*
X64537666Y-122287190D01*
X64156714Y-122287190D01*
X65299571Y-122191952D02*
X65204333Y-122144333D01*
X65156714Y-122096714D01*
X65109095Y-122001476D01*
X65109095Y-121953857D01*
X65156714Y-121858619D01*
X65204333Y-121811000D01*
X65299571Y-121763380D01*
X65490047Y-121763380D01*
X65585285Y-121811000D01*
X65632904Y-121858619D01*
X65680523Y-121953857D01*
X65680523Y-122001476D01*
X65632904Y-122096714D01*
X65585285Y-122144333D01*
X65490047Y-122191952D01*
X65299571Y-122191952D01*
X65204333Y-122239571D01*
X65156714Y-122287190D01*
X65109095Y-122382428D01*
X65109095Y-122572904D01*
X65156714Y-122668142D01*
X65204333Y-122715761D01*
X65299571Y-122763380D01*
X65490047Y-122763380D01*
X65585285Y-122715761D01*
X65632904Y-122668142D01*
X65680523Y-122572904D01*
X65680523Y-122382428D01*
X65632904Y-122287190D01*
X65585285Y-122239571D01*
X65490047Y-122191952D01*
X66632904Y-122763380D02*
X66061476Y-122763380D01*
X66347190Y-122763380D02*
X66347190Y-121763380D01*
X66251952Y-121906238D01*
X66156714Y-122001476D01*
X66061476Y-122049095D01*
G04 #@! TO.C,R60*
X79494142Y-85161380D02*
X79160809Y-84685190D01*
X78922714Y-85161380D02*
X78922714Y-84161380D01*
X79303666Y-84161380D01*
X79398904Y-84209000D01*
X79446523Y-84256619D01*
X79494142Y-84351857D01*
X79494142Y-84494714D01*
X79446523Y-84589952D01*
X79398904Y-84637571D01*
X79303666Y-84685190D01*
X78922714Y-84685190D01*
X80351285Y-84161380D02*
X80160809Y-84161380D01*
X80065571Y-84209000D01*
X80017952Y-84256619D01*
X79922714Y-84399476D01*
X79875095Y-84589952D01*
X79875095Y-84970904D01*
X79922714Y-85066142D01*
X79970333Y-85113761D01*
X80065571Y-85161380D01*
X80256047Y-85161380D01*
X80351285Y-85113761D01*
X80398904Y-85066142D01*
X80446523Y-84970904D01*
X80446523Y-84732809D01*
X80398904Y-84637571D01*
X80351285Y-84589952D01*
X80256047Y-84542333D01*
X80065571Y-84542333D01*
X79970333Y-84589952D01*
X79922714Y-84637571D01*
X79875095Y-84732809D01*
X81065571Y-84161380D02*
X81160809Y-84161380D01*
X81256047Y-84209000D01*
X81303666Y-84256619D01*
X81351285Y-84351857D01*
X81398904Y-84542333D01*
X81398904Y-84780428D01*
X81351285Y-84970904D01*
X81303666Y-85066142D01*
X81256047Y-85113761D01*
X81160809Y-85161380D01*
X81065571Y-85161380D01*
X80970333Y-85113761D01*
X80922714Y-85066142D01*
X80875095Y-84970904D01*
X80827476Y-84780428D01*
X80827476Y-84542333D01*
X80875095Y-84351857D01*
X80922714Y-84256619D01*
X80970333Y-84209000D01*
X81065571Y-84161380D01*
G04 #@! TO.C,R67*
X62984142Y-83510380D02*
X62650809Y-83034190D01*
X62412714Y-83510380D02*
X62412714Y-82510380D01*
X62793666Y-82510380D01*
X62888904Y-82558000D01*
X62936523Y-82605619D01*
X62984142Y-82700857D01*
X62984142Y-82843714D01*
X62936523Y-82938952D01*
X62888904Y-82986571D01*
X62793666Y-83034190D01*
X62412714Y-83034190D01*
X63841285Y-82510380D02*
X63650809Y-82510380D01*
X63555571Y-82558000D01*
X63507952Y-82605619D01*
X63412714Y-82748476D01*
X63365095Y-82938952D01*
X63365095Y-83319904D01*
X63412714Y-83415142D01*
X63460333Y-83462761D01*
X63555571Y-83510380D01*
X63746047Y-83510380D01*
X63841285Y-83462761D01*
X63888904Y-83415142D01*
X63936523Y-83319904D01*
X63936523Y-83081809D01*
X63888904Y-82986571D01*
X63841285Y-82938952D01*
X63746047Y-82891333D01*
X63555571Y-82891333D01*
X63460333Y-82938952D01*
X63412714Y-82986571D01*
X63365095Y-83081809D01*
X64269857Y-82510380D02*
X64936523Y-82510380D01*
X64507952Y-83510380D01*
G04 #@! TO.C,R68*
X79875142Y-111704380D02*
X79541809Y-111228190D01*
X79303714Y-111704380D02*
X79303714Y-110704380D01*
X79684666Y-110704380D01*
X79779904Y-110752000D01*
X79827523Y-110799619D01*
X79875142Y-110894857D01*
X79875142Y-111037714D01*
X79827523Y-111132952D01*
X79779904Y-111180571D01*
X79684666Y-111228190D01*
X79303714Y-111228190D01*
X80732285Y-110704380D02*
X80541809Y-110704380D01*
X80446571Y-110752000D01*
X80398952Y-110799619D01*
X80303714Y-110942476D01*
X80256095Y-111132952D01*
X80256095Y-111513904D01*
X80303714Y-111609142D01*
X80351333Y-111656761D01*
X80446571Y-111704380D01*
X80637047Y-111704380D01*
X80732285Y-111656761D01*
X80779904Y-111609142D01*
X80827523Y-111513904D01*
X80827523Y-111275809D01*
X80779904Y-111180571D01*
X80732285Y-111132952D01*
X80637047Y-111085333D01*
X80446571Y-111085333D01*
X80351333Y-111132952D01*
X80303714Y-111180571D01*
X80256095Y-111275809D01*
X81398952Y-111132952D02*
X81303714Y-111085333D01*
X81256095Y-111037714D01*
X81208476Y-110942476D01*
X81208476Y-110894857D01*
X81256095Y-110799619D01*
X81303714Y-110752000D01*
X81398952Y-110704380D01*
X81589428Y-110704380D01*
X81684666Y-110752000D01*
X81732285Y-110799619D01*
X81779904Y-110894857D01*
X81779904Y-110942476D01*
X81732285Y-111037714D01*
X81684666Y-111085333D01*
X81589428Y-111132952D01*
X81398952Y-111132952D01*
X81303714Y-111180571D01*
X81256095Y-111228190D01*
X81208476Y-111323428D01*
X81208476Y-111513904D01*
X81256095Y-111609142D01*
X81303714Y-111656761D01*
X81398952Y-111704380D01*
X81589428Y-111704380D01*
X81684666Y-111656761D01*
X81732285Y-111609142D01*
X81779904Y-111513904D01*
X81779904Y-111323428D01*
X81732285Y-111228190D01*
X81684666Y-111180571D01*
X81589428Y-111132952D01*
G04 #@! TO.C,R69*
X79480142Y-79878380D02*
X79146809Y-79402190D01*
X78908714Y-79878380D02*
X78908714Y-78878380D01*
X79289666Y-78878380D01*
X79384904Y-78926000D01*
X79432523Y-78973619D01*
X79480142Y-79068857D01*
X79480142Y-79211714D01*
X79432523Y-79306952D01*
X79384904Y-79354571D01*
X79289666Y-79402190D01*
X78908714Y-79402190D01*
X80337285Y-78878380D02*
X80146809Y-78878380D01*
X80051571Y-78926000D01*
X80003952Y-78973619D01*
X79908714Y-79116476D01*
X79861095Y-79306952D01*
X79861095Y-79687904D01*
X79908714Y-79783142D01*
X79956333Y-79830761D01*
X80051571Y-79878380D01*
X80242047Y-79878380D01*
X80337285Y-79830761D01*
X80384904Y-79783142D01*
X80432523Y-79687904D01*
X80432523Y-79449809D01*
X80384904Y-79354571D01*
X80337285Y-79306952D01*
X80242047Y-79259333D01*
X80051571Y-79259333D01*
X79956333Y-79306952D01*
X79908714Y-79354571D01*
X79861095Y-79449809D01*
X80908714Y-79878380D02*
X81099190Y-79878380D01*
X81194428Y-79830761D01*
X81242047Y-79783142D01*
X81337285Y-79640285D01*
X81384904Y-79449809D01*
X81384904Y-79068857D01*
X81337285Y-78973619D01*
X81289666Y-78926000D01*
X81194428Y-78878380D01*
X81003952Y-78878380D01*
X80908714Y-78926000D01*
X80861095Y-78973619D01*
X80813476Y-79068857D01*
X80813476Y-79306952D01*
X80861095Y-79402190D01*
X80908714Y-79449809D01*
X81003952Y-79497428D01*
X81194428Y-79497428D01*
X81289666Y-79449809D01*
X81337285Y-79402190D01*
X81384904Y-79306952D01*
G04 #@! TO.C,R80*
X64728142Y-121163380D02*
X64394809Y-120687190D01*
X64156714Y-121163380D02*
X64156714Y-120163380D01*
X64537666Y-120163380D01*
X64632904Y-120211000D01*
X64680523Y-120258619D01*
X64728142Y-120353857D01*
X64728142Y-120496714D01*
X64680523Y-120591952D01*
X64632904Y-120639571D01*
X64537666Y-120687190D01*
X64156714Y-120687190D01*
X65299571Y-120591952D02*
X65204333Y-120544333D01*
X65156714Y-120496714D01*
X65109095Y-120401476D01*
X65109095Y-120353857D01*
X65156714Y-120258619D01*
X65204333Y-120211000D01*
X65299571Y-120163380D01*
X65490047Y-120163380D01*
X65585285Y-120211000D01*
X65632904Y-120258619D01*
X65680523Y-120353857D01*
X65680523Y-120401476D01*
X65632904Y-120496714D01*
X65585285Y-120544333D01*
X65490047Y-120591952D01*
X65299571Y-120591952D01*
X65204333Y-120639571D01*
X65156714Y-120687190D01*
X65109095Y-120782428D01*
X65109095Y-120972904D01*
X65156714Y-121068142D01*
X65204333Y-121115761D01*
X65299571Y-121163380D01*
X65490047Y-121163380D01*
X65585285Y-121115761D01*
X65632904Y-121068142D01*
X65680523Y-120972904D01*
X65680523Y-120782428D01*
X65632904Y-120687190D01*
X65585285Y-120639571D01*
X65490047Y-120591952D01*
X66299571Y-120163380D02*
X66394809Y-120163380D01*
X66490047Y-120211000D01*
X66537666Y-120258619D01*
X66585285Y-120353857D01*
X66632904Y-120544333D01*
X66632904Y-120782428D01*
X66585285Y-120972904D01*
X66537666Y-121068142D01*
X66490047Y-121115761D01*
X66394809Y-121163380D01*
X66299571Y-121163380D01*
X66204333Y-121115761D01*
X66156714Y-121068142D01*
X66109095Y-120972904D01*
X66061476Y-120782428D01*
X66061476Y-120544333D01*
X66109095Y-120353857D01*
X66156714Y-120258619D01*
X66204333Y-120211000D01*
X66299571Y-120163380D01*
G04 #@! TO.C,R79*
X64623541Y-119563380D02*
X64290208Y-119087190D01*
X64052113Y-119563380D02*
X64052113Y-118563380D01*
X64433065Y-118563380D01*
X64528303Y-118611000D01*
X64575922Y-118658619D01*
X64623541Y-118753857D01*
X64623541Y-118896714D01*
X64575922Y-118991952D01*
X64528303Y-119039571D01*
X64433065Y-119087190D01*
X64052113Y-119087190D01*
X64956875Y-118563380D02*
X65623541Y-118563380D01*
X65194970Y-119563380D01*
X66052113Y-119563380D02*
X66242589Y-119563380D01*
X66337827Y-119515761D01*
X66385446Y-119468142D01*
X66480684Y-119325285D01*
X66528303Y-119134809D01*
X66528303Y-118753857D01*
X66480684Y-118658619D01*
X66433065Y-118611000D01*
X66337827Y-118563380D01*
X66147351Y-118563380D01*
X66052113Y-118611000D01*
X66004494Y-118658619D01*
X65956875Y-118753857D01*
X65956875Y-118991952D01*
X66004494Y-119087190D01*
X66052113Y-119134809D01*
X66147351Y-119182428D01*
X66337827Y-119182428D01*
X66433065Y-119134809D01*
X66480684Y-119087190D01*
X66528303Y-118991952D01*
G04 #@! TO.C,R65*
X63111142Y-115006380D02*
X62777809Y-114530190D01*
X62539714Y-115006380D02*
X62539714Y-114006380D01*
X62920666Y-114006380D01*
X63015904Y-114054000D01*
X63063523Y-114101619D01*
X63111142Y-114196857D01*
X63111142Y-114339714D01*
X63063523Y-114434952D01*
X63015904Y-114482571D01*
X62920666Y-114530190D01*
X62539714Y-114530190D01*
X63968285Y-114006380D02*
X63777809Y-114006380D01*
X63682571Y-114054000D01*
X63634952Y-114101619D01*
X63539714Y-114244476D01*
X63492095Y-114434952D01*
X63492095Y-114815904D01*
X63539714Y-114911142D01*
X63587333Y-114958761D01*
X63682571Y-115006380D01*
X63873047Y-115006380D01*
X63968285Y-114958761D01*
X64015904Y-114911142D01*
X64063523Y-114815904D01*
X64063523Y-114577809D01*
X64015904Y-114482571D01*
X63968285Y-114434952D01*
X63873047Y-114387333D01*
X63682571Y-114387333D01*
X63587333Y-114434952D01*
X63539714Y-114482571D01*
X63492095Y-114577809D01*
X64968285Y-114006380D02*
X64492095Y-114006380D01*
X64444476Y-114482571D01*
X64492095Y-114434952D01*
X64587333Y-114387333D01*
X64825428Y-114387333D01*
X64920666Y-114434952D01*
X64968285Y-114482571D01*
X65015904Y-114577809D01*
X65015904Y-114815904D01*
X64968285Y-114911142D01*
X64920666Y-114958761D01*
X64825428Y-115006380D01*
X64587333Y-115006380D01*
X64492095Y-114958761D01*
X64444476Y-114911142D01*
G04 #@! TO.C,R13*
X62869142Y-64579380D02*
X62535809Y-64103190D01*
X62297714Y-64579380D02*
X62297714Y-63579380D01*
X62678666Y-63579380D01*
X62773904Y-63627000D01*
X62821523Y-63674619D01*
X62869142Y-63769857D01*
X62869142Y-63912714D01*
X62821523Y-64007952D01*
X62773904Y-64055571D01*
X62678666Y-64103190D01*
X62297714Y-64103190D01*
X63821523Y-64579380D02*
X63250095Y-64579380D01*
X63535809Y-64579380D02*
X63535809Y-63579380D01*
X63440571Y-63722238D01*
X63345333Y-63817476D01*
X63250095Y-63865095D01*
X64154857Y-63579380D02*
X64773904Y-63579380D01*
X64440571Y-63960333D01*
X64583428Y-63960333D01*
X64678666Y-64007952D01*
X64726285Y-64055571D01*
X64773904Y-64150809D01*
X64773904Y-64388904D01*
X64726285Y-64484142D01*
X64678666Y-64531761D01*
X64583428Y-64579380D01*
X64297714Y-64579380D01*
X64202476Y-64531761D01*
X64154857Y-64484142D01*
G04 #@! TO.C,R8*
X41489333Y-49801380D02*
X41156000Y-49325190D01*
X40917904Y-49801380D02*
X40917904Y-48801380D01*
X41298857Y-48801380D01*
X41394095Y-48849000D01*
X41441714Y-48896619D01*
X41489333Y-48991857D01*
X41489333Y-49134714D01*
X41441714Y-49229952D01*
X41394095Y-49277571D01*
X41298857Y-49325190D01*
X40917904Y-49325190D01*
X42060761Y-49229952D02*
X41965523Y-49182333D01*
X41917904Y-49134714D01*
X41870285Y-49039476D01*
X41870285Y-48991857D01*
X41917904Y-48896619D01*
X41965523Y-48849000D01*
X42060761Y-48801380D01*
X42251238Y-48801380D01*
X42346476Y-48849000D01*
X42394095Y-48896619D01*
X42441714Y-48991857D01*
X42441714Y-49039476D01*
X42394095Y-49134714D01*
X42346476Y-49182333D01*
X42251238Y-49229952D01*
X42060761Y-49229952D01*
X41965523Y-49277571D01*
X41917904Y-49325190D01*
X41870285Y-49420428D01*
X41870285Y-49610904D01*
X41917904Y-49706142D01*
X41965523Y-49753761D01*
X42060761Y-49801380D01*
X42251238Y-49801380D01*
X42346476Y-49753761D01*
X42394095Y-49706142D01*
X42441714Y-49610904D01*
X42441714Y-49420428D01*
X42394095Y-49325190D01*
X42346476Y-49277571D01*
X42251238Y-49229952D01*
G04 #@! TO.C,R9*
X79579333Y-65009380D02*
X79246000Y-64533190D01*
X79007904Y-65009380D02*
X79007904Y-64009380D01*
X79388857Y-64009380D01*
X79484095Y-64057000D01*
X79531714Y-64104619D01*
X79579333Y-64199857D01*
X79579333Y-64342714D01*
X79531714Y-64437952D01*
X79484095Y-64485571D01*
X79388857Y-64533190D01*
X79007904Y-64533190D01*
X80055523Y-65009380D02*
X80246000Y-65009380D01*
X80341238Y-64961761D01*
X80388857Y-64914142D01*
X80484095Y-64771285D01*
X80531714Y-64580809D01*
X80531714Y-64199857D01*
X80484095Y-64104619D01*
X80436476Y-64057000D01*
X80341238Y-64009380D01*
X80150761Y-64009380D01*
X80055523Y-64057000D01*
X80007904Y-64104619D01*
X79960285Y-64199857D01*
X79960285Y-64437952D01*
X80007904Y-64533190D01*
X80055523Y-64580809D01*
X80150761Y-64628428D01*
X80341238Y-64628428D01*
X80436476Y-64580809D01*
X80484095Y-64533190D01*
X80531714Y-64437952D01*
G04 #@! TO.C,R7*
X41471333Y-51292380D02*
X41138000Y-50816190D01*
X40899904Y-51292380D02*
X40899904Y-50292380D01*
X41280857Y-50292380D01*
X41376095Y-50340000D01*
X41423714Y-50387619D01*
X41471333Y-50482857D01*
X41471333Y-50625714D01*
X41423714Y-50720952D01*
X41376095Y-50768571D01*
X41280857Y-50816190D01*
X40899904Y-50816190D01*
X41804666Y-50292380D02*
X42471333Y-50292380D01*
X42042761Y-51292380D01*
G04 #@! TO.C,R6*
X41417333Y-46045380D02*
X41084000Y-45569190D01*
X40845904Y-46045380D02*
X40845904Y-45045380D01*
X41226857Y-45045380D01*
X41322095Y-45093000D01*
X41369714Y-45140619D01*
X41417333Y-45235857D01*
X41417333Y-45378714D01*
X41369714Y-45473952D01*
X41322095Y-45521571D01*
X41226857Y-45569190D01*
X40845904Y-45569190D01*
X42274476Y-45045380D02*
X42084000Y-45045380D01*
X41988761Y-45093000D01*
X41941142Y-45140619D01*
X41845904Y-45283476D01*
X41798285Y-45473952D01*
X41798285Y-45854904D01*
X41845904Y-45950142D01*
X41893523Y-45997761D01*
X41988761Y-46045380D01*
X42179238Y-46045380D01*
X42274476Y-45997761D01*
X42322095Y-45950142D01*
X42369714Y-45854904D01*
X42369714Y-45616809D01*
X42322095Y-45521571D01*
X42274476Y-45473952D01*
X42179238Y-45426333D01*
X41988761Y-45426333D01*
X41893523Y-45473952D01*
X41845904Y-45521571D01*
X41798285Y-45616809D01*
G04 #@! TO.C,R5*
X41362333Y-44267380D02*
X41029000Y-43791190D01*
X40790904Y-44267380D02*
X40790904Y-43267380D01*
X41171857Y-43267380D01*
X41267095Y-43315000D01*
X41314714Y-43362619D01*
X41362333Y-43457857D01*
X41362333Y-43600714D01*
X41314714Y-43695952D01*
X41267095Y-43743571D01*
X41171857Y-43791190D01*
X40790904Y-43791190D01*
X42267095Y-43267380D02*
X41790904Y-43267380D01*
X41743285Y-43743571D01*
X41790904Y-43695952D01*
X41886142Y-43648333D01*
X42124238Y-43648333D01*
X42219476Y-43695952D01*
X42267095Y-43743571D01*
X42314714Y-43838809D01*
X42314714Y-44076904D01*
X42267095Y-44172142D01*
X42219476Y-44219761D01*
X42124238Y-44267380D01*
X41886142Y-44267380D01*
X41790904Y-44219761D01*
X41743285Y-44172142D01*
G04 #@! TO.C,R3*
X33351921Y-110954254D02*
X33018588Y-110478064D01*
X32780492Y-110954254D02*
X32780492Y-109954254D01*
X33161445Y-109954254D01*
X33256683Y-110001874D01*
X33304302Y-110049493D01*
X33351921Y-110144731D01*
X33351921Y-110287588D01*
X33304302Y-110382826D01*
X33256683Y-110430445D01*
X33161445Y-110478064D01*
X32780492Y-110478064D01*
X33685254Y-109954254D02*
X34304302Y-109954254D01*
X33970968Y-110335207D01*
X34113826Y-110335207D01*
X34209064Y-110382826D01*
X34256683Y-110430445D01*
X34304302Y-110525683D01*
X34304302Y-110763778D01*
X34256683Y-110859016D01*
X34209064Y-110906635D01*
X34113826Y-110954254D01*
X33828111Y-110954254D01*
X33732873Y-110906635D01*
X33685254Y-110859016D01*
G04 #@! TO.C,R31*
X97337142Y-106243380D02*
X97003809Y-105767190D01*
X96765714Y-106243380D02*
X96765714Y-105243380D01*
X97146666Y-105243380D01*
X97241904Y-105291000D01*
X97289523Y-105338619D01*
X97337142Y-105433857D01*
X97337142Y-105576714D01*
X97289523Y-105671952D01*
X97241904Y-105719571D01*
X97146666Y-105767190D01*
X96765714Y-105767190D01*
X97670476Y-105243380D02*
X98289523Y-105243380D01*
X97956190Y-105624333D01*
X98099047Y-105624333D01*
X98194285Y-105671952D01*
X98241904Y-105719571D01*
X98289523Y-105814809D01*
X98289523Y-106052904D01*
X98241904Y-106148142D01*
X98194285Y-106195761D01*
X98099047Y-106243380D01*
X97813333Y-106243380D01*
X97718095Y-106195761D01*
X97670476Y-106148142D01*
X99241904Y-106243380D02*
X98670476Y-106243380D01*
X98956190Y-106243380D02*
X98956190Y-105243380D01*
X98860952Y-105386238D01*
X98765714Y-105481476D01*
X98670476Y-105529095D01*
G04 #@! TO.C,R1*
X33307921Y-118701254D02*
X32974588Y-118225064D01*
X32736492Y-118701254D02*
X32736492Y-117701254D01*
X33117445Y-117701254D01*
X33212683Y-117748874D01*
X33260302Y-117796493D01*
X33307921Y-117891731D01*
X33307921Y-118034588D01*
X33260302Y-118129826D01*
X33212683Y-118177445D01*
X33117445Y-118225064D01*
X32736492Y-118225064D01*
X34260302Y-118701254D02*
X33688873Y-118701254D01*
X33974588Y-118701254D02*
X33974588Y-117701254D01*
X33879349Y-117844112D01*
X33784111Y-117939350D01*
X33688873Y-117986969D01*
G04 #@! TO.C,R17*
X40505142Y-53157380D02*
X40171809Y-52681190D01*
X39933714Y-53157380D02*
X39933714Y-52157380D01*
X40314666Y-52157380D01*
X40409904Y-52205000D01*
X40457523Y-52252619D01*
X40505142Y-52347857D01*
X40505142Y-52490714D01*
X40457523Y-52585952D01*
X40409904Y-52633571D01*
X40314666Y-52681190D01*
X39933714Y-52681190D01*
X41457523Y-53157380D02*
X40886095Y-53157380D01*
X41171809Y-53157380D02*
X41171809Y-52157380D01*
X41076571Y-52300238D01*
X40981333Y-52395476D01*
X40886095Y-52443095D01*
X41790857Y-52157380D02*
X42457523Y-52157380D01*
X42028952Y-53157380D01*
G04 #@! TO.C,R16*
X94035642Y-96337380D02*
X93702309Y-95861190D01*
X93464214Y-96337380D02*
X93464214Y-95337380D01*
X93845166Y-95337380D01*
X93940404Y-95385000D01*
X93988023Y-95432619D01*
X94035642Y-95527857D01*
X94035642Y-95670714D01*
X93988023Y-95765952D01*
X93940404Y-95813571D01*
X93845166Y-95861190D01*
X93464214Y-95861190D01*
X94988023Y-96337380D02*
X94416595Y-96337380D01*
X94702309Y-96337380D02*
X94702309Y-95337380D01*
X94607071Y-95480238D01*
X94511833Y-95575476D01*
X94416595Y-95623095D01*
X95845166Y-95337380D02*
X95654690Y-95337380D01*
X95559452Y-95385000D01*
X95511833Y-95432619D01*
X95416595Y-95575476D01*
X95368976Y-95765952D01*
X95368976Y-96146904D01*
X95416595Y-96242142D01*
X95464214Y-96289761D01*
X95559452Y-96337380D01*
X95749928Y-96337380D01*
X95845166Y-96289761D01*
X95892785Y-96242142D01*
X95940404Y-96146904D01*
X95940404Y-95908809D01*
X95892785Y-95813571D01*
X95845166Y-95765952D01*
X95749928Y-95718333D01*
X95559452Y-95718333D01*
X95464214Y-95765952D01*
X95416595Y-95813571D01*
X95368976Y-95908809D01*
G04 #@! TO.C,R82*
X64728142Y-124363380D02*
X64394809Y-123887190D01*
X64156714Y-124363380D02*
X64156714Y-123363380D01*
X64537666Y-123363380D01*
X64632904Y-123411000D01*
X64680523Y-123458619D01*
X64728142Y-123553857D01*
X64728142Y-123696714D01*
X64680523Y-123791952D01*
X64632904Y-123839571D01*
X64537666Y-123887190D01*
X64156714Y-123887190D01*
X65299571Y-123791952D02*
X65204333Y-123744333D01*
X65156714Y-123696714D01*
X65109095Y-123601476D01*
X65109095Y-123553857D01*
X65156714Y-123458619D01*
X65204333Y-123411000D01*
X65299571Y-123363380D01*
X65490047Y-123363380D01*
X65585285Y-123411000D01*
X65632904Y-123458619D01*
X65680523Y-123553857D01*
X65680523Y-123601476D01*
X65632904Y-123696714D01*
X65585285Y-123744333D01*
X65490047Y-123791952D01*
X65299571Y-123791952D01*
X65204333Y-123839571D01*
X65156714Y-123887190D01*
X65109095Y-123982428D01*
X65109095Y-124172904D01*
X65156714Y-124268142D01*
X65204333Y-124315761D01*
X65299571Y-124363380D01*
X65490047Y-124363380D01*
X65585285Y-124315761D01*
X65632904Y-124268142D01*
X65680523Y-124172904D01*
X65680523Y-123982428D01*
X65632904Y-123887190D01*
X65585285Y-123839571D01*
X65490047Y-123791952D01*
X66061476Y-123458619D02*
X66109095Y-123411000D01*
X66204333Y-123363380D01*
X66442428Y-123363380D01*
X66537666Y-123411000D01*
X66585285Y-123458619D01*
X66632904Y-123553857D01*
X66632904Y-123649095D01*
X66585285Y-123791952D01*
X66013857Y-124363380D01*
X66632904Y-124363380D01*
G04 #@! TO.C,A1*
X76239666Y-136477285D02*
X76239666Y-136001095D01*
X76525380Y-136572523D02*
X75525380Y-136239190D01*
X76525380Y-135905857D01*
X76525380Y-135048714D02*
X76525380Y-135620142D01*
X76525380Y-135334428D02*
X75525380Y-135334428D01*
X75668238Y-135429666D01*
X75763476Y-135524904D01*
X75811095Y-135620142D01*
G04 #@! TD*
M02*
